<svg width="42" height="41" viewBox="0 0 42 41" fill="none" xmlns="http://www.w3.org/2000/svg">
<path d="M12.6663 34.5391L9.91684 39.5" stroke="#F75A2D" stroke-width="2" stroke-linecap="round" stroke-linejoin="round"/>
<path d="M29.1668 34.5391L31.9163 39.5" stroke="#F75A2D" stroke-width="2" stroke-linecap="round" stroke-linejoin="round"/>
<path d="M20.9167 36.75C30.0294 36.75 37.4167 29.3627 37.4167 20.25C37.4167 11.1372 30.0294 3.74989 20.9167 3.74989C11.8039 3.74989 4.41661 11.1372 4.41661 20.25C4.41661 29.3627 11.8039 36.75 20.9167 36.75Z" stroke="#F75A2D" stroke-width="2" stroke-linecap="round" stroke-linejoin="round"/>
<path d="M4.96853 15.8515C3.70179 14.9021 2.73496 13.6082 2.18342 12.1243C1.63187 10.6405 1.5189 9.02925 1.85797 7.48293C2.19705 5.93661 2.97386 4.5205 4.09571 3.40357C5.21756 2.28664 6.63707 1.51606 8.18486 1.18378C9.73266 0.851504 11.3434 0.971558 12.8248 1.52962C14.3062 2.08768 15.5958 3.06018 16.5397 4.33108" stroke="#F75A2D" stroke-width="2" stroke-linecap="round" stroke-linejoin="round"/>
<path d="M20.9165 3.75L20.9166 1" stroke="#F75A2D" stroke-width="2" stroke-linecap="round" stroke-linejoin="round"/>
<path d="M20.9165 12V20.25" stroke="#F75A2D" stroke-width="2" stroke-linecap="round" stroke-linejoin="round"/>
<path d="M20.9165 20.25L26.7501 26.0836" stroke="#F75A2D" stroke-width="2" stroke-linecap="round" stroke-linejoin="round"/>
<path d="M36.8645 15.8515C38.1312 14.9021 39.098 13.6082 39.6496 12.1243C40.2011 10.6405 40.3141 9.02925 39.975 7.48293C39.6359 5.93661 38.8591 4.5205 37.7373 3.40357C36.6154 2.28664 35.1959 1.51606 33.6481 1.18378C32.1003 0.851504 30.4896 0.971558 29.0082 1.52962C27.5268 2.08768 26.2372 3.06018 25.2933 4.33108" stroke="#F75A2D" stroke-width="2" stroke-linecap="round" stroke-linejoin="round"/>
</svg>
