<svg width="356" height="96" viewBox="0 0 356 96" fill="none" xmlns="http://www.w3.org/2000/svg">
<g clip-path="url(#clip0_109_362)">
<path d="M84.3445 76.3707C84.8467 77.6248 84.4897 78.5721 83.4851 79.4684C81.0955 81.5951 78.5764 83.5449 75.8061 85.137C74.7545 85.7424 74.2915 86.4185 74.4445 87.6018C74.5191 88.1796 74.4642 88.7732 74.4563 89.359C74.421 91.8198 73.9109 92.3426 71.4742 92.3426C57.152 92.3466 42.8259 92.3466 28.5038 92.3426C26.0867 92.3426 25.4942 91.9024 25.6904 89.4926C25.8905 87.016 25.0351 85.6756 22.8966 84.2525C8.29189 74.5428 0.69527 60.7841 0.00859116 43.2319C-0.081658 40.8772 0.518695 40.319 2.78277 40.3033C4.47396 40.2915 6.45944 40.8458 7.78179 40.1421C9.17477 39.4031 8.23304 37.182 8.65289 35.6528C9.71234 31.769 11.8195 28.6831 15.3549 26.6979C16.3084 26.1633 16.8891 25.5815 17.2736 24.4847C20.4991 15.2467 31.8862 12.2552 39.2709 18.7178C40.3578 19.6692 40.864 19.5158 41.7037 18.5645C42.7749 17.3498 43.9913 16.2649 45.2234 15.0462C41.3545 13.1868 38.6941 10.4744 38.2232 6.18956C37.6229 0.686078 39.212 -0.505032 44.7094 0.178972C47.3031 0.501319 48.2919 1.30325 51.7214 4.43238C54.6996 1.00056 58.2782 -0.764482 62.924 0.316559C64.0894 0.587802 64.6466 1.24036 64.9605 2.36857C66.1495 6.61411 64.0227 11.6341 59.9144 14.0753C59.369 14.4015 58.8 14.6885 58.1212 15.058C60.3735 17.2869 62.5513 19.4412 64.7251 21.5914C65.0782 21.9413 65.3215 22.3541 65.9297 21.788C69.6299 18.3719 73.6362 18.592 77.7563 20.9389C78.9884 21.6386 79.9576 22.1261 80.5932 20.1763C80.9699 19.0205 82.1 18.5016 83.3086 19.1738C84.4661 19.8185 84.7172 20.8917 84.0031 22.0042C83.1398 23.3526 83.7559 23.8046 84.9762 24.3628C90.454 26.8709 92.6435 29.9725 92.1451 34.4539C91.945 36.2504 91.5369 38.0233 91.227 39.808C91.2073 39.922 91.223 40.0438 91.223 40.2915C93.3812 40.2915 95.5236 40.2994 97.666 40.2876C99.165 40.2797 99.9968 40.9676 99.9968 42.5047C99.9929 50.0366 98.3056 57.1832 95.0763 63.98C94.4485 65.3009 93.4636 65.5367 92.1961 65.3284C90.5403 64.6012 90.5285 63.3668 91.1602 61.9359C92.8436 58.1031 94.213 54.176 94.9115 50.0287C95.1273 48.7393 95.1861 47.4382 95.4098 46.1488C95.5197 45.5198 95.4216 44.938 94.6486 44.8161C93.9266 44.7021 93.1693 44.651 92.8161 45.5001C92.514 46.2274 92.4551 47.0175 92.3335 47.788C90.0262 62.4233 82.4924 73.3556 69.3356 80.29C49.5044 90.7427 25.1724 83.3209 13.7382 64.7938C10.5167 59.5733 8.39784 53.9283 7.64838 47.8037C7.56205 47.0922 7.44826 46.3846 7.25207 45.6928C6.99702 44.8043 6.29857 44.7179 5.54126 44.7808C4.66231 44.8555 4.56421 45.4294 4.63092 46.1763C5.51771 56.2555 9.29641 65.0925 16.0376 72.6244C19.3612 76.3354 23.1634 79.492 27.5189 81.945C29.006 82.7823 30.2146 83.9066 30.144 85.762C30.0773 87.5428 30.917 87.932 32.5218 87.9241C41.9627 87.873 51.4035 87.8966 60.8405 87.8966C63.183 87.8966 65.5295 87.8573 67.872 87.9123C69.1708 87.9438 69.7987 87.472 69.8222 86.1237C69.8536 84.3665 70.6423 83.0142 72.1883 82.1101C75.1744 80.3647 77.9642 78.3441 80.6011 76.0956C82.202 74.7433 83.1241 74.873 84.3445 76.3707Z" fill="#020203"/>
<path d="M84.3445 76.3707C83.0849 75.2307 81.9627 75.4509 80.7698 76.5712C78.3959 78.8119 75.7865 80.7814 72.8867 82.2634C71.0818 83.1833 70.1597 84.3822 70.4971 86.4146C70.7522 87.9556 70.2891 88.4863 68.5783 88.4745C56.1436 88.388 43.7088 88.4076 31.2701 88.4587C29.9399 88.4627 29.3396 88.1875 29.575 86.7763C29.9556 84.5316 28.8844 83.313 26.9539 82.1573C13.0947 73.8745 5.54518 61.5467 3.97171 45.4962C3.89323 44.6903 3.89715 44.2108 4.98799 44.1714C7.76217 44.0771 7.67977 44.0181 8.14671 47.2102C10.7247 64.8252 20.4481 76.8228 37.2069 82.4442C61.2682 90.5147 86.9264 74.873 91.4545 49.84C91.7096 48.4327 92.0078 47.0136 92.0627 45.5945C92.1648 43.0157 94.0325 44.4506 95.0723 44.2619C96.638 43.9788 95.9905 45.2918 95.9317 45.9601C95.4569 51.5776 94.0953 56.971 91.6076 62.042C90.9562 63.3707 91.1288 64.3889 92.1883 65.3323C91.3878 66.6807 90.5874 68.029 89.7869 69.3735C87.2207 69.8137 87.2128 69.8295 87.4914 72.7699C86.2868 73.8313 84.8703 74.7118 84.3445 76.3707Z" fill="#D1DAFA"/>
<path d="M87.4993 72.7738C86.7066 71.9798 86.2515 71.056 86.8871 70.0024C87.5974 68.8192 88.6921 68.9528 89.7987 69.3774C90.4579 70.2462 90.8071 71.1817 90.1008 72.1645C89.4377 73.0844 88.4645 72.99 87.4993 72.7738Z" fill="#0D0E0F"/>
<path d="M25.5373 40.2994C33.7147 32.111 41.5232 24.2803 49.3553 16.4732C50.9837 14.8497 52.3884 14.8811 54.0796 16.54C56.7282 19.1345 59.3141 21.7919 61.9588 24.3904C62.5552 24.9761 62.7749 25.3731 62.1471 26.1318C61.4957 26.918 60.9621 27.8536 60.5854 28.8089C60.1734 29.8585 59.8595 30.5818 58.4547 30.1729C57.564 29.9135 56.7832 30.5778 56.6458 31.5292C56.4693 32.7242 56.1867 34.0057 57.4659 34.8981C57.8818 35.189 58.7019 35.0199 58.6235 35.9359C58.5057 37.2921 58.494 38.6562 58.3527 40.0085C58.3174 40.3544 57.823 40.2994 57.5091 40.2994C47.0049 40.2994 36.5006 40.2994 25.5373 40.2994Z" fill="#F75A2D"/>
<path d="M33.1889 44.2225C36.6341 44.2225 40.0831 44.2619 43.5283 44.199C44.6505 44.1793 45.1371 44.3759 45.1175 45.6652C45.039 50.3511 45.0782 55.0408 45.0939 59.7306C45.0979 60.4853 44.9527 61.1064 44.3798 61.6568C42.7906 63.1938 41.2211 64.7545 39.6908 66.3505C39.1022 66.9637 38.5568 66.9912 37.7838 66.7279C29.316 63.87 21.6802 54.0974 21.0994 45.3901C21.0327 44.3955 21.3466 44.1872 22.2687 44.199C25.9062 44.2501 29.5475 44.2225 33.1889 44.2225Z" fill="#FED870"/>
<path d="M35.6727 70.1911C34.264 72.0623 32.4198 73.2613 31.2152 75.0538C30.7482 75.7496 30.3205 75.0971 29.9713 74.8769C20.6717 69.0039 14.8487 60.674 12.5061 49.9187C12.1883 48.4642 12.0981 46.9586 11.8155 45.4962C11.6036 44.4112 12.0235 44.2147 13.0241 44.1872C16.9401 44.0889 16.8342 44.0732 17.5876 47.8706C19.5181 57.6078 25.0155 64.6916 33.7892 69.2555C34.3621 69.5543 34.9468 69.8334 35.6727 70.1911Z" fill="#67DCCD"/>
<path d="M66.4987 55.9371C66.9499 56.0786 67.2952 56.2083 67.6562 56.2909C70.7757 57.0063 70.8542 57.0103 70.6227 60.1001C69.9713 68.827 65.812 75.2936 57.7406 78.7923C49.9792 82.1533 42.6847 80.805 35.9435 75.7889C38.2939 73.1001 38.2625 73.163 41.3427 74.6882C47.5777 77.7741 53.7422 77.5147 59.3965 73.4657C65.0312 69.4324 67.4365 63.7638 66.5065 56.7941C66.4712 56.5543 66.4987 56.3027 66.4987 55.9371Z" fill="#FFF0C6"/>
<path d="M68.9707 75.2583C73.2007 69.511 75.1548 63.4847 74.3818 56.7076C74.3111 56.0825 74.6172 55.8585 75.0488 55.717C80.1734 54.0305 84.2738 50.8818 87.7425 46.6598C88.441 55.6737 78.388 71.1385 68.9707 75.2583Z" fill="#67DCCD"/>
<path d="M86.8832 40.2994C79.0825 40.2994 71.278 40.2836 63.4773 40.319C62.5316 40.3229 62.4571 39.8787 62.4492 39.1318C62.4061 36.0892 63.0457 33.1999 64.1718 30.3892C64.5564 29.43 64.9841 29.2727 65.8944 29.7916C67.511 30.7115 69.3003 31.0614 71.1563 30.9238C72.0706 30.857 72.7023 31.0024 72.6984 32.0952C72.6984 32.28 72.8122 32.4648 72.875 32.6495C74.1699 36.5766 75.5511 37.2685 79.3925 35.641C80.6286 35.1182 81.3035 35.2126 82.0922 36.329C83.2968 38.0351 85.1567 38.9942 87.0519 39.8512C86.9931 40.0006 86.9382 40.15 86.8832 40.2994Z" fill="#F97B57"/>
<path d="M84.525 44.3012C80.6717 48.8691 76.277 51.9785 70.505 52.6272C68.3154 52.8709 66.4594 51.8488 65.2273 49.9344C64.1287 48.2322 63.391 46.3846 63.03 44.3051C70.1283 44.3012 77.1638 44.3012 84.525 44.3012Z" fill="#F97B57"/>
<path d="M16.4653 40.2994C16.0298 40.2994 15.8336 40.2994 15.6374 40.2994C12.1255 40.2994 11.7959 39.8945 12.5336 36.4508C13.9462 29.8349 22.1667 26.6468 27.6719 30.5385C28.6097 31.2029 28.6882 31.6078 27.8406 32.4215C25.4471 34.7212 23.081 37.0484 20.8091 39.466C19.4239 40.948 17.7367 39.9534 16.4653 40.2994Z" fill="#FDBE11"/>
<path d="M21.4683 24.8857C24.3131 18.8672 32.051 17.338 36.6851 21.6268C37.356 22.2479 37.6582 22.6686 36.8106 23.443C35.2764 24.8424 33.8559 26.3677 32.3806 27.8379C31.9843 28.231 31.69 28.7499 30.9719 28.1288C28.3194 25.8173 25.1685 24.8228 21.4683 24.8857Z" fill="#FDBE11"/>
<path d="M88.284 33.1527C88.2683 34.2337 88.3233 35.2204 87.5895 35.5153C86.9538 35.7708 86.3496 34.9964 85.8081 34.5404C84.7879 33.6834 84.1836 32.5552 83.6382 31.3601C82.8377 29.6108 81.79 29.3789 80.2676 30.5307C80.2166 30.57 80.1734 30.6172 80.1224 30.6604C79.216 31.3837 78.133 32.5237 77.1324 32.0638C76.12 31.596 76.2731 30.0275 76.226 28.8639C76.1436 26.6743 75.2607 26.006 73.1026 26.6546C71.5566 27.1185 70.0694 27.1067 68.5234 26.6546C67.4326 26.3362 67.566 25.8763 68.1035 25.1569C69.2179 23.667 71.5801 22.6882 73.2831 23.3526C77.6778 25.0704 81.9117 27.1578 86.0867 29.3553C87.617 30.1572 88.1781 31.7532 88.284 33.1527Z" fill="#BBD9A9"/>
<path d="M49.1159 56.8766C49.1159 52.6232 49.1395 48.8887 49.1002 45.1542C49.0884 44.14 49.6966 44.2068 50.3637 44.2108C52.8279 44.2186 55.2882 44.199 57.7524 44.2265C58.1997 44.2304 58.9138 43.9317 58.9688 44.7572C59.0158 45.4805 59.7732 46.1881 59.0158 46.9428C55.8297 50.127 52.6513 53.3269 49.1159 56.8766Z" fill="#F75A2D"/>
<path d="M52.1962 62.1324C55.1704 62.8833 57.7249 63.5594 60.295 64.1648C61.3819 64.4203 61.8567 64.6955 61.1151 65.8984C59.7888 68.0448 58.1251 69.7784 55.9552 71.0559C55.0802 71.5709 54.5426 71.7635 54.2562 70.423C53.6833 67.7303 52.9417 65.0768 52.1962 62.1324Z" fill="#FA9C81"/>
<path d="M53.1222 58.2446C55.4098 56.0275 57.4267 54.117 59.3886 52.1515C60.0478 51.4911 60.3971 51.6051 60.8326 52.348C62.1118 54.5141 62.7121 56.8648 62.8299 59.3611C62.873 60.3124 62.7357 60.7998 61.5232 60.4342C58.8942 59.6441 56.2103 59.0348 53.1222 58.2446Z" fill="#FA9C81"/>
<path d="M48.3468 63.1702C49.2022 66.5156 49.9713 69.5228 50.7836 72.7031C47.7229 72.9822 45.0547 72.2549 42.512 70.8358C41.6488 70.3523 41.6017 69.9474 42.3158 69.2516C44.2621 67.345 46.1573 65.3834 48.3468 63.1702Z" fill="#FA9C81"/>
<path d="M61.327 5.05348C61.2878 8.38309 58.0074 11.6262 54.7898 11.6891C53.8128 11.7088 53.5617 11.2724 53.6087 10.3919C53.7696 7.18019 56.8263 4.09431 60.0164 3.90561C60.9739 3.84665 61.5507 4.04713 61.327 5.05348Z" fill="#BAD8A8"/>
<path d="M42.0451 5.08493C41.9077 4.23975 42.2374 3.8781 43.2105 3.89775C46.4437 3.96458 49.7516 7.34922 49.6496 10.5216C49.626 11.2921 49.5004 11.7048 48.5783 11.693C45.3372 11.6459 42.0843 8.43026 42.0451 5.08493Z" fill="#BBD9A9"/>
<path d="M46.8715 32.6417C46.8871 34.0804 46.3457 35.1693 44.8271 35.1536C43.2615 35.1379 42.8887 33.9861 42.9044 32.5945C42.9201 31.199 43.2733 30.0983 44.9017 30.1376C46.4908 30.1808 46.8832 31.3012 46.8715 32.6417Z" fill="#0C0506"/>
<path d="M53.6127 25.4321C53.7265 26.7883 53.2321 27.9558 51.7017 27.9873C50.195 28.0187 49.626 26.9102 49.6339 25.4714C49.6417 24.0523 50.1126 22.9595 51.6939 22.9634C53.181 22.9712 53.6598 24.009 53.6127 25.4321Z" fill="#0D0506"/>
<path d="M30.0616 53.9755C29.0139 53.834 28.3508 53.1343 28.3115 51.951C28.2762 50.8307 30.1989 49.2464 31.4859 49.3408C32.6866 49.4312 33.3537 50.1781 33.3851 51.3653C33.4204 52.5053 31.5291 54.0148 30.0616 53.9755Z" fill="#050804"/>
<path d="M39.8791 57.8555C39.8399 59.6284 38.5057 61.1261 37.2658 61.0435C36.1043 60.9689 35.5079 60.3006 35.4726 59.1488C35.4294 57.7297 36.7871 56.0354 37.9643 56.1297C39.1375 56.228 39.8791 56.8766 39.8791 57.8555Z" fill="#060A05"/>
</g>
<path d="M244.186 92L246.215 79.7818H247.623L246.883 84.292H247.002C247.129 84.133 247.306 83.9301 247.533 83.6835C247.76 83.433 248.064 83.2102 248.446 83.0153C248.828 82.8165 249.317 82.717 249.913 82.717C250.685 82.717 251.331 82.9099 251.852 83.2957C252.377 83.6815 252.745 84.2284 252.956 84.9364C253.171 85.6443 253.199 86.4795 253.04 87.442C252.881 88.4125 252.576 89.2537 252.127 89.9656C251.681 90.6736 251.133 91.2224 250.48 91.6122C249.832 91.998 249.126 92.1909 248.362 92.1909C247.774 92.1909 247.318 92.0935 246.996 91.8986C246.678 91.6997 246.443 91.475 246.292 91.2244C246.145 90.9699 246.032 90.7591 245.952 90.592H245.785L245.546 92H244.186ZM246.334 87.4182C246.223 88.1102 246.225 88.7207 246.34 89.2497C246.455 89.7747 246.684 90.1864 247.026 90.4847C247.368 90.779 247.821 90.9261 248.386 90.9261C248.975 90.9261 249.492 90.771 249.937 90.4608C250.383 90.1466 250.749 89.725 251.035 89.196C251.321 88.6631 251.52 88.0705 251.632 87.4182C251.735 86.7739 251.731 86.1932 251.62 85.6761C251.512 85.1551 251.286 84.7435 250.94 84.4412C250.598 84.1349 250.128 83.9818 249.532 83.9818C248.959 83.9818 248.452 84.127 248.01 84.4173C247.573 84.7037 247.211 85.1054 246.925 85.6224C246.642 86.1355 246.445 86.7341 246.334 87.4182ZM254.448 95.4364C254.209 95.4364 253.998 95.4165 253.815 95.3767C253.636 95.3409 253.513 95.3051 253.445 95.2693L254.018 94.0284C254.344 94.1159 254.635 94.1418 254.889 94.106C255.148 94.0741 255.392 93.9489 255.623 93.7301C255.858 93.5153 256.102 93.1773 256.357 92.7159L256.75 92L254.913 82.8364H256.381L257.693 90.1625H257.788L261.535 82.8364H263.122L257.502 93.3244C257.24 93.8136 256.951 94.2134 256.637 94.5236C256.323 94.8338 255.983 95.0625 255.617 95.2097C255.251 95.3608 254.861 95.4364 254.448 95.4364ZM270.397 79.7818H272.163L274.645 89.9239H274.788L280.611 79.7818H282.377L280.349 92H278.964L280.516 82.717H280.396L275.027 92H273.691L271.424 82.717H271.304L269.753 92H268.369L270.397 79.7818ZM285.797 92.2148C285.216 92.2148 284.707 92.1054 284.27 91.8866C283.832 91.6639 283.508 91.3438 283.297 90.9261C283.086 90.5045 283.029 89.9955 283.124 89.3989C283.216 88.8739 283.393 88.4483 283.655 88.1222C283.918 87.792 284.236 87.5335 284.61 87.3466C284.988 87.1557 285.393 87.0145 285.827 86.923C286.264 86.8276 286.7 86.754 287.133 86.7023C287.698 86.6307 288.157 86.575 288.511 86.5352C288.865 86.4955 289.132 86.4298 289.311 86.3384C289.49 86.2469 289.599 86.0898 289.639 85.867V85.8193C289.734 85.2347 289.657 84.7793 289.406 84.4531C289.156 84.123 288.708 83.958 288.064 83.958C287.396 83.958 286.837 84.1051 286.388 84.3994C285.938 84.6938 285.606 85.008 285.391 85.342L284.15 84.8648C284.476 84.308 284.866 83.8744 285.32 83.5642C285.773 83.25 286.248 83.0313 286.746 82.908C287.243 82.7807 287.722 82.717 288.183 82.717C288.478 82.717 288.81 82.7528 289.18 82.8244C289.55 82.892 289.896 83.0332 290.218 83.248C290.544 83.4628 290.788 83.7869 290.951 84.2205C291.119 84.654 291.142 85.2347 291.023 85.9625L290.021 92H288.613L288.828 90.7591H288.756C288.629 90.958 288.434 91.1707 288.171 91.3974C287.913 91.6241 287.585 91.817 287.187 91.9761C286.793 92.1352 286.33 92.2148 285.797 92.2148ZM286.203 90.95C286.759 90.95 287.247 90.8406 287.664 90.6219C288.086 90.4031 288.424 90.1207 288.678 89.7747C288.937 89.4287 289.098 89.0648 289.162 88.683L289.376 87.3943C289.305 87.4659 289.164 87.5315 288.953 87.5912C288.742 87.6469 288.503 87.6966 288.237 87.7403C287.975 87.7801 287.718 87.8159 287.467 87.8477C287.221 87.8756 287.022 87.8994 286.871 87.9193C286.497 87.967 286.141 88.0446 285.803 88.152C285.469 88.2554 285.186 88.4125 284.956 88.6233C284.729 88.8301 284.588 89.1125 284.532 89.4705C284.449 89.9597 284.566 90.3295 284.884 90.5801C285.202 90.8267 285.642 90.95 286.203 90.95ZM296.289 92.1909C295.426 92.1909 294.718 91.9881 294.166 91.5824C293.617 91.1767 293.235 90.6179 293.02 89.906C292.805 89.194 292.774 88.3807 292.925 87.4659C293.076 86.5352 293.382 85.7139 293.843 85.002C294.305 84.2861 294.88 83.7273 295.568 83.3256C296.256 82.9199 297.013 82.717 297.841 82.717C298.485 82.717 299.046 82.8364 299.523 83.075C300 83.3136 300.368 83.6477 300.627 84.0773C300.885 84.5068 301.007 85.008 300.991 85.5807H299.583C299.543 85.1631 299.364 84.7932 299.046 84.471C298.732 84.1449 298.266 83.9818 297.65 83.9818C297.101 83.9818 296.596 84.125 296.134 84.4114C295.673 84.6937 295.285 85.0935 294.971 85.6105C294.657 86.1236 294.444 86.7261 294.333 87.4182C294.213 88.1261 294.223 88.7426 294.362 89.2676C294.502 89.7926 294.754 90.2003 295.12 90.4906C295.486 90.781 295.947 90.9261 296.504 90.9261C296.87 90.9261 297.212 90.8625 297.53 90.7352C297.849 90.608 298.131 90.425 298.378 90.1864C298.624 89.9477 298.819 89.6614 298.962 89.3273H300.37C300.195 89.8682 299.915 90.3554 299.529 90.7889C299.143 91.2185 298.676 91.5605 298.127 91.8151C297.578 92.0656 296.966 92.1909 296.289 92.1909ZM305.793 92.1909C304.914 92.1909 304.188 91.996 303.616 91.6063C303.043 91.2125 302.643 90.6636 302.416 89.9597C302.19 89.2517 302.154 88.4284 302.309 87.4898C302.464 86.5511 302.772 85.7239 303.234 85.008C303.695 84.2881 304.27 83.7273 304.958 83.3256C305.646 82.9199 306.402 82.717 307.225 82.717C307.702 82.717 308.162 82.7966 308.603 82.9557C309.045 83.1148 309.426 83.3733 309.749 83.7313C310.071 84.0852 310.295 84.5545 310.423 85.1392C310.55 85.7239 310.542 86.4437 310.399 87.2989L310.303 87.8955H303.24L303.431 86.6784H309.063C309.154 86.1614 309.13 85.7 308.991 85.2943C308.856 84.8886 308.619 84.5685 308.281 84.3338C307.947 84.0991 307.523 83.9818 307.01 83.9818C306.481 83.9818 305.988 84.125 305.531 84.4114C305.073 84.6937 304.691 85.0517 304.385 85.4852C304.079 85.9148 303.888 86.3523 303.813 86.7977L303.645 87.8477C303.526 88.6074 303.544 89.2119 303.699 89.6614C303.858 90.1108 304.135 90.4349 304.528 90.6338C304.922 90.8287 305.415 90.9261 306.008 90.9261C306.386 90.9261 306.734 90.8744 307.052 90.771C307.37 90.6636 307.655 90.5045 307.905 90.2938C308.156 90.079 308.366 89.8125 308.538 89.4943L309.826 89.8761C309.607 90.3375 309.299 90.7432 308.901 91.0932C308.508 91.4392 308.046 91.7097 307.517 91.9045C306.992 92.0955 306.418 92.1909 305.793 92.1909ZM315.234 92.1909C314.467 92.1909 313.822 91.998 313.301 91.6122C312.78 91.2224 312.412 90.6736 312.198 89.9656C311.987 89.2537 311.961 88.4125 312.12 87.442C312.283 86.4795 312.587 85.6443 313.033 84.9364C313.482 84.2284 314.033 83.6815 314.685 83.2957C315.338 82.9099 316.05 82.717 316.821 82.717C317.418 82.717 317.873 82.8165 318.187 83.0153C318.506 83.2102 318.736 83.433 318.879 83.6835C319.023 83.9301 319.132 84.133 319.208 84.292H319.327L320.079 79.7818H321.487L319.458 92H318.098L318.337 90.592H318.169C318.038 90.7591 317.855 90.9699 317.621 91.2244C317.386 91.475 317.076 91.6997 316.69 91.8986C316.308 92.0935 315.823 92.1909 315.234 92.1909ZM315.58 90.9261C316.145 90.9261 316.65 90.779 317.096 90.4847C317.545 90.1864 317.919 89.7747 318.217 89.2497C318.515 88.7207 318.722 88.1102 318.838 87.4182C318.953 86.7341 318.949 86.1355 318.826 85.6224C318.702 85.1054 318.466 84.7037 318.116 84.4173C317.766 84.127 317.302 83.9818 316.726 83.9818C316.133 83.9818 315.618 84.1349 315.181 84.4412C314.743 84.7435 314.387 85.1551 314.113 85.6761C313.838 86.1932 313.647 86.7739 313.54 87.4182C313.433 88.0705 313.431 88.6631 313.534 89.196C313.637 89.725 313.856 90.1466 314.19 90.4608C314.528 90.771 314.992 90.9261 315.58 90.9261ZM326.003 92.1909C325.16 92.1909 324.454 91.9901 323.885 91.5884C323.316 91.1866 322.914 90.6239 322.68 89.9C322.449 89.1761 322.411 88.333 322.566 87.3705C322.717 86.4318 323.018 85.6145 323.467 84.9185C323.921 84.2185 324.483 83.6776 325.156 83.2957C325.832 82.9099 326.575 82.717 327.387 82.717C328.23 82.717 328.934 82.9199 329.499 83.3256C330.067 83.7273 330.469 84.292 330.704 85.0199C330.938 85.7438 330.978 86.5909 330.823 87.5614C330.672 88.492 330.368 89.3054 329.91 90.0014C329.457 90.6935 328.894 91.2324 328.222 91.6182C327.554 92 326.814 92.1909 326.003 92.1909ZM326.027 90.9261C326.671 90.9261 327.23 90.7611 327.703 90.431C328.18 90.1009 328.566 89.6653 328.86 89.1244C329.159 88.5835 329.36 87.9989 329.463 87.3705C329.558 86.7739 329.554 86.219 329.451 85.706C329.348 85.1889 329.127 84.7733 328.789 84.4591C328.451 84.1409 327.975 83.9818 327.363 83.9818C326.719 83.9818 326.156 84.1489 325.675 84.483C325.197 84.817 324.812 85.2565 324.517 85.8014C324.223 86.3463 324.026 86.933 323.927 87.5614C323.831 88.158 323.833 88.7128 323.933 89.2259C324.036 89.7349 324.257 90.1466 324.595 90.4608C324.937 90.771 325.414 90.9261 326.027 90.9261ZM334.559 86.4875L333.652 92H332.245L333.772 82.8364H335.132L334.893 84.2682H335.013C335.299 83.8028 335.687 83.429 336.176 83.1466C336.665 82.8602 337.256 82.717 337.948 82.717C338.56 82.717 339.077 82.8443 339.499 83.0989C339.925 83.3494 340.225 83.7313 340.4 84.2443C340.579 84.7534 340.605 85.3977 340.477 86.1773L339.499 92H338.091L339.046 86.2727C339.165 85.5568 339.072 84.996 338.765 84.5903C338.463 84.1847 337.984 83.9818 337.327 83.9818C336.874 83.9818 336.454 84.0793 336.069 84.2741C335.687 84.469 335.363 84.7534 335.096 85.1273C334.834 85.5011 334.655 85.9545 334.559 86.4875ZM342.072 92L343.599 82.8364H345.007L343.48 92H342.072ZM344.733 81.2852C344.458 81.2852 344.222 81.1918 344.023 81.0048C343.828 80.8179 343.73 80.5932 343.73 80.3307C343.73 80.0682 343.828 79.8435 344.023 79.6565C344.222 79.4696 344.458 79.3761 344.733 79.3761C345.007 79.3761 345.242 79.4696 345.437 79.6565C345.636 79.8435 345.735 80.0682 345.735 80.3307C345.735 80.5932 345.636 80.8179 345.437 81.0048C345.242 81.1918 345.007 81.2852 344.733 81.2852ZM348.731 92.2148C348.151 92.2148 347.642 92.1054 347.204 91.8866C346.767 91.6639 346.442 91.3438 346.232 90.9261C346.021 90.5045 345.963 89.9955 346.059 89.3989C346.15 88.8739 346.327 88.4483 346.59 88.1222C346.852 87.792 347.17 87.5335 347.544 87.3466C347.922 87.1557 348.328 87.0145 348.761 86.923C349.199 86.8276 349.634 86.754 350.068 86.7023C350.632 86.6307 351.092 86.575 351.446 86.5352C351.8 86.4955 352.066 86.4298 352.245 86.3384C352.424 86.2469 352.534 86.0898 352.573 85.867V85.8193C352.669 85.2347 352.591 84.7793 352.341 84.4531C352.09 84.123 351.643 83.958 350.998 83.958C350.33 83.958 349.771 84.1051 349.322 84.3994C348.873 84.6938 348.54 85.008 348.326 85.342L347.085 84.8648C347.411 84.308 347.801 83.8744 348.254 83.5642C348.707 83.25 349.183 83.0313 349.68 82.908C350.177 82.7807 350.656 82.717 351.118 82.717C351.412 82.717 351.744 82.7528 352.114 82.8244C352.484 82.892 352.83 83.0332 353.152 83.248C353.478 83.4628 353.723 83.7869 353.886 84.2205C354.053 84.654 354.077 85.2347 353.957 85.9625L352.955 92H351.547L351.762 90.7591H351.69C351.563 90.958 351.368 91.1707 351.106 91.3974C350.847 91.6241 350.519 91.817 350.121 91.9761C349.728 92.1352 349.264 92.2148 348.731 92.2148ZM349.137 90.95C349.694 90.95 350.181 90.8406 350.599 90.6219C351.02 90.4031 351.358 90.1207 351.613 89.7747C351.871 89.4287 352.032 89.0648 352.096 88.683L352.311 87.3943C352.239 87.4659 352.098 87.5315 351.887 87.5912C351.676 87.6469 351.438 87.6966 351.171 87.7403C350.909 87.7801 350.652 87.8159 350.402 87.8477C350.155 87.8756 349.956 87.8994 349.805 87.9193C349.431 87.967 349.075 88.0446 348.737 88.152C348.403 88.2554 348.121 88.4125 347.89 88.6233C347.663 88.8301 347.522 89.1125 347.467 89.4705C347.383 89.9597 347.5 90.3295 347.819 90.5801C348.137 90.8267 348.576 90.95 349.137 90.95Z" fill="#161920"/>
<path d="M128.375 66.4574C125.652 66.4574 123.322 65.9183 121.384 64.8402C119.445 63.7512 117.959 62.2375 116.924 60.299C115.889 58.3497 115.372 56.09 115.372 53.5199C115.372 50.9498 115.889 48.6955 116.924 46.7571C117.959 44.8078 119.445 43.294 121.384 42.2159C123.322 41.1269 125.652 40.5824 128.375 40.5824C130.836 40.5824 132.965 41.0289 134.762 41.9219C136.57 42.804 137.969 44.0563 138.96 45.679C139.951 47.2907 140.452 49.1856 140.463 51.3636H132.099C131.98 50.0459 131.598 49.044 130.956 48.358C130.324 47.661 129.508 47.3125 128.506 47.3125C127.722 47.3125 127.036 47.5412 126.447 47.9986C125.859 48.4451 125.402 49.1257 125.075 50.0405C124.749 50.9444 124.585 52.0824 124.585 53.4545C124.585 54.8267 124.749 55.9702 125.075 56.8849C125.402 57.7888 125.859 58.4695 126.447 58.9268C127.036 59.3733 127.722 59.5966 128.506 59.5966C129.17 59.5966 129.758 59.4441 130.27 59.1392C130.782 58.8234 131.196 58.366 131.511 57.767C131.838 57.1572 132.034 56.4167 132.099 55.5455H140.463C140.43 57.7562 139.924 59.6837 138.944 61.3281C137.964 62.9616 136.575 64.2249 134.778 65.1179C132.992 66.0109 130.858 66.4574 128.375 66.4574Z" fill="#FDBE11"/>
<path d="M144.183 66V40.9091H152.939V45.679H153.2C153.658 43.9148 154.382 42.6243 155.373 41.8075C156.375 40.9908 157.546 40.5824 158.885 40.5824C159.277 40.5824 159.664 40.6151 160.045 40.6804C160.437 40.7348 160.813 40.8165 161.172 40.9254V48.6193C160.726 48.4669 160.176 48.3525 159.522 48.2763C158.869 48.2 158.308 48.1619 157.84 48.1619C156.958 48.1619 156.163 48.3634 155.455 48.7663C154.758 49.1584 154.208 49.7138 153.805 50.4325C153.402 51.1404 153.2 51.9735 153.2 52.9318V66H144.183Z" fill="#F75A2D"/>
<path d="M169.952 66.392C168.351 66.392 166.936 66.1307 165.705 65.608C164.485 65.0743 163.527 64.2685 162.83 63.1903C162.133 62.1122 161.785 60.7401 161.785 59.0739C161.785 57.7017 162.019 56.531 162.487 55.5618C162.955 54.5817 163.609 53.7812 164.447 53.1605C165.286 52.5398 166.26 52.0661 167.371 51.7393C168.493 51.4126 169.702 51.2003 170.998 51.1023C172.403 50.9934 173.53 50.8627 174.379 50.7102C175.239 50.5469 175.86 50.3236 176.241 50.0405C176.622 49.7464 176.813 49.3598 176.813 48.8807V48.8153C176.813 48.1619 176.563 47.661 176.062 47.3125C175.561 46.964 174.918 46.7898 174.134 46.7898C173.274 46.7898 172.571 46.9803 172.027 47.3615C171.493 47.7318 171.172 48.3035 171.063 49.0767H162.765C162.874 47.5521 163.358 46.1473 164.219 44.8622C165.09 43.5663 166.358 42.5317 168.025 41.7585C169.691 40.9744 171.771 40.5824 174.265 40.5824C176.062 40.5824 177.673 40.7947 179.1 41.2195C180.527 41.6333 181.741 42.2159 182.743 42.9673C183.745 43.7079 184.507 44.5791 185.03 45.581C185.563 46.572 185.83 47.6501 185.83 48.8153V66H177.401V62.4716H177.205C176.704 63.4081 176.094 64.165 175.376 64.7422C174.668 65.3194 173.856 65.7386 172.942 66C172.038 66.2614 171.041 66.392 169.952 66.392ZM172.893 60.7074C173.579 60.7074 174.221 60.5658 174.82 60.2827C175.43 59.9995 175.925 59.5911 176.307 59.0575C176.688 58.5239 176.878 57.8759 176.878 57.1136V55.0227C176.639 55.1207 176.383 55.2133 176.111 55.3004C175.849 55.3875 175.566 55.4692 175.261 55.5455C174.967 55.6217 174.651 55.6925 174.314 55.7578C173.987 55.8232 173.644 55.883 173.285 55.9375C172.588 56.0464 172.016 56.2261 171.569 56.4766C171.134 56.7161 170.807 57.0156 170.589 57.375C170.382 57.7235 170.279 58.1155 170.279 58.5511C170.279 59.2481 170.524 59.7817 171.014 60.152C171.504 60.5223 172.13 60.7074 172.893 60.7074Z" fill="#02C4AC"/>
<path d="M190.4 66V61.0341L201.377 47.9006V47.7699H190.792V40.9091H212.028V46.3977L202.031 59.0085V59.1392H212.42V66H190.4Z" fill="#1747E7"/>
<path d="M222.895 75.4091C221.86 75.4091 220.875 75.3274 219.938 75.1641C219.001 75.0116 218.179 74.7992 217.471 74.527L219.432 68.1236C220.172 68.3849 220.847 68.5537 221.457 68.63C222.078 68.7062 222.606 68.6626 223.042 68.4993C223.488 68.3359 223.809 68.0256 224.006 67.5682L224.202 67.1108L215.381 40.9091H224.79L228.841 58.2898H229.102L233.219 40.9091H242.693L233.545 68.0909C233.088 69.474 232.424 70.7154 231.552 71.8153C230.692 72.9261 229.559 73.8028 228.155 74.4453C226.75 75.0878 224.997 75.4091 222.895 75.4091Z" fill="#FD9F9D"/>
<path d="M242.64 39.8636V32.5455H271.717V39.8636H261.654V66H252.702V39.8636H242.64ZM275.265 66V40.9091H284.282V66H275.265ZM279.774 38.2955C278.554 38.2955 277.509 37.8925 276.638 37.0866C275.766 36.2808 275.331 35.3116 275.331 34.179C275.331 33.0464 275.766 32.0772 276.638 31.2713C277.509 30.4654 278.554 30.0625 279.774 30.0625C281.005 30.0625 282.05 30.4654 282.91 31.2713C283.782 32.0772 284.217 33.0464 284.217 34.179C284.217 35.3116 283.782 36.2808 282.91 37.0866C282.05 37.8925 281.005 38.2955 279.774 38.2955ZM297.894 32.5455V66H288.877V32.5455H297.894ZM314.511 66.4574C311.832 66.4574 309.523 65.9455 307.585 64.9219C305.657 63.8873 304.171 62.4062 303.125 60.4787C302.091 58.5402 301.573 56.2206 301.573 53.5199C301.573 50.928 302.096 48.6629 303.142 46.7244C304.187 44.786 305.663 43.2777 307.568 42.1996C309.474 41.1214 311.723 40.5824 314.315 40.5824C316.21 40.5824 317.925 40.8764 319.46 41.4645C320.996 42.0526 322.308 42.9074 323.397 44.0291C324.486 45.1399 325.325 46.4903 325.913 48.0803C326.501 49.6702 326.795 51.4616 326.795 53.4545V55.5455H304.383V50.5795H318.497C318.486 49.8608 318.301 49.2292 317.941 48.6847C317.593 48.1293 317.119 47.6991 316.52 47.3942C315.932 47.0784 315.262 46.9205 314.511 46.9205C313.781 46.9205 313.111 47.0784 312.502 47.3942C311.892 47.6991 311.402 48.1238 311.031 48.6683C310.672 49.2128 310.481 49.8499 310.46 50.5795V55.9375C310.46 56.7434 310.628 57.4621 310.966 58.0938C311.304 58.7254 311.788 59.2209 312.42 59.5803C313.052 59.9396 313.814 60.1193 314.707 60.1193C315.328 60.1193 315.894 60.0322 316.406 59.858C316.928 59.6837 317.375 59.4332 317.745 59.1065C318.115 58.7689 318.388 58.366 318.562 57.8977H326.795C326.512 59.6402 325.842 61.1539 324.786 62.4389C323.729 63.7131 322.33 64.7041 320.588 65.4119C318.856 66.1089 316.83 66.4574 314.511 66.4574ZM353.409 49.0767H345.111C345.067 48.5649 344.888 48.1238 344.572 47.7536C344.256 47.3833 343.848 47.1001 343.347 46.9041C342.857 46.6972 342.312 46.5938 341.713 46.5938C340.94 46.5938 340.276 46.7353 339.72 47.0185C339.165 47.3016 338.893 47.7045 338.903 48.2273C338.893 48.5975 339.05 48.9406 339.377 49.2564C339.715 49.5722 340.363 49.8172 341.321 49.9915L346.418 50.9062C348.988 51.3745 350.899 52.1641 352.151 53.2749C353.415 54.3748 354.052 55.8504 354.062 57.7017C354.052 59.4877 353.518 61.0395 352.462 62.3572C351.416 63.6641 349.984 64.6768 348.165 65.3956C346.358 66.1035 344.294 66.4574 341.974 66.4574C338.141 66.4574 335.141 65.6733 332.974 64.1051C330.817 62.5369 329.614 60.4678 329.364 57.8977H338.315C338.435 58.6927 338.827 59.308 339.491 59.7436C340.167 60.1683 341.016 60.3807 342.04 60.3807C342.867 60.3807 343.548 60.2391 344.082 59.956C344.626 59.6728 344.904 59.2699 344.915 58.7472C344.904 58.268 344.664 57.8868 344.196 57.6037C343.739 57.3205 343.02 57.0919 342.04 56.9176L337.597 56.1335C335.037 55.687 333.121 54.8376 331.847 53.5852C330.572 52.3329 329.941 50.7211 329.952 48.75C329.941 47.0076 330.398 45.532 331.324 44.3232C332.26 43.1035 333.594 42.1778 335.326 41.5462C337.068 40.9036 339.132 40.5824 341.517 40.5824C345.143 40.5824 348.002 41.3338 350.093 42.8366C352.195 44.3395 353.3 46.4195 353.409 49.0767Z" fill="black"/>
<defs>
<clipPath id="clip0_109_362">
<rect width="100" height="92.3445" fill="white"/>
</clipPath>
</defs>
</svg>
