<svg width="100" height="93" viewBox="0 0 100 93" fill="none" xmlns="http://www.w3.org/2000/svg">
<g clip-path="url(#clip0_103_538)">
<path d="M84.3445 76.2312C84.8467 77.4829 84.4897 78.4286 83.4851 79.3232C81.0955 81.4461 78.5764 83.3923 75.8061 84.9815C74.7545 85.5857 74.2915 86.2607 74.4445 87.4417C74.5191 88.0185 74.4642 88.611 74.4563 89.1957C74.421 91.6521 73.9109 92.1739 71.4742 92.1739C57.152 92.1779 42.8259 92.1779 28.5038 92.1739C26.0867 92.1739 25.4942 91.7345 25.6904 89.3291C25.8905 86.8571 25.0351 85.519 22.8966 84.0986C8.29189 74.4066 0.69527 60.673 0.00859116 43.1529C-0.081658 40.8025 0.518695 40.2453 2.78277 40.2297C4.47396 40.2179 6.45944 40.7711 7.78179 40.0688C9.17477 39.3311 8.23304 37.1141 8.65289 35.5877C9.71234 31.7109 11.8195 28.6307 15.3549 26.6491C16.3084 26.1155 16.8891 25.5347 17.2736 24.44C20.4991 15.2189 31.8862 12.2328 39.2709 18.6836C40.3578 19.6332 40.864 19.4802 41.7037 18.5306C42.7749 17.3181 43.9913 16.2351 45.2234 15.0187C41.3545 13.1628 38.6941 10.4553 38.2232 6.17825C37.6229 0.684825 39.212 -0.50411 44.7094 0.178645C47.3031 0.500403 48.2919 1.30087 51.7214 4.42428C54.6996 0.998735 58.2782 -0.763086 62.924 0.31598C64.0894 0.586728 64.6466 1.23809 64.9605 2.36424C66.1495 6.60203 64.0227 11.6128 59.9144 14.0495C59.369 14.3752 58.8 14.6617 58.1212 15.0305C60.3735 17.2554 62.5513 19.4056 64.7251 21.552C65.0782 21.9012 65.3215 22.3132 65.9297 21.7482C69.6299 18.3383 73.6362 18.5581 77.7563 20.9006C78.9884 21.5991 79.9576 22.0856 80.5932 20.1394C80.9699 18.9858 82.1 18.4678 83.3086 19.1388C84.4661 19.7823 84.7172 20.8536 84.0031 21.964C83.1398 23.3099 83.7559 23.7611 84.9762 24.3183C90.454 26.8218 92.6435 29.9177 92.1451 34.3909C91.945 36.1841 91.5369 37.9538 91.227 39.7352C91.2073 39.849 91.223 39.9707 91.223 40.2179C93.3812 40.2179 95.5236 40.2257 97.666 40.214C99.165 40.2061 99.9968 40.8928 99.9968 42.427C99.9929 49.9452 98.3056 57.0788 95.0763 63.8632C94.4485 65.1816 93.4636 65.417 92.1961 65.209C90.5403 64.4831 90.5285 63.251 91.1602 61.8227C92.8436 57.997 94.213 54.077 94.9115 49.9373C95.1273 48.6503 95.1861 47.3515 95.4098 46.0645C95.5197 45.4366 95.4216 44.8559 94.6486 44.7343C93.9266 44.6205 93.1693 44.5695 92.8161 45.417C92.514 46.1429 92.4551 46.9316 92.3335 47.7007C90.0262 62.3093 82.4924 73.2216 69.3356 80.1433C49.5044 90.5769 25.1724 83.1686 13.7382 64.6754C10.5167 59.4645 8.39784 53.8298 7.64838 47.7164C7.56205 47.0062 7.44826 46.2999 7.25207 45.6093C6.99702 44.7225 6.29857 44.6362 5.54126 44.6989C4.66231 44.7735 4.56421 45.3464 4.63092 46.0919C5.51771 56.1527 9.29641 64.9736 16.0376 72.4918C19.3612 76.1959 23.1634 79.3468 27.5189 81.7953C29.006 82.6311 30.2146 83.7533 30.144 85.6054C30.0773 87.3829 30.917 87.7713 32.5218 87.7635C41.9627 87.7125 51.4035 87.736 60.8405 87.736C63.183 87.736 65.5295 87.6968 67.872 87.7517C69.1708 87.7831 69.7987 87.3122 69.8222 85.9664C69.8536 84.2124 70.6423 82.8626 72.1883 81.9601C75.1744 80.2179 77.9642 78.201 80.6011 75.9565C82.202 74.6067 83.1241 74.7362 84.3445 76.2312Z" fill="#020203"/>
<path d="M84.3445 76.2312C83.0849 75.0933 81.9627 75.313 80.7698 76.4313C78.3959 78.6679 75.7865 80.6338 72.8867 82.1131C71.0818 83.0313 70.1597 84.2281 70.4971 86.2567C70.7522 87.7949 70.2891 88.3246 68.5783 88.3128C56.1436 88.2265 43.7088 88.2461 31.2701 88.2971C29.9399 88.3011 29.3396 88.0264 29.575 86.6177C29.9556 84.3772 28.8844 83.1608 26.9539 82.0072C13.0947 73.7396 5.54518 61.4343 3.97171 45.4131C3.89323 44.6087 3.89715 44.13 4.98799 44.0907C7.76217 43.9966 7.67977 43.9377 8.14671 47.1239C10.7247 64.7068 20.4481 76.6825 37.2069 82.2936C61.2682 90.3493 86.9264 74.7362 91.4545 49.749C91.7096 48.3442 92.0078 46.9277 92.0627 45.5112C92.1648 42.9371 94.0325 44.3693 95.0723 44.181C96.638 43.8985 95.9905 45.2091 95.9317 45.8761C95.4569 51.4833 94.0953 56.8669 91.6076 61.9287C90.9562 63.255 91.1288 64.2712 92.1883 65.213C91.3878 66.5589 90.5874 67.9048 89.7869 69.2467C87.2207 69.6862 87.2128 69.7019 87.4914 72.6369C86.2868 73.6964 84.8703 74.5753 84.3445 76.2312Z" fill="#D1DAFA"/>
<path d="M87.4993 72.6409C86.7066 71.8482 86.2515 70.9261 86.8871 69.8745C87.5974 68.6935 88.6921 68.8269 89.7987 69.2506C90.4579 70.1178 90.8071 71.0517 90.1008 72.0327C89.4377 72.9509 88.4645 72.8567 87.4993 72.6409Z" fill="#0D0E0F"/>
<path d="M25.5373 40.2257C33.7147 32.0523 41.5232 24.2359 49.3553 16.4431C50.9837 14.8226 52.3884 14.8539 54.0796 16.5098C56.7282 19.0996 59.3141 21.7521 61.9588 24.3458C62.5552 24.9305 62.7749 25.3268 62.1471 26.0841C61.4957 26.8689 60.9621 27.8027 60.5854 28.7562C60.1734 29.8039 59.8595 30.5259 58.4547 30.1178C57.564 29.8588 56.7832 30.522 56.6458 31.4716C56.4693 32.6644 56.1867 33.9436 57.4659 34.8343C57.8818 35.1247 58.7019 34.956 58.6235 35.8702C58.5057 37.224 58.494 38.5855 58.3527 39.9354C58.3174 40.2807 57.823 40.2257 57.5091 40.2257C47.0049 40.2257 36.5006 40.2257 25.5373 40.2257Z" fill="#F75A2D"/>
<path d="M33.1889 44.1418C36.6341 44.1418 40.0831 44.181 43.5283 44.1182C44.6505 44.0986 45.1371 44.2948 45.1175 45.5818C45.039 50.2591 45.0782 54.9403 45.0939 59.6214C45.0979 60.3748 44.9527 60.9948 44.3798 61.5442C42.7906 63.0784 41.2211 64.6362 39.6908 66.2293C39.1022 66.8414 38.5568 66.8688 37.7838 66.6059C29.316 63.7533 21.6802 53.9985 21.0994 45.3072C21.0327 44.3144 21.3466 44.1064 22.2687 44.1182C25.9062 44.1692 29.5475 44.1418 33.1889 44.1418Z" fill="#FED870"/>
<path d="M35.6727 70.0629C34.264 71.9306 32.4198 73.1274 31.2152 74.9167C30.7482 75.6112 30.3205 74.9599 29.9713 74.7401C20.6717 68.8779 14.8487 60.5632 12.5061 49.8275C12.1883 48.3756 12.0981 46.8728 11.8155 45.4131C11.6036 44.3301 12.0235 44.1339 13.0241 44.1064C16.9401 44.0083 16.8342 43.9927 17.5876 47.7831C19.5181 57.5026 25.0155 64.5734 33.7892 69.129C34.3621 69.4272 34.9468 69.7058 35.6727 70.0629Z" fill="#67DCCD"/>
<path d="M66.4987 55.8349C66.9499 55.9762 67.2952 56.1057 67.6562 56.1881C70.7757 56.9022 70.8542 56.9061 70.6227 59.9903C69.9713 68.7013 65.812 75.1561 57.7406 78.6483C49.9792 82.0032 42.6847 80.6574 35.9435 75.6505C38.2939 72.9666 38.2625 73.0293 41.3427 74.5518C47.5777 77.632 53.7422 77.3731 59.3965 73.3315C65.0312 69.3056 67.4365 63.6473 66.5065 56.6903C66.4712 56.451 66.4987 56.1998 66.4987 55.8349Z" fill="#FFF0C6"/>
<path d="M68.9707 75.1208C73.2007 69.3841 75.1548 63.3687 74.3818 56.604C74.3111 55.9801 74.6172 55.7564 75.0488 55.6152C80.1734 53.9318 84.2738 50.7888 87.7425 46.5746C88.441 55.572 78.388 71.0085 68.9707 75.1208Z" fill="#67DCCD"/>
<path d="M86.8832 40.2257C79.0825 40.2257 71.278 40.21 63.4773 40.2453C62.5316 40.2493 62.4571 39.8059 62.4492 39.0603C62.4061 36.0233 63.0457 33.1392 64.1718 30.3336C64.5564 29.3762 64.9841 29.2193 65.8944 29.7372C67.511 30.6554 69.3003 31.0046 71.1563 30.8673C72.0706 30.8006 72.7023 30.9458 72.6984 32.0366C72.6984 32.221 72.8122 32.4054 72.875 32.5899C74.1699 36.5098 75.5511 37.2004 79.3925 35.5759C80.6286 35.0541 81.3035 35.1482 82.0922 36.2626C83.2968 37.9656 85.1567 38.923 87.0519 39.7784C86.9931 39.9275 86.9382 40.0766 86.8832 40.2257Z" fill="#F97B57"/>
<path d="M84.525 44.2202C80.6717 48.7798 76.277 51.8836 70.505 52.531C68.3154 52.7743 66.4594 51.7541 65.2273 49.8432C64.1287 48.1441 63.391 46.2999 63.03 44.2242C70.1283 44.2202 77.1638 44.2202 84.525 44.2202Z" fill="#F97B57"/>
<path d="M16.4653 40.2257C16.0298 40.2257 15.8336 40.2257 15.6374 40.2257C12.1255 40.2257 11.7959 39.8216 12.5336 36.3843C13.9462 29.7804 22.1667 26.5981 27.6719 30.4827C28.6097 31.1459 28.6882 31.55 27.8406 32.3623C25.4471 34.6578 23.081 36.9807 20.8091 39.3939C19.4239 40.8732 17.7367 39.8804 16.4653 40.2257Z" fill="#FDBE11"/>
<path d="M21.4683 24.8402C24.3131 18.8328 32.051 17.3064 36.6851 21.5873C37.356 22.2073 37.6582 22.6271 36.8106 23.4001C35.2764 24.797 33.8559 26.3195 32.3806 27.787C31.9843 28.1794 31.69 28.6974 30.9719 28.0774C28.3194 25.7702 25.1685 24.7774 21.4683 24.8402Z" fill="#FDBE11"/>
<path d="M88.284 33.0921C88.2683 34.1712 88.3233 35.1561 87.5895 35.4504C86.9538 35.7054 86.3496 34.9324 85.8081 34.4773C84.7879 33.6218 84.1836 32.4957 83.6382 31.3028C82.8377 29.5567 81.79 29.3252 80.2676 30.4749C80.2166 30.5141 80.1734 30.5612 80.1224 30.6044C79.216 31.3264 78.133 32.4643 77.1324 32.0052C76.12 31.5383 76.2731 29.9726 76.226 28.8112C76.1436 26.6256 75.2607 25.9585 73.1026 26.606C71.5566 27.069 70.0694 27.0572 68.5234 26.606C67.4326 26.2881 67.566 25.829 68.1035 25.111C69.2179 23.6238 71.5801 22.6468 73.2831 23.3099C77.6778 25.0246 81.9117 27.1082 86.0867 29.3017C87.617 30.1021 88.1781 31.6952 88.284 33.0921Z" fill="#BBD9A9"/>
<path d="M49.1159 56.7727C49.1159 52.5271 49.1395 48.7994 49.1002 45.0717C49.0884 44.0594 49.6966 44.1261 50.3637 44.13C52.8279 44.1378 55.2882 44.1182 57.7524 44.1457C58.1997 44.1496 58.9138 43.8514 58.9688 44.6754C59.0158 45.3974 59.7732 46.1037 59.0158 46.8571C55.8297 50.0354 52.6513 53.2295 49.1159 56.7727Z" fill="#F75A2D"/>
<path d="M52.1962 62.0189C55.1704 62.7684 57.7249 63.4433 60.295 64.0476C61.3819 64.3026 61.8567 64.5773 61.1151 65.778C59.7888 67.9204 58.1251 69.6509 55.9552 70.9261C55.0802 71.4402 54.5426 71.6324 54.2562 70.2944C53.6833 67.6065 52.9417 64.9579 52.1962 62.0189Z" fill="#FA9C81"/>
<path d="M53.1222 58.1382C55.4098 55.9252 57.4267 54.0182 59.3886 52.0562C60.0478 51.397 60.3971 51.5108 60.8326 52.2524C62.1118 54.4145 62.7121 56.7609 62.8299 59.2526C62.873 60.2022 62.7357 60.6887 61.5232 60.3238C58.8942 59.5351 56.2103 58.9269 53.1222 58.1382Z" fill="#FA9C81"/>
<path d="M48.3468 63.0548C49.2022 66.3941 49.9713 69.3958 50.7836 72.5702C47.7229 72.8488 45.0547 72.1229 42.512 70.7064C41.6488 70.2238 41.6017 69.8196 42.3158 69.1251C44.2621 67.222 46.1573 65.264 48.3468 63.0548Z" fill="#FA9C81"/>
<path d="M61.327 5.04425C61.2878 8.36778 58.0074 11.605 54.7898 11.6678C53.8128 11.6874 53.5617 11.2518 53.6087 10.3729C53.7696 7.16707 56.8263 4.08683 60.0164 3.89848C60.9739 3.83962 61.5507 4.03974 61.327 5.04425Z" fill="#BAD8A8"/>
<path d="M42.0451 5.07564C41.9077 4.23201 42.2374 3.87101 43.2105 3.89063C46.4437 3.95734 49.7516 7.3358 49.6496 10.5024C49.626 11.2714 49.5004 11.6835 48.5783 11.6717C45.3372 11.6246 42.0843 8.41486 42.0451 5.07564Z" fill="#BBD9A9"/>
<path d="M46.8715 32.582C46.8871 34.0182 46.3457 35.1051 44.8271 35.0894C43.2615 35.0737 42.8887 33.924 42.9044 32.5349C42.9201 31.142 43.2733 30.0433 44.9017 30.0825C46.4908 30.1257 46.8832 31.244 46.8715 32.582Z" fill="#0C0506"/>
<path d="M53.6127 25.3856C53.7265 26.7394 53.2321 27.9048 51.7017 27.9361C50.195 27.9675 49.626 26.861 49.6339 25.4249C49.6417 24.0083 50.1126 22.9175 51.6939 22.9214C53.181 22.9293 53.6598 23.9652 53.6127 25.3856Z" fill="#0D0506"/>
<path d="M30.0616 53.8769C29.0139 53.7356 28.3508 53.0372 28.3115 51.8561C28.2762 50.7378 30.1989 49.1565 31.4859 49.2506C32.6866 49.3409 33.3537 50.0864 33.3851 51.2714C33.4204 52.4094 31.5291 53.9161 30.0616 53.8769Z" fill="#050804"/>
<path d="M39.8791 57.7498C39.8399 59.5194 38.5057 61.0144 37.2658 60.932C36.1043 60.8575 35.5079 60.1904 35.4726 59.0407C35.4294 57.6242 36.7871 55.933 37.9643 56.0272C39.1375 56.1253 39.8791 56.7727 39.8791 57.7498Z" fill="#060A05"/>
</g>
<defs>
<clipPath id="clip0_103_538">
<rect width="100" height="92.1758" fill="white"/>
</clipPath>
</defs>
</svg>
