<?xml version="1.0" standalone="no"?>
<!DOCTYPE svg PUBLIC "-//W3C//DTD SVG 20010904//EN"
 "http://www.w3.org/TR/2001/REC-SVG-20010904/DTD/svg10.dtd">
<svg version="1.0" xmlns="http://www.w3.org/2000/svg"
 width="800.000000pt" height="800.000000pt" viewBox="0 0 800.000000 800.000000"
 preserveAspectRatio="xMidYMid meet">
<metadata>
Created by potrace 1.14, written by Peter Selinger 2001-2017
</metadata>
<g transform="translate(0.000000,800.000000) scale(0.100000,-0.100000)"
fill="#000000" stroke="none">
<path d="M3250 7705 c-149 -40 -200 -125 -200 -335 0 -71 2 -89 15 -185 10
-76 44 -195 55 -195 4 0 7 -6 7 -12 0 -28 100 -175 158 -233 64 -64 249 -192
303 -209 12 -4 22 -11 22 -15 0 -12 -327 -335 -346 -341 -36 -13 -87 10 -147
66 -38 34 -162 114 -222 143 -100 48 -219 85 -314 99 -58 9 -295 8 -341 -1
-19 -4 -48 -9 -65 -12 -99 -18 -287 -101 -385 -170 -81 -57 -173 -142 -222
-206 -12 -17 -29 -37 -36 -44 -6 -8 -12 -18 -12 -24 0 -6 -4 -11 -9 -11 -5 0
-14 -13 -21 -30 -7 -16 -16 -30 -21 -30 -5 0 -8 -3 -8 -7 3 -13 -25 -73 -33
-73 -4 0 -8 -7 -8 -15 0 -8 -4 -23 -9 -33 -6 -9 -24 -50 -43 -91 -35 -80 -63
-107 -194 -188 -73 -45 -101 -67 -173 -136 -59 -56 -161 -185 -161 -203 0 -8
-4 -14 -10 -14 -5 0 -10 -4 -10 -9 0 -6 -10 -27 -22 -48 -25 -41 -31 -55 -79
-188 -30 -84 -32 -99 -34 -231 -1 -127 -4 -144 -23 -172 -44 -61 -94 -68 -382
-58 -193 7 -241 -10 -268 -95 -14 -42 -8 -281 12 -454 4 -33 9 -78 11 -100 2
-22 9 -67 14 -100 5 -33 12 -78 16 -100 5 -34 9 -53 20 -95 0 -3 5 -27 10 -55
4 -27 10 -54 11 -60 5 -18 14 -59 19 -89 3 -16 10 -37 16 -47 5 -11 8 -19 6
-19 -3 0 11 -51 30 -112 41 -137 39 -130 46 -148 3 -8 13 -37 22 -65 9 -27 21
-55 27 -62 6 -7 8 -13 5 -13 -7 0 40 -117 69 -172 9 -16 13 -28 11 -28 -14 0
165 -332 250 -463 35 -54 63 -102 63 -107 0 -4 3 -10 8 -12 4 -1 38 -46 76
-98 38 -52 77 -104 87 -115 10 -11 48 -56 86 -100 129 -152 303 -326 447 -448
27 -23 54 -46 60 -52 6 -5 29 -23 51 -39 22 -17 42 -32 45 -36 13 -14 173
-130 293 -212 110 -75 162 -129 199 -206 30 -65 32 -72 33 -207 2 -139 10
-180 37 -203 45 -37 63 -37 1899 -36 981 0 1805 4 1831 8 26 4 58 16 73 27 47
38 57 79 60 259 3 184 10 211 67 251 18 13 35 26 38 29 9 9 64 41 83 47 9 3
17 9 17 14 0 5 6 9 13 9 8 0 27 11 43 25 16 14 32 25 36 25 4 0 16 6 25 14 10
8 72 55 138 105 66 49 136 104 155 121 127 111 154 138 173 174 23 45 28 99
14 133 -11 25 7 103 23 103 6 0 10 6 10 14 0 15 100 118 145 151 16 11 36 28
46 38 12 13 24 17 40 12 82 -26 173 12 206 86 20 46 -3 157 -38 179 -4 3 10
35 31 70 22 36 43 72 47 80 3 8 17 31 29 50 12 19 34 55 47 80 23 42 28 45 69
47 23 1 46 2 51 3 20 6 28 8 41 9 43 4 102 87 156 221 10 25 26 63 36 85 10
22 19 45 20 50 4 15 65 177 75 200 5 11 11 29 14 40 2 11 13 48 24 81 26 76
91 336 96 384 2 19 9 53 14 75 5 22 12 63 16 90 3 28 8 59 10 70 28 137 41
605 18 612 -7 3 -13 11 -13 18 0 20 -50 52 -95 61 -21 4 -156 7 -299 7 -144 0
-267 2 -274 5 -7 2 -10 12 -8 21 3 9 8 32 11 51 3 19 12 67 20 105 40 198 50
281 48 395 -1 92 -23 204 -43 224 -5 5 -10 17 -10 25 0 16 -55 107 -80 132 -9
9 -25 27 -36 40 -29 36 -139 129 -152 129 -7 0 -12 4 -12 9 0 5 -15 16 -33 24
-18 9 -49 27 -70 41 -21 14 -40 26 -44 26 -3 0 -40 17 -82 37 -129 63 -144 95
-91 193 52 97 33 177 -55 227 -61 35 -149 27 -182 -15 -15 -20 -53 -97 -53
-109 0 -5 -12 -21 -26 -36 -23 -25 -31 -28 -68 -23 -22 3 -94 32 -158 65 -177
89 -298 121 -441 116 -146 -6 -276 -56 -400 -154 -114 -91 -100 -90 -190 -3
-264 257 -487 480 -487 488 0 5 26 22 58 39 241 124 427 349 478 580 23 101
37 245 25 245 -3 0 -5 17 -5 38 2 45 -39 179 -64 208 -50 59 -134 84 -297 89
-253 7 -442 -73 -644 -272 -77 -77 -76 -76 -117 -38 -6 6 -41 37 -79 70 -37
33 -73 65 -79 70 -77 71 -207 136 -297 151 -24 3 -55 9 -69 11 -60 11 -278 10
-320 -2z"/>
</g>
</svg>
