<svg width="173" height="173" viewBox="0 0 173 173" fill="none" xmlns="http://www.w3.org/2000/svg">
<g filter="url(#filter0_d_304_1179)">
<rect x="2" width="169" height="169" rx="16" fill="white"/>
</g>
<path d="M52.3505 74.6205L51.9605 74.0205C44.8505 62.9105 48.0905 48.1405 59.2005 41.0305L59.6105 40.7705C70.7205 33.6605 85.4905 36.9005 92.6005 48.0105L93.6205 49.6004C97.9605 56.3804 104.15 61.6705 111.22 65.5305C117.04 68.7105 122.04 73.6205 125.37 80.0805C133.13 95.1205 128.58 113.98 114.86 123.88C98.6105 135.59 76.1005 131.14 65.4505 114.5C62.0805 109.24 60.3305 103.42 60.0405 97.6004C59.6405 89.4004 56.7705 81.5205 52.3505 74.6205Z" fill="#3A471D"/>
<path d="M47.1605 77.9405L46.7705 77.3405C39.6605 66.2305 42.9005 51.4605 54.0105 44.3505L54.4205 44.0905C65.5305 36.9805 80.3005 40.2205 87.4105 51.3305L88.4305 52.9205C92.7705 59.7005 98.9605 64.9905 106.03 68.8505C111.85 72.0305 116.85 76.9405 120.18 83.4005C127.94 98.4405 123.39 117.301 109.66 127.201C93.4105 138.911 70.9005 134.461 60.2505 117.821C56.8805 112.561 55.1305 106.731 54.8405 100.921C54.4505 92.7205 51.5805 84.8405 47.1605 77.9405Z" fill="#AABA35"/>
<path d="M49.6905 78.2005L49.3405 77.6505C42.8105 67.4505 45.7905 53.8805 55.9905 47.3605L56.3605 47.1205C66.5605 40.5905 80.1305 43.5705 86.6505 53.7705L87.5805 55.2305C91.5705 61.4605 97.2505 66.3205 103.74 69.8605C109.08 72.7805 113.67 77.2905 116.74 83.2205C123.86 97.0305 119.69 114.35 107.08 123.44C92.1605 134.2 71.4905 130.11 61.7105 114.83C58.6205 110 57.0105 104.65 56.7505 99.3105C56.3805 91.7805 53.7505 84.5405 49.6905 78.2005Z" fill="#DCDB9A"/>
<path opacity="0.51" d="M57.4805 112.481C58.2405 114.301 59.1505 116.091 60.2605 117.811C69.1605 131.711 86.3205 137.061 101.2 131.641L110.52 107.681L72.1805 85.7905L57.4805 112.481Z" fill="#3A471D"/>
<path d="M70.8705 111.69C77.5205 122.08 91.3405 125.12 101.74 118.46C112.13 111.81 115.17 97.9904 108.52 87.5904C101.87 77.2004 88.0505 74.1604 77.6505 80.8104C67.2505 87.4704 64.2205 101.29 70.8705 111.69Z" fill="#A26E27"/>
<path opacity="0.67" d="M74.2405 83.5005C73.7505 92.2005 75.8905 101.13 80.9505 109.04C84.2805 114.24 88.5405 118.47 93.3805 121.68C84.8205 123.11 75.8405 119.46 70.8705 111.69C65.0105 102.54 66.6705 90.7405 74.2405 83.5005Z" fill="#3C3271"/>
<defs>
<filter id="filter0_d_304_1179" x="0" y="0" width="173" height="173" filterUnits="userSpaceOnUse" color-interpolation-filters="sRGB">
<feFlood flood-opacity="0" result="BackgroundImageFix"/>
<feColorMatrix in="SourceAlpha" type="matrix" values="0 0 0 0 0 0 0 0 0 0 0 0 0 0 0 0 0 0 127 0" result="hardAlpha"/>
<feOffset dy="2"/>
<feGaussianBlur stdDeviation="1"/>
<feComposite in2="hardAlpha" operator="out"/>
<feColorMatrix type="matrix" values="0 0 0 0 0 0 0 0 0 0 0 0 0 0 0 0 0 0 0.25 0"/>
<feBlend mode="normal" in2="BackgroundImageFix" result="effect1_dropShadow_304_1179"/>
<feBlend mode="normal" in="SourceGraphic" in2="effect1_dropShadow_304_1179" result="shape"/>
</filter>
</defs>
</svg>
