<svg width="173" height="173" viewBox="0 0 173 173" fill="none" xmlns="http://www.w3.org/2000/svg">
<g filter="url(#filter0_d_65_1560)">
<rect x="2" width="169" height="169" rx="16" fill="white"/>
</g>
<path d="M64.58 108.384C64.58 108.384 47 99.6739 47 117.554C47 137.714 64.58 136.344 64.58 136.344C64.58 136.344 82.16 137.714 82.16 117.554C82.16 99.6739 64.58 108.384 64.58 108.384Z" fill="#A41833"/>
<path d="M72.6 134.854C60.1 136.944 54.95 131.584 53.53 119.874C52.11 108.174 61.61 107.224 61.61 107.224C56.59 105.644 47.01 104.344 47.01 117.544C47.01 137.704 64.59 136.334 64.59 136.334C64.59 136.334 68.48 136.634 72.6 134.854Z" fill="#861629"/>
<path d="M72.92 125.074C77.5537 125.074 81.31 121.318 81.31 116.684C81.31 112.05 77.5537 108.294 72.92 108.294C68.2863 108.294 64.53 112.05 64.53 116.684C64.53 121.318 68.2863 125.074 72.92 125.074Z" fill="#A5324C"/>
<path d="M73.6 112.034C73.6 112.034 76.86 114.244 75.7 118.454C74.54 122.664 77.59 121.834 78.75 120.044C79.91 118.244 80.12 112.204 76.17 110.444C72.23 108.674 72.7 111.204 73.6 112.034Z" fill="white"/>
<path d="M104.1 108.934C104.1 108.934 84.75 105.704 89.94 122.804C95.79 142.104 112.21 135.684 112.21 135.684C112.21 135.684 129.43 131.904 123.58 112.604C118.39 95.5039 104.1 108.934 104.1 108.934Z" fill="#A41833"/>
<path d="M119.45 131.944C108.1 137.574 101.61 133.934 96.85 123.144C92.1 112.354 100.91 108.694 100.91 108.694C95.65 108.634 86.1 110.174 89.93 122.804C95.78 142.104 112.2 135.684 112.2 135.684C112.2 135.684 116.02 134.844 119.45 131.944Z" fill="#861629"/>
<path d="M122.52 112.034C123.87 116.474 121.36 121.154 116.92 122.504C112.48 123.854 107.8 121.344 106.45 116.904C105.1 112.464 107.61 107.784 112.05 106.434C116.49 105.084 121.17 107.594 122.52 112.034Z" fill="#A5324C"/>
<path d="M113.79 109.824C113.79 109.824 117.55 110.994 117.67 115.354C117.78 119.714 120.46 118.044 121.05 115.984C121.64 113.924 120.09 108.084 115.8 107.544C111.5 106.994 112.69 109.284 113.79 109.824Z" fill="white"/>
<path d="M85.82 45.5339C62.52 69.6639 64.58 108.384 64.58 108.384" stroke="#85A24E" stroke-width="1.3342" stroke-miterlimit="10"/>
<path d="M104.1 108.934C104.1 108.934 74.91 79.2239 85.83 45.5239" stroke="#85A24E" stroke-width="1.3342" stroke-miterlimit="10"/>
<path d="M85.19 45.6739C85.19 45.6739 56.51 41.1339 50.68 82.1239C70.97 81.1239 86.55 62.2639 85.19 45.6739Z" fill="#85A24E"/>
<path d="M85.19 45.6739C85.19 45.6739 56.51 41.1339 50.68 82.1239C50.68 82.1239 62.44 57.2439 85.19 45.6739Z" fill="#6F8D32"/>
<path d="M59.53 68.0739C67.2 59.2839 75.49 51.9939 85.26 46.5239C85.28 45.6739 85.26 46.5239 85.19 45.6839C85.19 45.6739 68.38 54.0239 59.53 68.0739Z" fill="#AECC4F"/>
<path opacity="0.29" d="M50.68 82.1239C56.71 81.8239 62.31 79.9439 67.19 77.0239C70.37 67.1139 67.25 58.5239 63.86 52.8539C58.08 58.0939 52.82 67.0139 50.68 82.1239Z" fill="#6F8D32"/>
<path d="M84.98 46.5139L85.01 46.5339C86.03 47.1439 87.34 46.8639 88.02 45.8939L93.15 38.5039C93.97 37.3239 93.53 35.6839 92.22 35.0739L90.36 34.2139C89.14 33.6539 87.71 34.2339 87.22 35.4839L84.02 43.7739C83.65 44.7939 84.05 45.9539 84.98 46.5139Z" fill="#C46833"/>
<path d="M85.97 45.7839L89.17 37.4939C89.65 36.2439 91.09 35.6639 92.31 36.2239L93.54 36.7939C93.42 36.0739 92.97 35.4139 92.24 35.0739L90.38 34.2139C89.16 33.6539 87.73 34.2339 87.24 35.4839L84.04 43.7739C83.65 44.7939 84.04 45.9539 84.98 46.5139L85.01 46.5339C85.27 46.6939 85.55 46.7839 85.83 46.8339C85.81 46.4839 85.84 46.1239 85.97 45.7839Z" fill="#A04E17"/>
<defs>
<filter id="filter0_d_65_1560" x="0" y="0" width="173" height="173" filterUnits="userSpaceOnUse" color-interpolation-filters="sRGB">
<feFlood flood-opacity="0" result="BackgroundImageFix"/>
<feColorMatrix in="SourceAlpha" type="matrix" values="0 0 0 0 0 0 0 0 0 0 0 0 0 0 0 0 0 0 127 0" result="hardAlpha"/>
<feOffset dy="2"/>
<feGaussianBlur stdDeviation="1"/>
<feComposite in2="hardAlpha" operator="out"/>
<feColorMatrix type="matrix" values="0 0 0 0 0 0 0 0 0 0 0 0 0 0 0 0 0 0 0.25 0"/>
<feBlend mode="normal" in2="BackgroundImageFix" result="effect1_dropShadow_65_1560"/>
<feBlend mode="normal" in="SourceGraphic" in2="effect1_dropShadow_65_1560" result="shape"/>
</filter>
</defs>
</svg>
