<svg width="173" height="173" viewBox="0 0 173 173" fill="none" xmlns="http://www.w3.org/2000/svg">
<g filter="url(#filter0_d_304_1139)">
<rect x="2" width="169" height="169" rx="16" fill="white"/>
</g>
<path d="M62.935 74.1729C62.935 74.1729 55.105 65.7229 56.155 60.4829C57.195 55.2529 68.595 70.4829 68.595 70.4829C68.595 70.4829 60.3449 55.6729 62.9749 52.5729C65.6149 49.4729 74.955 68.5029 74.955 68.5029C74.955 68.5029 66.465 44.0929 72.825 42.1129C79.195 40.1329 86.655 64.8629 86.655 64.8629C86.655 64.8629 83.785 45.3829 87.685 46.4529C91.585 47.5229 93.025 62.8829 93.025 62.8829C93.025 62.8829 93.9549 45.3829 97.7249 49.1129C101.495 52.8529 99.755 62.7129 99.755 62.7129C99.755 62.7129 96.695 69.9729 83.095 74.2029C69.505 78.4428 62.935 74.1729 62.935 74.1729Z" fill="#009C8F"/>
<path d="M57.175 88.9828C55.175 88.5928 53.795 86.8428 54.025 84.8428L54.045 84.6928C54.275 82.6828 56.055 81.1528 58.165 81.0528C57.495 80.5428 57.015 79.8328 56.815 79.0028C56.555 77.9828 56.745 76.9128 57.335 75.9928C57.365 75.9528 57.465 75.7928 57.515 75.7128C58.655 74.0828 60.825 73.4228 62.635 74.0628C61.815 72.5028 62.235 70.4828 63.705 69.2328L63.755 69.1928C63.775 69.1728 63.805 69.1528 63.835 69.1328L63.865 69.1128C63.895 69.0928 63.915 69.0728 63.945 69.0528L63.995 69.0228C65.505 67.8928 67.585 67.8328 69.055 68.8328C68.695 67.1128 69.615 65.2528 71.355 64.3928L71.435 64.3528C73.225 63.4328 75.305 63.7828 76.535 65.1128C76.475 63.3428 77.725 61.6028 79.625 60.9928C79.675 60.9828 79.875 60.9228 79.915 60.9028C81.775 60.3728 83.675 61.1228 84.565 62.6528C84.885 60.8728 86.435 59.4228 88.415 59.2128L88.575 59.1928C88.615 59.1828 88.665 59.1828 88.705 59.1828C90.585 59.0328 92.235 60.1028 92.785 61.7428C93.465 60.0228 95.325 58.8428 97.295 59.0128C97.315 59.0128 97.435 59.0228 97.465 59.0228C99.455 59.2028 100.885 60.6728 100.995 62.5228C102.165 60.9328 104.375 60.2728 106.245 61.0328C106.265 61.0428 106.415 61.1028 106.435 61.1128C108.325 61.9228 109.155 63.9228 108.465 65.8128C110.315 64.7028 112.745 65.0628 114.025 66.6928L114.085 66.7628C114.095 66.7828 114.105 66.7928 114.125 66.8128L114.145 66.8428C114.755 67.6428 115.005 68.6428 114.845 69.6528C114.705 70.5128 114.285 71.3028 113.665 71.9228C115.675 71.8028 117.495 73.0728 117.875 74.9628L117.915 75.1428C118.265 76.9428 117.225 78.7628 115.495 79.5728C117.265 80.0428 118.475 81.5828 118.385 83.4028C118.385 83.4428 118.365 83.6428 118.365 83.6828C118.225 85.4028 116.955 86.8128 115.195 87.2828C116.775 87.8828 117.795 89.4028 117.655 91.0928C117.655 91.1228 117.635 91.2728 117.625 91.3728C117.425 93.0528 116.105 94.4428 114.395 94.8728C115.975 95.5128 116.965 97.0728 116.765 98.7928L116.735 99.0528C116.475 100.783 115.085 102.143 113.335 102.493C114.925 103.243 115.835 104.943 115.455 106.693L115.415 106.873C115.015 108.633 113.475 109.943 111.655 110.153C113.135 111.093 113.785 112.913 113.175 114.623L113.155 114.663C113.145 114.703 113.125 114.733 113.115 114.773L113.095 114.823C113.095 114.833 113.085 114.843 113.085 114.863L113.055 114.953C112.305 116.693 110.435 117.743 108.525 117.543C109.755 118.993 109.695 121.173 108.285 122.663C108.265 122.683 108.135 122.823 108.115 122.833C106.625 124.353 104.275 124.583 102.605 123.433C102.925 125.423 101.585 127.413 99.485 127.993L99.365 128.033C99.065 128.123 98.745 128.183 98.425 128.213C96.655 128.353 95.065 127.433 94.395 125.933C94.045 126.783 93.415 127.503 92.585 127.993C91.615 128.563 90.475 128.753 89.395 128.523C89.355 128.513 89.165 128.473 89.125 128.463C87.115 127.983 85.935 126.183 86.245 124.233C84.755 125.513 82.505 125.723 80.895 124.603C80.875 124.593 80.725 124.483 80.705 124.473C79.215 123.393 78.795 121.483 79.585 119.833C77.935 120.683 75.885 120.453 74.605 119.193L74.435 119.023C73.205 117.753 73.105 115.863 74.085 114.373C72.445 115.043 70.525 114.703 69.335 113.433L69.285 113.373C69.265 113.353 69.245 113.333 69.235 113.313L69.215 113.293C69.195 113.273 69.175 113.243 69.155 113.223L69.115 113.173C68.065 111.883 68.025 110.073 68.955 108.663C67.265 109.213 65.375 108.713 64.325 107.363L64.215 107.223C63.225 105.913 63.225 104.153 64.165 102.783C62.455 103.293 60.625 102.763 59.595 101.373L59.545 101.303C58.405 99.8228 58.575 97.7728 59.855 96.3728C57.935 96.6728 55.995 95.6728 55.345 93.9028L55.325 93.8628C55.305 93.8228 55.295 93.7828 55.275 93.7428C54.625 91.9528 55.465 89.9628 57.175 88.9828Z" fill="#5A2B6C"/>
<g opacity="0.1">
<path d="M107.705 88.2129C108.725 88.8329 109.255 89.9429 109.115 91.1029C108.885 89.9329 107.965 88.9929 106.725 88.7129C107.345 88.3729 107.855 87.8529 108.165 87.2129C108.525 86.4629 108.585 85.6429 108.315 84.8829L108.305 84.8629C108.295 84.8529 108.295 84.8329 108.285 84.8229L108.255 84.7529C107.745 83.3629 106.265 82.5829 104.765 82.7829C104.805 82.7029 104.865 82.6329 104.895 82.5529C105.275 81.7729 105.325 80.9229 105.055 80.1429L105.045 80.1129C105.035 80.1029 105.035 80.0829 105.025 80.0729L104.995 80.0029C104.445 78.5129 102.835 77.7029 101.215 77.9929C101.105 78.0029 100.985 78.0229 100.875 78.0429C101.875 76.6829 101.725 74.8929 100.455 73.8329C100.445 73.8229 100.345 73.7429 100.325 73.7229C99.055 72.6929 97.155 72.7329 95.855 73.7529C96.225 72.2429 95.485 70.7429 93.965 70.1629C93.935 70.1529 93.845 70.1229 93.835 70.1129C92.345 69.5429 90.595 70.0729 89.635 71.3029C89.605 69.8629 88.585 68.6329 87.085 68.3429C87.045 68.3329 87.015 68.3329 86.985 68.3229L86.855 68.3029C85.255 68.0329 83.685 68.8529 82.995 70.2129C82.835 69.4929 82.435 68.8729 81.865 68.4429C82.315 67.1629 83.615 66.1729 85.115 66.1129C85.155 66.1129 85.315 66.1129 85.355 66.1129C86.885 66.1029 88.135 67.0929 88.435 68.4729C89.105 67.1629 90.625 66.3729 92.165 66.6329L92.295 66.6529C92.325 66.6629 92.365 66.6629 92.395 66.6729C93.845 66.9629 94.835 68.1429 94.855 69.5329C95.775 68.3429 97.475 67.8329 98.915 68.3829C98.925 68.3829 99.015 68.4229 99.045 68.4329C100.505 69.0029 101.225 70.4529 100.865 71.9029C102.125 70.9229 103.955 70.8829 105.185 71.8829C105.195 71.8929 105.295 71.9729 105.305 71.9829C106.535 73.0129 106.675 74.7429 105.705 76.0629C107.365 75.6029 109.115 76.4029 109.685 77.9429L109.715 78.0129C109.725 78.0229 109.725 78.0429 109.735 78.0529L109.745 78.0729C110.015 78.8329 109.955 79.6529 109.595 80.4029C109.285 81.0429 108.775 81.5629 108.155 81.9029C109.705 82.2429 110.765 83.6229 110.595 85.1729L110.575 85.3229C110.425 86.7629 109.215 87.9529 107.705 88.2129Z" fill="white"/>
</g>
<defs>
<filter id="filter0_d_304_1139" x="0" y="0" width="173" height="173" filterUnits="userSpaceOnUse" color-interpolation-filters="sRGB">
<feFlood flood-opacity="0" result="BackgroundImageFix"/>
<feColorMatrix in="SourceAlpha" type="matrix" values="0 0 0 0 0 0 0 0 0 0 0 0 0 0 0 0 0 0 127 0" result="hardAlpha"/>
<feOffset dy="2"/>
<feGaussianBlur stdDeviation="1"/>
<feComposite in2="hardAlpha" operator="out"/>
<feColorMatrix type="matrix" values="0 0 0 0 0 0 0 0 0 0 0 0 0 0 0 0 0 0 0.25 0"/>
<feBlend mode="normal" in2="BackgroundImageFix" result="effect1_dropShadow_304_1139"/>
<feBlend mode="normal" in="SourceGraphic" in2="effect1_dropShadow_304_1139" result="shape"/>
</filter>
</defs>
</svg>
