<svg width="173" height="173" viewBox="0 0 173 173" fill="none" xmlns="http://www.w3.org/2000/svg">
<g filter="url(#filter0_d_109_1944)">
<rect x="2" width="169" height="169" rx="16" fill="white"/>
</g>
<path d="M75.55 114.06C97.796 114.06 115.83 99.0481 115.83 80.53C115.83 62.0119 97.796 47 75.55 47C53.304 47 35.27 62.0119 35.27 80.53C35.27 99.0481 53.304 114.06 75.55 114.06Z" fill="#A26E27"/>
<path d="M109.1 99.08C60.5 110.73 43.83 87.21 38.15 68.09C36.3 71.94 35.28 76.13 35.28 80.52C35.28 99.04 53.31 114.05 75.56 114.05C89.55 114.06 101.88 108.11 109.1 99.08Z" fill="#6E4612"/>
<path opacity="0.29" d="M50.7 54.16C56.38 67.43 76.37 77.24 100.17 77.24C105.49 77.24 110.61 76.75 115.43 75.84C112.69 59.54 95.89 47 75.55 47C66.17 47 57.54 49.68 50.7 54.16Z" fill="white"/>
<path d="M38.67 81.05C38.67 83.15 37.62 84.86 36.33 84.86C35.04 84.86 34 83.16 34 81.05C34 78.95 35.05 77.24 36.34 77.24C37.63 77.24 38.67 78.95 38.67 81.05Z" fill="#553413"/>
<path d="M73.77 85.73C73.77 85.73 74.53 123.2 106 123.2C137.47 123.2 137.46 85.73 137.46 85.73H73.77Z" fill="#A26E27"/>
<path d="M105.62 112.97C123.205 112.97 137.46 100.774 137.46 85.73C137.46 70.6858 123.205 58.49 105.62 58.49C88.0353 58.49 73.78 70.6858 73.78 85.73C73.78 100.774 88.0353 112.97 105.62 112.97Z" fill="#A26E27"/>
<path d="M105.62 111.1C121.973 111.1 135.23 99.7594 135.23 85.77C135.23 71.7806 121.973 60.44 105.62 60.44C89.2669 60.44 76.01 71.7806 76.01 85.77C76.01 99.7594 89.2669 111.1 105.62 111.1Z" fill="#98C11E"/>
<path d="M126.3 84.58L122.48 85.2C121.68 85.33 121.68 86.06 122.49 86.19L126.32 86.77C127.23 86.91 127.07 87.77 126.14 87.77L122.2 87.78C121.37 87.78 121.1 88.5 121.84 88.74L125.34 89.89C126.17 90.16 125.7 90.97 124.79 90.83L120.97 90.24C120.16 90.12 119.64 90.77 120.26 91.12L123.22 92.77C123.93 93.16 123.16 93.88 122.33 93.6L118.84 92.44C118.11 92.2 117.35 92.75 117.82 93.18L120.07 95.24C120.61 95.73 119.6 96.31 118.9 95.91L115.95 94.25C115.33 93.9 114.39 94.32 114.69 94.82L116.11 97.17C116.45 97.73 115.25 98.14 114.72 97.64L112.48 95.57C112.01 95.13 110.94 95.4 111.04 95.93L111.54 98.43C111.66 99.03 110.35 99.24 110.01 98.68L108.61 96.33C108.31 95.83 107.18 95.93 107.08 96.46L106.63 98.96C106.52 99.56 105.17 99.56 105.06 98.97L104.58 96.47C104.48 95.94 103.34 95.86 103.05 96.36L101.68 98.72C101.35 99.28 100.04 99.08 100.15 98.49L100.61 95.99C100.71 95.46 99.64 95.21 99.17 95.65L96.95 97.74C96.42 98.24 95.22 97.84 95.55 97.28L96.94 94.92C97.23 94.42 96.29 94.01 95.67 94.37L92.74 96.06C92.04 96.46 91.03 95.89 91.56 95.4L93.79 93.32C94.26 92.88 93.5 92.34 92.76 92.59L89.29 93.78C88.46 94.06 87.69 93.36 88.39 92.96L91.33 91.28C91.95 90.93 91.41 90.28 90.61 90.41L86.79 91.04C85.88 91.19 85.4 90.38 86.23 90.1L89.71 88.92C90.44 88.67 90.16 87.96 89.34 87.96L85.4 87.98C84.46 87.99 84.29 87.13 85.2 86.98L89.02 86.36C89.82 86.23 89.82 85.5 89.01 85.37L85.18 84.79C84.27 84.65 84.43 83.79 85.36 83.79L89.3 83.78C90.13 83.78 90.4 83.06 89.66 82.82L86.16 81.67C85.33 81.4 85.8 80.59 86.71 80.73L90.53 81.32C91.34 81.44 91.86 80.79 91.24 80.44L88.28 78.79C87.57 78.4 88.34 77.68 89.17 77.96L92.66 79.12C93.39 79.36 94.15 78.81 93.68 78.38L91.43 76.32C90.89 75.83 91.9 75.25 92.6 75.65L95.55 77.31C96.17 77.66 97.11 77.24 96.81 76.74L95.39 74.39C95.05 73.83 96.25 73.42 96.78 73.92L99.02 75.99C99.49 76.43 100.56 76.16 100.46 75.63L99.96 73.13C99.84 72.53 101.15 72.32 101.49 72.88L102.89 75.23C103.19 75.73 104.32 75.63 104.42 75.1L104.87 72.6C104.98 72 106.33 72 106.44 72.59L106.92 75.09C107.02 75.62 108.16 75.7 108.45 75.2L109.82 72.84C110.15 72.28 111.46 72.48 111.35 73.07L110.89 75.57C110.79 76.1 111.86 76.35 112.33 75.91L114.55 73.82C115.08 73.32 116.28 73.72 115.95 74.28L114.56 76.64C114.27 77.14 115.21 77.55 115.83 77.19L118.76 75.5C119.46 75.1 120.47 75.67 119.94 76.16L117.71 78.24C117.24 78.68 118 79.22 118.74 78.97L122.21 77.78C123.04 77.5 123.81 78.2 123.11 78.6L120.17 80.28C119.55 80.63 120.09 81.28 120.89 81.15L124.71 80.52C125.62 80.37 126.1 81.18 125.27 81.46L121.79 82.64C121.06 82.89 121.34 83.6 122.16 83.6L126.1 83.58C127.04 83.58 127.21 84.44 126.3 84.58Z" fill="#132316"/>
<path d="M115.12 85.77C115.12 88.9 112.16 91.43 108.5 91.43H102.73C99.07 91.43 96.11 88.9 96.11 85.77C96.11 82.64 99.07 80.11 102.73 80.11H108.5C112.15 80.11 115.12 82.65 115.12 85.77Z" fill="#F7EF8D"/>
<path d="M105.74 61.93C105.74 61.93 104.79 65.9 105.62 69.23C106.44 72.56 107.56 63.38 105.74 61.93Z" fill="#BCD35C"/>
<path d="M110.64 69.96C110.64 69.96 110.84 64.59 112.73 63.11C114.62 61.63 110.64 69.96 110.64 69.96Z" fill="#BCD35C"/>
<path d="M115.12 71.86C115.12 71.86 116.46 66.61 118.63 65.45C120.79 64.3 115.12 71.86 115.12 71.86Z" fill="#BCD35C"/>
<path d="M118.53 74.08C118.53 74.08 120.85 69.08 123.21 68.24C125.56 67.4 118.53 74.08 118.53 74.08Z" fill="#BCD35C"/>
<path d="M122.61 76.61C122.61 76.61 125.56 72.44 127.6 71.9C129.63 71.35 122.61 76.61 122.61 76.61Z" fill="#BCD35C"/>
<path d="M124.61 79.34C124.61 79.34 128.83 76.07 130.97 76.06C133.11 76.04 124.61 79.34 124.61 79.34Z" fill="#BCD35C"/>
<path d="M126.56 82.59C126.56 82.59 131.14 80.63 133.18 81.33C135.22 82.02 126.56 82.59 126.56 82.59Z" fill="#BCD35C"/>
<path d="M127.81 86.81C127.81 86.81 132.59 85.23 134.54 86.09C136.5 86.95 127.81 86.81 127.81 86.81Z" fill="#BCD35C"/>
<path d="M100.59 69.96C100.59 69.96 100.39 64.59 98.5 63.11C96.61 61.64 100.59 69.96 100.59 69.96Z" fill="#BCD35C"/>
<path d="M96.11 71.86C96.11 71.86 94.77 66.61 92.6 65.45C90.44 64.3 96.11 71.86 96.11 71.86Z" fill="#BCD35C"/>
<path d="M92.7 74.08C92.7 74.08 90.38 69.08 88.02 68.24C85.67 67.4 92.7 74.08 92.7 74.08Z" fill="#BCD35C"/>
<path d="M88.62 76.61C88.62 76.61 85.67 72.44 83.63 71.9C81.6 71.35 88.62 76.61 88.62 76.61Z" fill="#BCD35C"/>
<path d="M86.62 79.34C86.62 79.34 82.4 76.07 80.26 76.06C78.12 76.04 86.62 79.34 86.62 79.34Z" fill="#BCD35C"/>
<path d="M84.67 82.59C84.67 82.59 80.09 80.63 78.05 81.33C76.01 82.02 84.67 82.59 84.67 82.59Z" fill="#BCD35C"/>
<path d="M83.42 86.81C83.42 86.81 78.64 85.23 76.69 86.09C74.73 86.95 83.42 86.81 83.42 86.81Z" fill="#BCD35C"/>
<path d="M105.74 109.61C105.74 109.61 104.79 105.64 105.62 102.31C106.44 98.98 107.56 108.16 105.74 109.61Z" fill="#BCD35C"/>
<path d="M110.64 101.59C110.64 101.59 110.84 106.96 112.73 108.44C114.62 109.92 110.64 101.59 110.64 101.59Z" fill="#BCD35C"/>
<path d="M115.12 99.6799C115.12 99.6799 116.46 104.93 118.63 106.09C120.79 107.25 115.12 99.6799 115.12 99.6799Z" fill="#BCD35C"/>
<path d="M118.53 97.47C118.53 97.47 120.85 102.47 123.21 103.31C125.56 104.14 118.53 97.47 118.53 97.47Z" fill="#BCD35C"/>
<path d="M122.61 94.9399C122.61 94.9399 125.56 99.1099 127.6 99.6499C129.63 100.19 122.61 94.9399 122.61 94.9399Z" fill="#BCD35C"/>
<path d="M124.61 92.2C124.61 92.2 128.83 95.4699 130.97 95.4799C133.11 95.5099 124.61 92.2 124.61 92.2Z" fill="#BCD35C"/>
<path d="M126.56 88.96C126.56 88.96 131.14 90.92 133.18 90.22C135.22 89.52 126.56 88.96 126.56 88.96Z" fill="#BCD35C"/>
<path d="M100.59 101.59C100.59 101.59 100.39 106.96 98.5 108.44C96.61 109.91 100.59 101.59 100.59 101.59Z" fill="#BCD35C"/>
<path d="M96.11 99.6799C96.11 99.6799 94.77 104.93 92.6 106.09C90.44 107.25 96.11 99.6799 96.11 99.6799Z" fill="#BCD35C"/>
<path d="M92.7 97.47C92.7 97.47 90.38 102.47 88.02 103.31C85.67 104.14 92.7 97.47 92.7 97.47Z" fill="#BCD35C"/>
<path d="M88.62 94.9399C88.62 94.9399 85.67 99.1099 83.63 99.6499C81.6 100.19 88.62 94.9399 88.62 94.9399Z" fill="#BCD35C"/>
<path d="M86.62 92.2C86.62 92.2 82.4 95.4699 80.26 95.4799C78.12 95.5099 86.62 92.2 86.62 92.2Z" fill="#BCD35C"/>
<path d="M84.67 88.96C84.67 88.96 80.09 90.92 78.05 90.22C76.01 89.52 84.67 88.96 84.67 88.96Z" fill="#BCD35C"/>
<path d="M76.5 100.32C79.99 110.84 87.93 123.2 106 123.2C110.59 123.2 114.51 122.4 117.86 121.03C94.97 118.89 82.21 107.32 76.5 100.32Z" fill="#6E4612"/>
<path opacity="0.29" d="M105.62 58.49C95.91 58.49 87.23 62.21 81.39 68.07C87.16 82.84 109.34 93.84 135.85 93.84C135.91 93.84 135.97 93.84 136.02 93.84C136.95 91.28 137.45 88.56 137.45 85.73C137.46 70.69 123.2 58.49 105.62 58.49Z" fill="white"/>
<defs>
<filter id="filter0_d_109_1944" x="0" y="0" width="173" height="173" filterUnits="userSpaceOnUse" color-interpolation-filters="sRGB">
<feFlood flood-opacity="0" result="BackgroundImageFix"/>
<feColorMatrix in="SourceAlpha" type="matrix" values="0 0 0 0 0 0 0 0 0 0 0 0 0 0 0 0 0 0 127 0" result="hardAlpha"/>
<feOffset dy="2"/>
<feGaussianBlur stdDeviation="1"/>
<feComposite in2="hardAlpha" operator="out"/>
<feColorMatrix type="matrix" values="0 0 0 0 0 0 0 0 0 0 0 0 0 0 0 0 0 0 0.25 0"/>
<feBlend mode="normal" in2="BackgroundImageFix" result="effect1_dropShadow_109_1944"/>
<feBlend mode="normal" in="SourceGraphic" in2="effect1_dropShadow_109_1944" result="shape"/>
</filter>
</defs>
</svg>
