<svg width="173" height="173" viewBox="0 0 173 173" fill="none" xmlns="http://www.w3.org/2000/svg">
<g filter="url(#filter0_d_109_1882)">
<rect x="2" width="169" height="169" rx="16" fill="white"/>
</g>
<path d="M26.15 80.07C29.5465 80.07 32.3 76.8375 32.3 72.85C32.3 68.8625 29.5465 65.63 26.15 65.63C22.7534 65.63 20 68.8625 20 72.85C20 76.8375 22.7534 80.07 26.15 80.07Z" fill="#E2A701"/>
<path d="M65.42 108.22C87.9311 108.22 106.18 92.053 106.18 72.11C106.18 52.167 87.9311 36 65.42 36C42.9089 36 24.66 52.167 24.66 72.11C24.66 92.053 42.9089 108.22 65.42 108.22Z" fill="#FDC406"/>
<path opacity="0.37" d="M65.42 36C57.83 36 50.72 37.85 44.64 41.05C43.63 44.19 43.08 47.51 43.08 50.94C43.08 70.88 61.33 87.05 83.84 87.05C91.43 87.05 98.54 85.2 104.62 82C105.63 78.86 106.18 75.54 106.18 72.11C106.17 52.16 87.92 36 65.42 36Z" fill="white"/>
<path d="M70.9 97.63C48.39 97.63 30.14 81.46 30.14 61.52C30.14 58.2 30.66 54.98 31.61 51.92C27.22 57.68 24.66 64.62 24.66 72.1C24.66 92.04 42.91 108.21 65.42 108.21C84.18 108.21 99.96 96.98 104.71 81.7C97.38 91.31 84.98 97.63 70.9 97.63Z" fill="#E2A701"/>
<path d="M126.42 74.43C116.52 64.53 102.01 62.19 90.32 67.52L86.86 68.27L81.45 73.68C69.24 85.89 69.58 106.02 82.21 118.65C94.84 131.28 114.97 131.62 127.18 119.41L132.59 114L133.34 110.54C138.66 98.84 136.31 84.33 126.42 74.43Z" fill="#E2A701"/>
<path d="M132.583 114C143.447 103.135 142.016 84.09 129.387 71.4605C116.757 58.8311 97.712 57.4002 86.8478 68.2644C75.9835 79.1287 77.4144 98.1742 90.0439 110.804C102.673 123.433 121.719 124.864 132.583 114Z" fill="#FDC406"/>
<path d="M129.04 110.457C138.225 101.272 137.019 85.1736 126.346 74.5007C115.673 63.8277 99.5751 62.6216 90.3901 71.8066C81.205 80.9917 82.4112 97.0897 93.0841 107.763C103.757 118.436 119.855 119.642 129.04 110.457Z" fill="#F7EFF8"/>
<path d="M126.198 107.614C134.032 99.7804 133.003 86.0504 123.9 76.9473C114.797 67.8443 101.067 66.8154 93.2327 74.6493C85.3989 82.4831 86.4278 96.2131 95.5308 105.316C104.634 114.419 118.364 115.448 126.198 107.614Z" fill="#FDC406"/>
<path d="M93.24 74.65L129.05 110.46" stroke="#F7EFF8" stroke-width="1.749" stroke-miterlimit="10"/>
<path d="M95.73 107.96L126.55 77.15" stroke="#F7EFF8" stroke-width="1.749" stroke-miterlimit="10"/>
<path d="M112.91 116.11L109.37 69" stroke="#F7EFF8" stroke-width="1.749" stroke-miterlimit="10"/>
<path d="M87.59 90.79L134.69 94.32" stroke="#F7EFF8" stroke-width="1.749" stroke-miterlimit="10"/>
<path d="M82.2 118.65C87.15 123.6 93.25 126.65 99.57 127.81C82.21 116.72 75.42 100 72.88 90.65C71.37 100.43 74.49 110.94 82.2 118.65Z" fill="#C68E0B"/>
<defs>
<filter id="filter0_d_109_1882" x="0" y="0" width="173" height="173" filterUnits="userSpaceOnUse" color-interpolation-filters="sRGB">
<feFlood flood-opacity="0" result="BackgroundImageFix"/>
<feColorMatrix in="SourceAlpha" type="matrix" values="0 0 0 0 0 0 0 0 0 0 0 0 0 0 0 0 0 0 127 0" result="hardAlpha"/>
<feOffset dy="2"/>
<feGaussianBlur stdDeviation="1"/>
<feComposite in2="hardAlpha" operator="out"/>
<feColorMatrix type="matrix" values="0 0 0 0 0 0 0 0 0 0 0 0 0 0 0 0 0 0 0.25 0"/>
<feBlend mode="normal" in2="BackgroundImageFix" result="effect1_dropShadow_109_1882"/>
<feBlend mode="normal" in="SourceGraphic" in2="effect1_dropShadow_109_1882" result="shape"/>
</filter>
</defs>
</svg>
