<svg width="173" height="173" viewBox="0 0 173 173" fill="none" xmlns="http://www.w3.org/2000/svg">
<g filter="url(#filter0_d_109_2283)">
<rect x="2" width="169" height="169" rx="16" fill="white"/>
</g>
<path d="M70.46 69.46C70.46 69.46 60.78 60.63 67.51 49.19C70.97 56.61 70.97 56.61 70.97 56.61C70.97 56.61 72.97 48.81 82.13 44C77.69 53.89 78.96 63.14 78.96 63.14L70.46 69.46Z" fill="#7EAD2B"/>
<path d="M70.46 69.46C70.46 69.46 61.63 59.78 50.19 66.51C57.61 69.97 57.61 69.97 57.61 69.97C57.61 69.97 49.81 71.97 45 81.13C54.89 76.69 64.14 77.96 64.14 77.96L70.46 69.46Z" fill="#6F8D32"/>
<path opacity="0.76" d="M70.46 69.46L78.96 63.14C78.96 63.14 78.76 61.65 78.8 59.23C74.13 59.81 70.08 61.57 66.61 63.92C68.18 67.38 70.46 69.46 70.46 69.46Z" fill="#6F8D32"/>
<path opacity="0.76" d="M64.14 77.9601L70.46 69.4601C70.46 69.4601 68.22 67.0101 64.54 65.4301C59.63 69.3301 56.05 74.3401 53.66 78.4501C59.69 77.3501 64.14 77.9601 64.14 77.9601Z" fill="#6F8D32"/>
<path d="M68.74 67.7501C68.74 67.7501 37.54 90.4301 73.08 114.73C87.64 124.69 102.49 126.63 112.71 126.43C120.95 126.26 127.25 119.97 127.42 111.72C127.63 101.51 125.68 86.6501 115.72 72.0901C91.42 36.5401 68.74 67.7501 68.74 67.7501Z" fill="#D12023"/>
<path d="M84.02 106.62C57.27 92.31 68.74 67.75 68.74 67.75C68.74 67.75 37.54 90.43 73.08 114.73C87.64 124.69 102.49 126.63 112.71 126.43C120.45 126.27 126.47 120.71 127.32 113.21C117.79 115.78 102 116.24 84.02 106.62Z" fill="#BB1818"/>
<path opacity="0.25" d="M88.38 69.38C90.25 67.85 96.81 69.97 98.25 70.62C104.02 73.21 107.78 78.56 109.89 84.37C116.46 102.45 104.93 96.21 101.99 87.18C100.35 82.14 95.78 78.86 91.91 75.59C90.64 74.51 88.62 73.14 88.06 71.47C87.71 70.45 87.88 69.79 88.38 69.38Z" fill="white"/>
<path d="M111.96 109.28C112.428 108.812 112.327 107.951 111.733 107.357C111.14 106.763 110.279 106.662 109.81 107.131C109.341 107.599 109.443 108.46 110.036 109.054C110.63 109.648 111.491 109.749 111.96 109.28Z" fill="#A01916"/>
<path d="M102.85 106.09C103.44 106.68 103.55 107.55 103.08 108.02C102.61 108.49 101.75 108.39 101.15 107.79C100.56 107.2 100.45 106.33 100.92 105.86C101.4 105.4 102.26 105.5 102.85 106.09Z" fill="#A01916"/>
<path d="M93.96 104.84C94.55 105.43 94.66 106.3 94.19 106.77C93.72 107.24 92.86 107.14 92.26 106.54C91.67 105.95 91.56 105.08 92.03 104.61C92.5 104.14 93.37 104.24 93.96 104.84Z" fill="#A01916"/>
<path d="M84.84 101.65C85.43 102.24 85.54 103.11 85.07 103.58C84.6 104.05 83.74 103.95 83.14 103.35C82.55 102.76 82.44 101.89 82.91 101.42C83.39 100.96 84.25 101.06 84.84 101.65Z" fill="#A01916"/>
<path d="M78 94.8099C78.59 95.3999 78.7 96.2699 78.23 96.7399C77.76 97.2099 76.9 97.1099 76.3 96.5099C75.71 95.9199 75.6 95.0499 76.07 94.5799C76.54 94.1099 77.4 94.2099 78 94.8099Z" fill="#A01916"/>
<path d="M72.98 85.82C73.57 86.41 73.68 87.2799 73.21 87.7499C72.74 88.2199 71.88 88.1199 71.28 87.5199C70.69 86.9299 70.58 86.06 71.05 85.59C71.53 85.13 72.39 85.23 72.98 85.82Z" fill="#A01916"/>
<path d="M71.37 76.31C71.96 76.9 72.07 77.7699 71.6 78.2399C71.13 78.7099 70.27 78.6099 69.67 78.0099C69.08 77.4199 68.97 76.5499 69.44 76.0799C69.92 75.6199 70.78 75.72 71.37 76.31Z" fill="#A01916"/>
<path d="M77.1563 83.7946C77.625 83.326 77.5237 82.4649 76.9301 81.8713C76.3365 81.2777 75.4754 81.1764 75.0067 81.645C74.5381 82.1137 74.6395 82.9747 75.233 83.5683C75.8266 84.1619 76.6877 84.2632 77.1563 83.7946Z" fill="#A01916"/>
<path d="M83.93 88.87C84.52 89.46 84.63 90.33 84.16 90.8C83.69 91.27 82.83 91.17 82.23 90.57C81.64 89.98 81.53 89.11 82 88.64C82.48 88.18 83.34 88.28 83.93 88.87Z" fill="#A01916"/>
<path d="M92.7 95.95C93.29 96.54 93.4 97.41 92.93 97.88C92.46 98.35 91.6 98.25 91 97.65C90.41 97.06 90.3 96.1899 90.77 95.7199C91.24 95.2499 92.11 95.35 92.7 95.95Z" fill="#A01916"/>
<path d="M103.75 99.36C104.34 99.95 104.45 100.82 103.98 101.29C103.51 101.76 102.65 101.66 102.05 101.06C101.46 100.47 101.35 99.6 101.82 99.13C102.29 98.66 103.15 98.76 103.75 99.36Z" fill="#A01916"/>
<path d="M95.21 89.13C95.8 89.72 95.91 90.59 95.44 91.06C94.97 91.53 94.11 91.43 93.51 90.83C92.92 90.24 92.81 89.37 93.28 88.9C93.76 88.43 94.62 88.53 95.21 89.13Z" fill="#A01916"/>
<path d="M88.5916 84.212C89.0602 83.7433 88.9589 82.8823 88.3653 82.2887C87.7717 81.6951 86.9107 81.5937 86.442 82.0624C85.9734 82.531 86.0747 83.3921 86.6683 83.9857C87.2619 84.5793 88.123 84.6806 88.5916 84.212Z" fill="#A01916"/>
<path d="M78.19 73.8C78.78 74.39 78.89 75.26 78.42 75.73C77.95 76.2 77.09 76.1 76.49 75.5C75.9 74.91 75.79 74.04 76.26 73.57C76.73 73.1 77.6 73.21 78.19 73.8Z" fill="#A01916"/>
<path d="M117.45 101.64C118.04 102.23 118.15 103.1 117.68 103.57C117.21 104.04 116.35 103.94 115.75 103.34C115.16 102.75 115.05 101.88 115.52 101.41C116 100.95 116.86 101.05 117.45 101.64Z" fill="#A01916"/>
<path d="M120.08 93.1801C120.67 93.7701 120.78 94.64 120.31 95.11C119.84 95.58 118.98 95.4801 118.38 94.8801C117.79 94.2901 117.68 93.4201 118.15 92.9501C118.62 92.4801 119.48 92.5801 120.08 93.1801Z" fill="#A01916"/>
<path d="M117.63 83.32C118.22 83.91 118.33 84.7799 117.86 85.2499C117.39 85.7199 116.53 85.6199 115.93 85.0199C115.34 84.4299 115.23 83.56 115.7 83.09C116.17 82.63 117.03 82.73 117.63 83.32Z" fill="#A01916"/>
<path d="M113.16 73.34C113.75 73.93 113.86 74.8 113.39 75.27C112.92 75.74 112.06 75.64 111.46 75.04C110.87 74.45 110.76 73.58 111.23 73.11C111.7 72.64 112.56 72.74 113.16 73.34Z" fill="#A01916"/>
<path d="M105.23 65.4201C105.82 66.0101 105.93 66.88 105.46 67.35C104.99 67.82 104.13 67.7201 103.53 67.1201C102.94 66.5301 102.83 65.66 103.3 65.19C103.78 64.72 104.64 64.8201 105.23 65.4201Z" fill="#A01916"/>
<path d="M96.5537 62.2577C97.0223 61.7891 96.921 60.928 96.3275 60.3344C95.7339 59.7408 94.8728 59.6395 94.4041 60.1081C93.9355 60.5768 94.0368 61.4379 94.6304 62.0315C95.224 62.6251 96.0851 62.7264 96.5537 62.2577Z" fill="#A01916"/>
<path d="M87.06 58.47C87.65 59.06 87.76 59.93 87.29 60.4C86.82 60.87 85.96 60.77 85.36 60.17C84.77 59.58 84.66 58.71 85.13 58.24C85.61 57.77 86.47 57.87 87.06 58.47Z" fill="#A01916"/>
<path d="M122.35 108.23C122.94 108.82 123.05 109.69 122.58 110.16C122.11 110.63 121.25 110.53 120.65 109.93C120.06 109.34 119.95 108.47 120.42 108C120.89 107.54 121.75 107.64 122.35 108.23Z" fill="#A01916"/>
<path d="M117.39 118.93C117.98 119.52 118.09 120.39 117.62 120.86C117.15 121.33 116.29 121.23 115.69 120.63C115.1 120.04 114.99 119.17 115.46 118.7C115.93 118.24 116.79 118.34 117.39 118.93Z" fill="#841719"/>
<path d="M108.77 119.65C109.36 120.24 109.47 121.11 109 121.58C108.53 122.05 107.67 121.95 107.07 121.35C106.48 120.76 106.37 119.89 106.84 119.42C107.32 118.95 108.18 119.06 108.77 119.65Z" fill="#841719"/>
<path d="M100.29 118.8C100.88 119.39 100.99 120.26 100.52 120.73C100.05 121.2 99.19 121.1 98.59 120.5C98 119.91 97.89 119.04 98.36 118.57C98.84 118.11 99.7 118.21 100.29 118.8Z" fill="#841719"/>
<path d="M90.29 116.5C90.88 117.09 90.99 117.96 90.52 118.43C90.05 118.9 89.19 118.8 88.59 118.2C88 117.61 87.89 116.74 88.36 116.27C88.84 115.8 89.7 115.91 90.29 116.5Z" fill="#841719"/>
<path d="M80.6 110.2C81.19 110.79 81.3 111.66 80.83 112.13C80.36 112.6 79.5 112.5 78.9 111.9C78.31 111.31 78.2 110.44 78.67 109.97C79.14 109.51 80 109.61 80.6 110.2Z" fill="#841719"/>
<path d="M71.86 104.86C72.45 105.45 72.56 106.32 72.09 106.79C71.62 107.26 70.76 107.16 70.16 106.56C69.57 105.97 69.46 105.1 69.93 104.63C70.4 104.16 71.27 104.26 71.86 104.86Z" fill="#841719"/>
<path d="M63.98 96.98C64.57 97.57 64.68 98.4399 64.21 98.9099C63.74 99.3799 62.88 99.28 62.28 98.68C61.69 98.09 61.58 97.2199 62.05 96.7499C62.53 96.2799 63.39 96.39 63.98 96.98Z" fill="#841719"/>
<path d="M61.59 86.1C62.18 86.69 62.29 87.56 61.82 88.03C61.35 88.5 60.49 88.4 59.89 87.8C59.3 87.21 59.19 86.34 59.66 85.87C60.13 85.4 60.99 85.5 61.59 86.1Z" fill="#841719"/>
<path opacity="0.25" d="M81.68 69.98C83.1933 69.98 84.42 68.7533 84.42 67.24C84.42 65.7267 83.1933 64.5 81.68 64.5C80.1667 64.5 78.94 65.7267 78.94 67.24C78.94 68.7533 80.1667 69.98 81.68 69.98Z" fill="white"/>
<defs>
<filter id="filter0_d_109_2283" x="0" y="0" width="173" height="173" filterUnits="userSpaceOnUse" color-interpolation-filters="sRGB">
<feFlood flood-opacity="0" result="BackgroundImageFix"/>
<feColorMatrix in="SourceAlpha" type="matrix" values="0 0 0 0 0 0 0 0 0 0 0 0 0 0 0 0 0 0 127 0" result="hardAlpha"/>
<feOffset dy="2"/>
<feGaussianBlur stdDeviation="1"/>
<feComposite in2="hardAlpha" operator="out"/>
<feColorMatrix type="matrix" values="0 0 0 0 0 0 0 0 0 0 0 0 0 0 0 0 0 0 0.25 0"/>
<feBlend mode="normal" in2="BackgroundImageFix" result="effect1_dropShadow_109_2283"/>
<feBlend mode="normal" in="SourceGraphic" in2="effect1_dropShadow_109_2283" result="shape"/>
</filter>
</defs>
</svg>
