<svg width="173" height="173" viewBox="0 0 173 173" fill="none" xmlns="http://www.w3.org/2000/svg">
<g filter="url(#filter0_d_304_1147)">
<rect x="2" width="169" height="169" rx="16" fill="white"/>
</g>
<path d="M102.391 44.28C102.391 44.28 98.7009 35.46 94.8009 34.03C105.871 38.75 107.241 42.64 107.241 42.64C107.241 42.64 106.901 37.1 112.031 33C111.211 39.56 112.031 44.28 112.031 44.28L106.291 50.84L102.391 44.28Z" fill="#931823"/>
<path d="M112.391 59.39C112.391 59.39 110.271 42.98 119.191 37.03C110.691 40 109.391 44.25 109.391 44.25C109.391 44.25 102.201 37.45 91.5709 39.15C99.6409 43.4 102.191 59.38 102.191 59.38H112.391V59.39Z" fill="#CD202B"/>
<path d="M109.381 57.4301C109.381 57.4301 72.3809 43.8301 72.3809 82.9301C72.3809 128.83 109.381 121.6 109.381 121.6C109.381 121.6 146.381 128.82 146.381 82.9301C146.381 43.8301 109.381 57.4301 109.381 57.4301Z" fill="#CD202B"/>
<path d="M119.191 111.29C119.191 111.29 82.1909 118.51 82.1909 72.6201C82.1909 66.1801 83.2009 61.18 84.8809 57.3C78.0209 60.45 72.3909 67.6801 72.3909 82.9301C72.3909 128.83 109.391 121.6 109.391 121.6C109.391 121.6 130.921 125.8 141.141 107.42C130.891 113.58 119.191 111.29 119.191 111.29Z" fill="#99191A"/>
<path d="M104.291 56.0601C104.291 56.0601 103.551 47.9101 100.121 44.0601C104.241 47.4701 107.241 53.8101 107.301 56.7901C104.951 56.2001 104.291 56.0601 104.291 56.0601Z" fill="#931823"/>
<path opacity="0.15" d="M127.291 55.4299C120.641 60.2199 113.441 68.9899 119.191 82.8899C124.711 96.2399 136.151 98.3099 144.821 97.6799C145.821 93.4999 146.391 88.6299 146.391 82.9299C146.381 62.9599 136.731 56.7399 127.291 55.4299Z" fill="#F1DDBC"/>
<path opacity="0.15" d="M73.8109 71.21C86.1709 74.37 114.171 79.4 144.781 70.57C137.681 47.04 109.381 57.44 109.381 57.44C109.381 57.44 80.5909 46.86 73.8109 71.21Z" fill="#F1DDBC"/>
<path d="M56.291 58.33C56.291 58.33 50.5609 50.68 46.4309 50.24C58.3209 52.11 60.5909 55.56 60.5909 55.56C60.5909 55.56 58.9109 50.27 62.8809 45.04C63.6909 51.6 65.6309 55.98 65.6309 55.98L61.6609 63.75L56.291 58.33Z" fill="#931823"/>
<path d="M61.651 70.5501C61.651 70.5501 17.8109 67.5701 27.3609 105.48C38.5709 149.99 77.3209 132.78 77.3209 132.78C77.3209 132.78 119.601 129.58 108.391 85.0801C98.8409 47.1601 61.651 70.5501 61.651 70.5501Z" fill="#931823"/>
<path d="M69.6709 70.55C69.6709 70.55 63.6009 55.16 70.8009 47.21C63.2809 52.17 63.0609 56.61 63.0609 56.61C63.0609 56.61 54.421 51.77 44.541 56.02C53.411 58.17 59.7809 73.05 59.7809 73.05L69.6709 70.55Z" fill="#CD202B"/>
<path d="M66.2809 69.3901C66.2809 69.3901 27.0809 65.2401 36.6309 103.15C47.8409 147.66 81.9509 131.61 81.9509 131.61C81.9509 131.61 119.601 129.58 108.391 85.0701C98.8409 47.1601 66.2809 69.3901 66.2809 69.3901Z" fill="#CD202B"/>
<path d="M67.2509 73.22C67.2509 73.22 33.0509 69.6 41.3809 102.68C51.1609 141.51 80.9309 127.51 80.9309 127.51C80.9309 127.51 113.781 125.74 104.001 86.91C95.6609 53.83 67.2509 73.22 67.2509 73.22Z" fill="#F5D7BB"/>
<path d="M50.0209 86.2C50.4809 88.04 49.371 89.9 47.531 90.36C45.691 90.82 43.8309 89.71 43.3709 87.87C42.9109 86.03 44.0209 84.17 45.8609 83.71C47.6909 83.25 49.5609 84.37 50.0209 86.2Z" fill="#931823"/>
<path d="M48.2509 85.6599C48.4109 86.3099 48.0209 86.9699 47.3709 87.1299C46.7209 87.2899 46.061 86.8999 45.901 86.2499C45.741 85.5999 46.131 84.9399 46.781 84.7799C47.431 84.6199 48.0909 85.0199 48.2509 85.6599Z" fill="#F5D7BB"/>
<path d="M50.791 95.7599C51.251 97.5999 50.1409 99.4599 48.3009 99.9199C46.4609 100.38 44.6009 99.2699 44.1409 97.4299C43.6809 95.5899 44.7909 93.7299 46.6309 93.2699C48.4709 92.8099 50.331 93.9199 50.791 95.7599Z" fill="#931823"/>
<path d="M49.021 95.2198C49.181 95.8698 48.791 96.5298 48.141 96.6898C47.491 96.8498 46.8309 96.4598 46.6709 95.8098C46.5109 95.1598 46.9009 94.4998 47.5509 94.3398C48.2009 94.1798 48.861 94.5698 49.021 95.2198Z" fill="#F5D7BB"/>
<path d="M53.5609 106.77C54.0209 108.61 52.9109 110.47 51.0709 110.93C49.2309 111.39 47.371 110.28 46.911 108.44C46.451 106.6 47.561 104.74 49.401 104.28C51.241 103.82 53.1009 104.93 53.5609 106.77Z" fill="#931823"/>
<path d="M51.8009 106.23C51.9609 106.88 51.5709 107.54 50.9209 107.7C50.2709 107.86 49.611 107.47 49.451 106.82C49.291 106.17 49.681 105.51 50.331 105.35C50.971 105.18 51.6309 105.58 51.8009 106.23Z" fill="#F5D7BB"/>
<path d="M59.1209 114.79C59.5809 116.63 58.4709 118.49 56.6309 118.95C54.7909 119.41 52.931 118.3 52.471 116.46C52.011 114.62 53.1209 112.76 54.9609 112.3C56.8009 111.84 58.6609 112.96 59.1209 114.79Z" fill="#931823"/>
<path d="M57.3609 114.25C57.5209 114.9 57.1309 115.56 56.4809 115.72C55.8309 115.88 55.171 115.49 55.011 114.84C54.851 114.19 55.241 113.53 55.891 113.37C56.531 113.21 57.1909 113.61 57.3609 114.25Z" fill="#F5D7BB"/>
<path d="M66.3609 121.91C66.8209 123.75 65.7109 125.61 63.8709 126.07C62.0309 126.53 60.1709 125.42 59.7109 123.58C59.2509 121.74 60.3609 119.88 62.2009 119.42C64.0409 118.96 65.9009 120.08 66.3609 121.91Z" fill="#931823"/>
<path d="M64.591 121.37C64.751 122.02 64.361 122.68 63.711 122.84C63.061 123 62.4009 122.61 62.2409 121.96C62.0809 121.31 62.4709 120.65 63.1209 120.49C63.7709 120.33 64.431 120.72 64.591 121.37Z" fill="#F5D7BB"/>
<path d="M64.5509 118.16C66.4452 118.16 67.9809 116.624 67.9809 114.73C67.9809 112.836 66.4452 111.3 64.5509 111.3C62.6566 111.3 61.1209 112.836 61.1209 114.73C61.1209 116.624 62.6566 118.16 64.5509 118.16Z" fill="#931823"/>
<path d="M66.1109 113.35C66.2709 114 65.8809 114.66 65.2309 114.82C64.5809 114.98 63.921 114.59 63.761 113.94C63.601 113.29 63.991 112.63 64.641 112.47C65.291 112.31 65.9509 112.7 66.1109 113.35Z" fill="#F5D7BB"/>
<path d="M62.6909 104.73C63.1509 106.57 62.0409 108.43 60.2009 108.89C58.3609 109.35 56.501 108.24 56.041 106.4C55.581 104.56 56.691 102.7 58.531 102.24C60.361 101.78 62.2309 102.9 62.6909 104.73Z" fill="#931823"/>
<path d="M60.9209 104.19C61.0809 104.84 60.691 105.5 60.041 105.66C59.391 105.82 58.731 105.43 58.571 104.78C58.411 104.13 58.801 103.47 59.451 103.31C60.101 103.15 60.7609 103.55 60.9209 104.19Z" fill="#F5D7BB"/>
<path d="M59.3209 91.38C59.7809 93.22 58.6709 95.08 56.8309 95.54C54.9909 96 53.1309 94.89 52.6709 93.05C52.2109 91.21 53.321 89.35 55.161 88.89C57.001 88.43 58.8609 89.54 59.3209 91.38Z" fill="#931823"/>
<path d="M57.5609 90.84C57.7209 91.49 57.3309 92.1501 56.6809 92.3101C56.0309 92.4701 55.371 92.0801 55.211 91.4301C55.051 90.7801 55.441 90.1201 56.091 89.9601C56.731 89.7901 57.3909 90.19 57.5609 90.84Z" fill="#F5D7BB"/>
<path d="M60.031 80.1399C60.491 81.9799 59.381 83.8399 57.541 84.2999C55.701 84.7599 53.8409 83.6499 53.3809 81.8099C52.9209 79.9699 54.0309 78.1099 55.8709 77.6499C57.7109 77.1899 59.571 78.3099 60.031 80.1399Z" fill="#931823"/>
<path d="M58.261 79.5999C58.421 80.2499 58.0309 80.9099 57.3809 81.0699C56.7309 81.2299 56.071 80.8399 55.911 80.1899C55.751 79.5399 56.141 78.8799 56.791 78.7199C57.441 78.5599 58.101 78.9599 58.261 79.5999Z" fill="#F5D7BB"/>
<path d="M68.2309 89.1299C68.6909 90.9699 67.5809 92.8299 65.7409 93.2899C63.9009 93.7499 62.0409 92.6399 61.5809 90.7999C61.1209 88.9599 62.2309 87.0999 64.0709 86.6399C65.9009 86.1799 67.7709 87.2999 68.2309 89.1299Z" fill="#931823"/>
<path d="M66.461 88.5898C66.621 89.2398 66.231 89.8998 65.581 90.0598C64.931 90.2198 64.2709 89.8298 64.1109 89.1798C63.9509 88.5298 64.3409 87.8698 64.9909 87.7098C65.6409 87.5498 66.301 87.9498 66.461 88.5898Z" fill="#F5D7BB"/>
<path d="M72.2309 98.5299C72.6909 100.37 71.5809 102.23 69.7409 102.69C67.9009 103.15 66.0409 102.04 65.5809 100.2C65.1209 98.3599 66.2309 96.4999 68.0709 96.0399C69.9009 95.5799 71.7709 96.6899 72.2309 98.5299Z" fill="#931823"/>
<path d="M70.461 97.9898C70.621 98.6398 70.231 99.2998 69.581 99.4598C68.931 99.6198 68.2709 99.2298 68.1109 98.5798C67.9509 97.9298 68.3409 97.2698 68.9909 97.1098C69.6409 96.9498 70.301 97.3398 70.461 97.9898Z" fill="#F5D7BB"/>
<path d="M79.401 107.45C79.861 109.29 78.751 111.15 76.911 111.61C75.071 112.07 73.2109 110.96 72.7509 109.12C72.2909 107.28 73.4009 105.42 75.2409 104.96C77.0809 104.5 78.941 105.61 79.401 107.45Z" fill="#931823"/>
<path d="M77.6409 106.91C77.8009 107.56 77.4109 108.22 76.7609 108.38C76.1109 108.54 75.4509 108.15 75.2909 107.5C75.1309 106.85 75.5209 106.19 76.1709 106.03C76.8109 105.87 77.4709 106.26 77.6409 106.91Z" fill="#F5D7BB"/>
<path d="M80.1309 119.75C80.5909 121.59 79.4809 123.45 77.6409 123.91C75.8009 124.37 73.9409 123.26 73.4809 121.42C73.0209 119.58 74.131 117.72 75.971 117.26C77.811 116.79 79.6709 117.91 80.1309 119.75Z" fill="#931823"/>
<path d="M78.3609 119.21C78.5209 119.86 78.1309 120.52 77.4809 120.68C76.8309 120.84 76.171 120.45 76.011 119.8C75.851 119.15 76.241 118.49 76.891 118.33C77.541 118.16 78.2009 118.56 78.3609 119.21Z" fill="#F5D7BB"/>
<path d="M67.5809 111.57C69.4753 111.57 71.0109 110.034 71.0109 108.14C71.0109 106.246 69.4753 104.71 67.5809 104.71C65.6866 104.71 64.1509 106.246 64.1509 108.14C64.1509 110.034 65.6866 111.57 67.5809 111.57Z" fill="#CD202B"/>
<path d="M69.1309 106.77C69.2909 107.42 68.9009 108.08 68.2509 108.24C67.6009 108.4 66.941 108.01 66.781 107.36C66.621 106.71 67.011 106.05 67.661 105.89C68.311 105.72 68.9709 106.12 69.1309 106.77Z" fill="#F5D7BB"/>
<path d="M66.3809 97.7699C66.8409 99.6099 65.7309 101.47 63.8909 101.93C62.0509 102.39 60.1909 101.28 59.7309 99.4399C59.2709 97.5999 60.381 95.7399 62.221 95.2799C64.051 94.8199 65.9109 95.9299 66.3809 97.7699Z" fill="#CD202B"/>
<path d="M64.6109 97.23C64.7709 97.88 64.3809 98.5399 63.7309 98.6999C63.0809 98.8599 62.421 98.47 62.261 97.82C62.101 97.17 62.491 96.51 63.141 96.35C63.791 96.18 64.4409 96.58 64.6109 97.23Z" fill="#F5D7BB"/>
<path d="M58.6209 98.74C59.0809 100.58 57.9709 102.44 56.1309 102.9C54.2909 103.36 52.431 102.25 51.971 100.41C51.511 98.57 52.6209 96.71 54.4609 96.25C56.2909 95.78 58.1509 96.9 58.6209 98.74Z" fill="#CD202B"/>
<path d="M56.851 98.1999C57.011 98.8499 56.621 99.5099 55.971 99.6699C55.321 99.8299 54.6609 99.4399 54.5009 98.7899C54.3409 98.1399 54.7309 97.4799 55.3809 97.3199C56.0309 97.1499 56.691 97.5499 56.851 98.1999Z" fill="#F5D7BB"/>
<path d="M57.2409 85.6901C57.7009 87.5301 56.5909 89.3901 54.7509 89.8501C52.9109 90.3101 51.051 89.2001 50.591 87.3601C50.131 85.5201 51.2409 83.6601 53.0809 83.2001C54.9109 82.7401 56.7709 83.8501 57.2409 85.6901Z" fill="#CD202B"/>
<path d="M55.471 85.15C55.631 85.8 55.241 86.46 54.591 86.62C53.941 86.78 53.2809 86.39 53.1209 85.74C52.9609 85.09 53.3509 84.43 54.0009 84.27C54.6509 84.11 55.301 84.5 55.471 85.15Z" fill="#F5D7BB"/>
<path d="M63.3709 85.8401C63.8309 87.6801 62.7209 89.5401 60.8809 90.0001C59.0409 90.4601 57.181 89.3501 56.721 87.5101C56.261 85.6701 57.3709 83.8101 59.2109 83.3501C61.0409 82.8801 62.9109 84.0001 63.3709 85.8401Z" fill="#CD202B"/>
<path d="M61.601 85.3C61.761 85.95 61.371 86.61 60.721 86.77C60.071 86.93 59.4109 86.54 59.2509 85.89C59.0909 85.24 59.4809 84.58 60.1309 84.42C60.7809 84.25 61.441 84.65 61.601 85.3Z" fill="#F5D7BB"/>
<path d="M69.2009 95.35C69.6609 97.19 68.5509 99.05 66.7109 99.51C64.8709 99.97 63.0109 98.86 62.5509 97.02C62.0909 95.18 63.201 93.32 65.041 92.86C66.871 92.4 68.7409 93.51 69.2009 95.35Z" fill="#CD202B"/>
<path d="M67.4309 94.8099C67.5909 95.4599 67.2009 96.1199 66.5509 96.2799C65.9009 96.4399 65.241 96.0499 65.081 95.3999C64.921 94.7499 65.311 94.0899 65.961 93.9299C66.611 93.7699 67.2709 94.1599 67.4309 94.8099Z" fill="#F5D7BB"/>
<path d="M83.041 90.88C83.501 92.72 82.3909 94.58 80.5509 95.04C78.7109 95.5 76.8509 94.39 76.3909 92.55C75.9309 90.71 77.0409 88.85 78.8809 88.39C80.7109 87.93 82.581 89.04 83.041 90.88Z" fill="#CD202B"/>
<path d="M81.271 90.34C81.431 90.99 81.041 91.6501 80.391 91.8101C79.741 91.9701 79.0809 91.5801 78.9209 90.9301C78.7609 90.2801 79.1509 89.6201 79.8009 89.4601C80.4509 89.2901 81.111 89.69 81.271 90.34Z" fill="#F5D7BB"/>
<path d="M77.4709 84.2899C79.3653 84.2899 80.9009 82.7543 80.9009 80.8599C80.9009 78.9656 79.3653 77.4299 77.4709 77.4299C75.5766 77.4299 74.041 78.9656 74.041 80.8599C74.041 82.7543 75.5766 84.2899 77.4709 84.2899Z" fill="#CD202B"/>
<path d="M79.031 79.4798C79.191 80.1298 78.801 80.7898 78.151 80.9498C77.501 81.1098 76.8409 80.7198 76.6809 80.0698C76.5209 79.4198 76.9109 78.7598 77.5609 78.5998C78.2109 78.4398 78.871 78.8298 79.031 79.4798Z" fill="#F5D7BB"/>
<path d="M78.8709 73.4301C79.3309 75.2701 78.2209 77.1301 76.3809 77.5901C74.5409 78.0501 72.681 76.9401 72.221 75.1001C71.761 73.2601 72.8709 71.4001 74.7109 70.9401C76.5409 70.4801 78.4009 71.5901 78.8709 73.4301Z" fill="#CD202B"/>
<path d="M77.101 72.89C77.261 73.54 76.871 74.2 76.221 74.36C75.571 74.52 74.9109 74.13 74.7509 73.48C74.5909 72.83 74.9809 72.17 75.6309 72.01C76.2709 71.85 76.931 72.24 77.101 72.89Z" fill="#F5D7BB"/>
<path d="M81.7309 85.63C83.6252 85.63 85.1609 84.0943 85.1609 82.2C85.1609 80.3057 83.6252 78.77 81.7309 78.77C79.8366 78.77 78.3009 80.3057 78.3009 82.2C78.3009 84.0943 79.8366 85.63 81.7309 85.63Z" fill="#CD202B"/>
<path d="M83.291 80.8199C83.451 81.4699 83.061 82.1299 82.411 82.2899C81.761 82.4499 81.1009 82.0599 80.9409 81.4099C80.7809 80.7599 81.171 80.0999 81.821 79.9399C82.461 79.7799 83.121 80.1699 83.291 80.8199Z" fill="#F5D7BB"/>
<path d="M58.7309 78.24C59.1909 80.08 58.0809 81.94 56.2409 82.4C54.4009 82.86 52.5409 81.75 52.0809 79.91C51.6209 78.07 52.7309 76.21 54.5709 75.75C56.4009 75.28 58.2709 76.4 58.7309 78.24Z" fill="#CD202B"/>
<path d="M56.961 77.6999C57.121 78.3499 56.731 79.0099 56.081 79.1699C55.431 79.3299 54.7709 78.9399 54.6109 78.2899C54.4509 77.6399 54.8409 76.9799 55.4909 76.8199C56.1409 76.6499 56.801 77.0499 56.961 77.6999Z" fill="#F5D7BB"/>
<path d="M63.9509 93.7501C64.4109 95.5901 63.3009 97.4501 61.4609 97.9101C59.6209 98.3701 57.7609 97.2601 57.3009 95.4201C56.8409 93.5801 57.951 91.7201 59.791 91.2601C61.621 90.8001 63.4909 91.9101 63.9509 93.7501Z" fill="#CD202B"/>
<path d="M62.1809 93.2101C62.3409 93.8601 61.9509 94.5201 61.3009 94.6801C60.6509 94.8401 59.991 94.45 59.831 93.8C59.671 93.15 60.061 92.49 60.711 92.33C61.361 92.17 62.0209 92.5601 62.1809 93.2101Z" fill="#F5D7BB"/>
<path d="M55.661 94.5399C56.121 96.3799 55.0109 98.2399 53.1709 98.6999C51.3309 99.1599 49.4709 98.0499 49.0109 96.2099C48.5509 94.3699 49.6609 92.5099 51.5009 92.0499C53.3309 91.5899 55.191 92.6999 55.661 94.5399Z" fill="#CD202B"/>
<path d="M53.8909 94C54.0509 94.65 53.6609 95.31 53.0109 95.47C52.3609 95.63 51.7009 95.24 51.5409 94.59C51.3809 93.94 51.7709 93.28 52.4209 93.12C53.0609 92.95 53.7209 93.35 53.8909 94Z" fill="#F5D7BB"/>
<path d="M50.2309 101.11C50.6909 102.95 49.5809 104.81 47.7409 105.27C45.9009 105.73 44.0409 104.62 43.5809 102.78C43.1209 100.94 44.2309 99.08 46.0709 98.62C47.9109 98.16 49.7709 99.27 50.2309 101.11Z" fill="#CD202B"/>
<path d="M48.471 100.57C48.631 101.22 48.241 101.88 47.591 102.04C46.941 102.2 46.2809 101.81 46.1209 101.16C45.9609 100.51 46.3509 99.8499 47.0009 99.6899C47.6409 99.5299 48.301 99.9199 48.471 100.57Z" fill="#F5D7BB"/>
<path d="M72.791 100.74C73.251 102.58 72.1409 104.44 70.3009 104.9C68.4609 105.36 66.6009 104.25 66.1409 102.41C65.6809 100.57 66.7909 98.7101 68.6309 98.2501C70.4609 97.7901 72.321 98.9001 72.791 100.74Z" fill="#CD202B"/>
<path d="M71.021 100.2C71.181 100.85 70.791 101.51 70.141 101.67C69.491 101.83 68.8309 101.44 68.6709 100.79C68.5109 100.14 68.9009 99.48 69.5509 99.32C70.2009 99.16 70.851 99.55 71.021 100.2Z" fill="#F5D7BB"/>
<path d="M65.5209 104.29C65.9809 106.13 64.871 107.99 63.031 108.45C61.191 108.91 59.3309 107.8 58.8709 105.96C58.4109 104.12 59.5209 102.26 61.3609 101.8C63.1909 101.33 65.0609 102.45 65.5209 104.29Z" fill="#CD202B"/>
<path d="M63.7509 103.75C63.9109 104.4 63.5209 105.06 62.8709 105.22C62.2209 105.38 61.561 104.99 61.401 104.34C61.241 103.69 61.631 103.03 62.281 102.87C62.931 102.7 63.5909 103.1 63.7509 103.75Z" fill="#F5D7BB"/>
<path d="M53.791 89.5001C54.251 91.3401 53.1409 93.2001 51.3009 93.6601C49.4609 94.1201 47.6009 93.0101 47.1409 91.1701C46.6809 89.3301 47.7909 87.4701 49.6309 87.0101C51.4609 86.5501 53.331 87.6601 53.791 89.5001Z" fill="#CD202B"/>
<path d="M52.021 88.9601C52.181 89.6101 51.791 90.2701 51.141 90.4301C50.491 90.5901 49.8309 90.2 49.6709 89.55C49.5109 88.9 49.9009 88.24 50.5509 88.08C51.2009 87.92 51.861 88.3101 52.021 88.9601Z" fill="#F5D7BB"/>
<path d="M58.4509 109.51C58.9109 111.35 57.8009 113.21 55.9609 113.67C54.1209 114.13 52.2609 113.02 51.8009 111.18C51.3409 109.34 52.451 107.48 54.291 107.02C56.121 106.56 57.9809 107.67 58.4509 109.51Z" fill="#CD202B"/>
<path d="M56.6809 108.97C56.8409 109.62 56.4509 110.28 55.8009 110.44C55.1509 110.6 54.491 110.21 54.331 109.56C54.171 108.91 54.561 108.25 55.211 108.09C55.861 107.92 56.5109 108.32 56.6809 108.97Z" fill="#F5D7BB"/>
<path d="M67.6809 119.34C68.1409 121.18 67.0309 123.04 65.1909 123.5C63.3509 123.96 61.491 122.85 61.031 121.01C60.571 119.17 61.6809 117.31 63.5209 116.85C65.3509 116.39 67.2109 117.51 67.6809 119.34Z" fill="#CD202B"/>
<path d="M65.911 118.8C66.071 119.45 65.681 120.11 65.031 120.27C64.381 120.43 63.7209 120.04 63.5609 119.39C63.4009 118.74 63.7909 118.08 64.4409 117.92C65.0909 117.76 65.741 118.16 65.911 118.8Z" fill="#F5D7BB"/>
<path d="M63.8009 115.18C64.2609 117.02 63.1509 118.88 61.3109 119.34C59.4709 119.8 57.611 118.69 57.151 116.85C56.691 115.01 57.8009 113.15 59.6409 112.69C61.4709 112.23 63.3309 113.35 63.8009 115.18Z" fill="#CD202B"/>
<path d="M62.031 114.64C62.191 115.29 61.801 115.95 61.151 116.11C60.501 116.27 59.8409 115.88 59.6809 115.23C59.5209 114.58 59.9109 113.92 60.5609 113.76C61.2109 113.6 61.861 114 62.031 114.64Z" fill="#F5D7BB"/>
<path d="M79.8709 126.78C81.7652 126.78 83.3009 125.244 83.3009 123.35C83.3009 121.456 81.7652 119.92 79.8709 119.92C77.9766 119.92 76.4409 121.456 76.4409 123.35C76.4409 125.244 77.9766 126.78 79.8709 126.78Z" fill="#CD202B"/>
<path d="M81.4309 121.97C81.5909 122.62 81.2009 123.28 80.5509 123.44C79.9009 123.6 79.241 123.21 79.081 122.56C78.921 121.91 79.311 121.25 79.961 121.09C80.611 120.93 81.2709 121.32 81.4309 121.97Z" fill="#F5D7BB"/>
<path d="M63.4609 110.16C63.9209 112 62.811 113.86 60.971 114.32C59.131 114.78 57.2709 113.67 56.8109 111.83C56.3509 109.99 57.4609 108.13 59.3009 107.67C61.1309 107.21 63.0009 108.33 63.4609 110.16Z" fill="#CD202B"/>
<path d="M61.6909 109.62C61.8509 110.27 61.4609 110.93 60.8109 111.09C60.1609 111.25 59.501 110.86 59.341 110.21C59.181 109.56 59.571 108.9 60.221 108.74C60.871 108.58 61.5309 108.98 61.6909 109.62Z" fill="#F5D7BB"/>
<path d="M73.401 119.16C73.861 121 72.751 122.86 70.911 123.32C69.071 123.78 67.2109 122.67 66.7509 120.83C66.2909 118.99 67.4009 117.13 69.2409 116.67C71.0709 116.2 72.931 117.32 73.401 119.16Z" fill="#CD202B"/>
<path d="M71.6309 118.62C71.7909 119.27 71.4009 119.93 70.7509 120.09C70.1009 120.25 69.441 119.86 69.281 119.21C69.121 118.56 69.511 117.9 70.161 117.74C70.801 117.57 71.4609 117.97 71.6309 118.62Z" fill="#F5D7BB"/>
<path d="M76.1409 117.48C78.0353 117.48 79.5709 115.944 79.5709 114.05C79.5709 112.156 78.0353 110.62 76.1409 110.62C74.2466 110.62 72.7109 112.156 72.7109 114.05C72.7109 115.944 74.2466 117.48 76.1409 117.48Z" fill="#CD202B"/>
<path d="M77.7009 112.67C77.8609 113.32 77.4709 113.98 76.8209 114.14C76.1709 114.3 75.5109 113.91 75.3509 113.26C75.1909 112.61 75.5809 111.95 76.2309 111.79C76.8809 111.63 77.5309 112.02 77.7009 112.67Z" fill="#F5D7BB"/>
<path d="M53.5109 80.8001C53.9709 82.6401 52.8609 84.5001 51.0209 84.9601C49.1809 85.4201 47.3209 84.3101 46.8609 82.4701C46.4009 80.6301 47.511 78.7701 49.351 78.3101C51.181 77.8501 53.0409 78.9701 53.5109 80.8001Z" fill="#CD202B"/>
<path d="M51.7409 80.2601C51.9009 80.9101 51.5109 81.5701 50.8609 81.7301C50.2109 81.8901 49.551 81.5001 49.391 80.8501C49.231 80.2001 49.621 79.5401 50.271 79.3801C50.911 79.2201 51.5709 79.6101 51.7409 80.2601Z" fill="#F5D7BB"/>
<path d="M48.8709 90.47C49.3309 92.31 48.2209 94.17 46.3809 94.63C44.5409 95.09 42.681 93.98 42.221 92.14C41.761 90.3 42.8709 88.44 44.7109 87.98C46.5409 87.52 48.4009 88.64 48.8709 90.47Z" fill="#CD202B"/>
<path d="M47.101 89.93C47.261 90.58 46.871 91.24 46.221 91.4C45.571 91.56 44.9109 91.17 44.7509 90.52C44.5909 89.87 44.9809 89.21 45.6309 89.05C46.2709 88.89 46.931 89.28 47.101 89.93Z" fill="#F5D7BB"/>
<path d="M55.031 112.6C55.491 114.44 54.381 116.3 52.541 116.76C50.701 117.22 48.8409 116.11 48.3809 114.27C47.9209 112.43 49.0309 110.57 50.8709 110.11C52.7109 109.65 54.571 110.77 55.031 112.6Z" fill="#CD202B"/>
<path d="M53.271 112.06C53.431 112.71 53.041 113.37 52.391 113.53C51.741 113.69 51.0809 113.3 50.9209 112.65C50.7609 112 51.1509 111.34 51.8009 111.18C52.4509 111.02 53.101 111.41 53.271 112.06Z" fill="#F5D7BB"/>
<path d="M71.8209 112.9C72.2809 114.74 71.1709 116.6 69.3309 117.06C67.4909 117.52 65.6309 116.41 65.1709 114.57C64.7109 112.73 65.821 110.87 67.661 110.41C69.491 109.95 71.3609 111.06 71.8209 112.9Z" fill="#CD202B"/>
<path d="M70.0509 112.36C70.2109 113.01 69.8209 113.67 69.1709 113.83C68.5209 113.99 67.861 113.6 67.701 112.95C67.541 112.3 67.931 111.64 68.581 111.48C69.231 111.32 69.8909 111.71 70.0509 112.36Z" fill="#F5D7BB"/>
<path d="M75.031 124.57C75.491 126.41 74.381 128.27 72.541 128.73C70.701 129.19 68.8409 128.08 68.3809 126.24C67.9209 124.4 69.0309 122.54 70.8709 122.08C72.7009 121.62 74.571 122.73 75.031 124.57Z" fill="#CD202B"/>
<path d="M73.261 124.03C73.421 124.68 73.0309 125.34 72.3809 125.5C71.7309 125.66 71.071 125.27 70.911 124.62C70.751 123.97 71.141 123.31 71.791 123.15C72.441 122.99 73.101 123.38 73.261 124.03Z" fill="#F5D7BB"/>
<path d="M61.3309 120.94C61.7909 122.78 60.681 124.64 58.841 125.1C57.001 125.56 55.1409 124.45 54.6809 122.61C54.2209 120.77 55.3309 118.91 57.1709 118.45C59.0009 117.99 60.8609 119.11 61.3309 120.94Z" fill="#CD202B"/>
<path d="M59.5609 120.4C59.7209 121.05 59.3309 121.71 58.6809 121.87C58.0309 122.03 57.371 121.64 57.211 120.99C57.051 120.34 57.441 119.68 58.091 119.52C58.741 119.36 59.4009 119.75 59.5609 120.4Z" fill="#F5D7BB"/>
<path d="M73.651 119.09C74.111 120.93 73.001 122.79 71.161 123.25C69.321 123.71 67.4609 122.6 67.0009 120.76C66.5409 118.92 67.6509 117.06 69.4909 116.6C71.3209 116.14 73.191 117.25 73.651 119.09Z" fill="#931823"/>
<path d="M71.8809 118.55C72.0409 119.2 71.6509 119.86 71.0009 120.02C70.3509 120.18 69.691 119.79 69.531 119.14C69.371 118.49 69.761 117.83 70.411 117.67C71.061 117.51 71.7209 117.9 71.8809 118.55Z" fill="#F5D7BB"/>
<path d="M59.5909 101.74C61.4853 101.74 63.0209 100.204 63.0209 98.3101C63.0209 96.4158 61.4853 94.8801 59.5909 94.8801C57.6966 94.8801 56.1609 96.4158 56.1609 98.3101C56.1609 100.204 57.6966 101.74 59.5909 101.74Z" fill="#931823"/>
<path d="M61.151 96.93C61.311 97.58 60.921 98.24 60.271 98.4C59.621 98.56 58.9609 98.17 58.8009 97.52C58.6409 96.87 59.0309 96.21 59.6809 96.05C60.3309 95.89 60.991 96.28 61.151 96.93Z" fill="#F5D7BB"/>
<path d="M58.1909 104.62C58.6509 106.46 57.5409 108.32 55.7009 108.78C53.8609 109.24 52.001 108.13 51.541 106.29C51.081 104.45 52.191 102.59 54.031 102.13C55.871 101.66 57.7309 102.78 58.1909 104.62Z" fill="#931823"/>
<path d="M56.4209 104.08C56.5809 104.73 56.191 105.39 55.541 105.55C54.891 105.71 54.231 105.32 54.071 104.67C53.911 104.02 54.301 103.36 54.951 103.2C55.601 103.03 56.2609 103.43 56.4209 104.08Z" fill="#F5D7BB"/>
<path d="M74.9309 103.74C75.3909 105.58 74.2809 107.44 72.4409 107.9C70.6009 108.36 68.741 107.25 68.281 105.41C67.821 103.57 68.9309 101.71 70.7709 101.25C72.6009 100.79 74.4709 101.9 74.9309 103.74Z" fill="#931823"/>
<path d="M73.161 103.2C73.321 103.85 72.931 104.51 72.281 104.67C71.631 104.83 70.9709 104.44 70.8109 103.79C70.6509 103.14 71.0409 102.48 71.6909 102.32C72.3409 102.15 73.001 102.55 73.161 103.2Z" fill="#F5D7BB"/>
<path d="M67.3309 128.95C69.2253 128.95 70.7609 127.414 70.7609 125.52C70.7609 123.626 69.2253 122.09 67.3309 122.09C65.4366 122.09 63.9009 123.626 63.9009 125.52C63.9009 127.414 65.4366 128.95 67.3309 128.95Z" fill="#931823"/>
<path d="M68.8909 124.15C69.0509 124.8 68.6609 125.46 68.0109 125.62C67.3609 125.78 66.7009 125.39 66.5409 124.74C66.3809 124.09 66.7709 123.43 67.4209 123.27C68.0609 123.1 68.7209 123.5 68.8909 124.15Z" fill="#F5D7BB"/>
<path d="M56.161 116.84C56.621 118.68 55.5109 120.54 53.6709 121C51.8309 121.46 49.9709 120.35 49.5109 118.51C49.0509 116.67 50.1609 114.81 52.0009 114.35C53.8309 113.89 55.701 115.01 56.161 116.84Z" fill="#931823"/>
<path d="M54.3909 116.3C54.5509 116.95 54.1609 117.61 53.5109 117.77C52.8609 117.93 52.2009 117.54 52.0409 116.89C51.8809 116.24 52.2709 115.58 52.9209 115.42C53.5709 115.26 54.2309 115.65 54.3909 116.3Z" fill="#F5D7BB"/>
<path d="M88.5709 76.5C89.0309 78.34 90.9009 79.45 92.7309 78.99C94.5709 78.53 95.681 76.66 95.221 74.83C94.761 72.99 92.8909 71.88 91.0609 72.34C89.2209 72.79 88.1109 74.66 88.5709 76.5Z" fill="#931823"/>
<path d="M89.8709 75.1799C90.0309 75.8299 90.691 76.2199 91.341 76.0599C91.991 75.8999 92.381 75.2399 92.221 74.5899C92.061 73.9399 91.4009 73.5499 90.7509 73.7099C90.1009 73.8699 89.7109 74.5299 89.8709 75.1799Z" fill="#F5D7BB"/>
<path d="M92.411 85.28C92.871 87.12 94.7409 88.23 96.5709 87.77C98.4109 87.31 99.5209 85.44 99.0609 83.61C98.6009 81.77 96.731 80.66 94.901 81.12C93.061 81.58 91.951 83.44 92.411 85.28Z" fill="#931823"/>
<path d="M93.7209 83.97C93.8809 84.62 94.5409 85.01 95.1909 84.85C95.8409 84.69 96.2309 84.03 96.0709 83.38C95.9109 82.73 95.2509 82.34 94.6009 82.5C93.9509 82.66 93.5509 83.32 93.7209 83.97Z" fill="#F5D7BB"/>
<path d="M95.1809 96.29C95.6409 98.13 97.5109 99.24 99.3409 98.78C101.171 98.32 102.291 96.45 101.831 94.62C101.371 92.78 99.5009 91.67 97.6709 92.13C95.8409 92.58 94.7209 94.45 95.1809 96.29Z" fill="#931823"/>
<path d="M96.4909 94.97C96.6509 95.62 97.3109 96.01 97.9609 95.85C98.6109 95.69 99.0009 95.03 98.8409 94.38C98.6809 93.73 98.0209 93.34 97.3709 93.5C96.7209 93.66 96.3209 94.32 96.4909 94.97Z" fill="#F5D7BB"/>
<path d="M94.091 105.99C94.551 107.83 96.4209 108.94 98.2509 108.48C100.091 108.02 101.201 106.15 100.741 104.32C100.281 102.48 98.4109 101.37 96.5809 101.83C94.7409 102.29 93.631 104.15 94.091 105.99Z" fill="#931823"/>
<path d="M95.391 104.68C95.551 105.33 96.2109 105.72 96.8609 105.56C97.5109 105.4 97.9009 104.74 97.7409 104.09C97.5809 103.44 96.921 103.05 96.271 103.21C95.621 103.37 95.231 104.03 95.391 104.68Z" fill="#F5D7BB"/>
<path d="M91.091 115.68C91.551 117.52 93.4209 118.63 95.2509 118.17C97.0909 117.71 98.2009 115.84 97.7409 114.01C97.2809 112.17 95.4109 111.06 93.5809 111.52C91.7409 111.98 90.631 113.85 91.091 115.68Z" fill="#931823"/>
<path d="M92.391 114.37C92.551 115.02 93.2109 115.41 93.8609 115.25C94.5109 115.09 94.9009 114.43 94.7409 113.78C94.5809 113.13 93.921 112.74 93.271 112.9C92.621 113.06 92.231 113.72 92.391 114.37Z" fill="#F5D7BB"/>
<path d="M89.2809 111.93C91.1753 111.93 92.7109 110.394 92.7109 108.5C92.7109 106.606 91.1753 105.07 89.2809 105.07C87.3866 105.07 85.851 106.606 85.851 108.5C85.851 110.394 87.3866 111.93 89.2809 111.93Z" fill="#931823"/>
<path d="M87.2609 108.03C87.4209 108.68 88.0809 109.07 88.7309 108.91C89.3809 108.75 89.7709 108.09 89.6109 107.44C89.4509 106.79 88.7909 106.4 88.1409 106.56C87.4909 106.72 87.0909 107.38 87.2609 108.03Z" fill="#F5D7BB"/>
<path d="M86.1909 98.82C86.6509 100.66 88.521 101.77 90.351 101.31C92.191 100.85 93.301 98.9801 92.841 97.15C92.381 95.31 90.5109 94.2 88.6809 94.66C86.8409 95.11 85.7209 96.98 86.1909 98.82Z" fill="#931823"/>
<path d="M87.4909 97.5C87.6509 98.15 88.311 98.54 88.961 98.38C89.611 98.22 90.001 97.56 89.841 96.91C89.681 96.26 89.0209 95.87 88.3709 96.03C87.7209 96.19 87.3309 96.85 87.4909 97.5Z" fill="#F5D7BB"/>
<path d="M82.8209 85.4599C83.2809 87.2999 85.1509 88.4099 86.9809 87.9499C88.8209 87.4899 89.931 85.6199 89.471 83.7899C89.011 81.9499 87.1409 80.8399 85.3109 81.2999C83.4709 81.7599 82.3609 83.6199 82.8209 85.4599Z" fill="#931823"/>
<path d="M84.1209 84.1499C84.2809 84.7999 84.941 85.1899 85.591 85.0299C86.241 84.8699 86.631 84.2099 86.471 83.5599C86.311 82.9099 85.6509 82.5199 85.0009 82.6799C84.3509 82.8399 83.9609 83.4999 84.1209 84.1499Z" fill="#F5D7BB"/>
<path d="M80.2009 78.4901C82.0953 78.4901 83.6309 76.9545 83.6309 75.0601C83.6309 73.1658 82.0953 71.6301 80.2009 71.6301C78.3066 71.6301 76.7709 73.1658 76.7709 75.0601C76.7709 76.9545 78.3066 78.4901 80.2009 78.4901Z" fill="#931823"/>
<path d="M78.1809 74.5901C78.3409 75.2401 79.001 75.6301 79.651 75.4701C80.301 75.3101 80.691 74.6501 80.531 74.0001C80.371 73.3501 79.7109 72.9601 79.0609 73.1201C78.4109 73.2801 78.0209 73.9401 78.1809 74.5901Z" fill="#F5D7BB"/>
<path d="M77.2409 90.2999C79.1352 90.2999 80.6709 88.7643 80.6709 86.8699C80.6709 84.9756 79.1352 83.4399 77.2409 83.4399C75.3466 83.4399 73.8109 84.9756 73.8109 86.8699C73.8109 88.7643 75.3466 90.2999 77.2409 90.2999Z" fill="#931823"/>
<path d="M75.2209 86.3899C75.3809 87.0399 76.0409 87.4299 76.6909 87.2699C77.3409 87.1099 77.7309 86.4499 77.5709 85.7999C77.4109 85.1499 76.7509 84.7599 76.1009 84.9199C75.4509 85.0799 75.0509 85.7399 75.2209 86.3899Z" fill="#F5D7BB"/>
<path d="M74.8409 97.8701C75.3009 99.7101 77.1709 100.82 79.0009 100.36C80.8409 99.9001 81.9509 98.0301 81.4909 96.2001C81.0309 94.3601 79.1609 93.2501 77.3309 93.7101C75.5009 94.1701 74.3809 96.0301 74.8409 97.8701Z" fill="#931823"/>
<path d="M76.1509 96.5601C76.3109 97.2101 76.9709 97.6001 77.6209 97.4401C78.2709 97.2801 78.6609 96.6201 78.5009 95.9701C78.3409 95.3201 77.6809 94.9301 77.0309 95.0901C76.3809 95.2501 75.9809 95.9101 76.1509 96.5601Z" fill="#F5D7BB"/>
<path d="M72.7509 109.13C73.2109 110.97 75.081 112.08 76.911 111.62C78.751 111.16 79.861 109.29 79.401 107.46C78.941 105.62 77.0709 104.51 75.2409 104.97C73.4009 105.43 72.2909 107.29 72.7509 109.13Z" fill="#931823"/>
<path d="M74.0509 107.81C74.2109 108.46 74.871 108.85 75.521 108.69C76.171 108.53 76.561 107.87 76.401 107.22C76.241 106.57 75.5809 106.18 74.9309 106.34C74.2809 106.51 73.8909 107.16 74.0509 107.81Z" fill="#F5D7BB"/>
<path d="M77.9309 120.3C78.3909 122.14 80.261 123.25 82.091 122.79C83.931 122.33 85.0409 120.46 84.5809 118.63C84.1209 116.79 82.2509 115.68 80.4209 116.14C78.5809 116.6 77.4709 118.46 77.9309 120.3Z" fill="#931823"/>
<path d="M79.2309 118.99C79.3909 119.64 80.0509 120.03 80.7009 119.87C81.3509 119.71 81.7409 119.05 81.5809 118.4C81.4209 117.75 80.7609 117.36 80.1109 117.52C79.4709 117.68 79.0709 118.34 79.2309 118.99Z" fill="#F5D7BB"/>
<path d="M83.5009 107.56C85.3953 107.56 86.9309 106.024 86.9309 104.13C86.9309 102.236 85.3953 100.7 83.5009 100.7C81.6066 100.7 80.0709 102.236 80.0709 104.13C80.0709 106.024 81.6066 107.56 83.5009 107.56Z" fill="#CD202B"/>
<path d="M81.471 103.66C81.631 104.31 82.2909 104.7 82.9409 104.54C83.5909 104.38 83.981 103.72 83.821 103.07C83.661 102.42 83.001 102.03 82.351 102.19C81.701 102.35 81.311 103.01 81.471 103.66Z" fill="#F5D7BB"/>
<path d="M79.6409 94.4299C80.1009 96.2699 81.9709 97.3799 83.8009 96.9199C85.6409 96.4599 86.751 94.5899 86.291 92.7599C85.831 90.9199 83.9609 89.8099 82.1309 90.2699C80.2909 90.7299 79.1809 92.5899 79.6409 94.4299Z" fill="#CD202B"/>
<path d="M80.9409 93.1099C81.1009 93.7599 81.761 94.1499 82.411 93.9899C83.061 93.8299 83.451 93.1699 83.291 92.5199C83.131 91.8699 82.471 91.4799 81.821 91.6399C81.171 91.8099 80.7809 92.4599 80.9409 93.1099Z" fill="#F5D7BB"/>
<path d="M86.9309 91.6101C87.3909 93.4501 89.261 94.5601 91.091 94.1001C92.931 93.6401 94.0409 91.7701 93.5809 89.9401C93.1209 88.1001 91.2509 86.9901 89.4209 87.4501C87.5809 87.9001 86.4709 89.7701 86.9309 91.6101Z" fill="#CD202B"/>
<path d="M88.2309 90.29C88.3909 90.94 89.051 91.33 89.701 91.17C90.351 91.01 90.741 90.35 90.581 89.7C90.421 89.05 89.7609 88.66 89.1109 88.82C88.4609 88.98 88.0709 89.64 88.2309 90.29Z" fill="#F5D7BB"/>
<path d="M81.971 79.4599C82.431 81.2999 84.3009 82.4099 86.1309 81.9499C87.9709 81.4899 89.0809 79.6199 88.6209 77.7899C88.1609 75.9499 86.291 74.8399 84.461 75.2999C82.621 75.7599 81.501 77.6199 81.971 79.4599Z" fill="#CD202B"/>
<path d="M83.271 78.1499C83.431 78.7999 84.0909 79.1899 84.7409 79.0299C85.3909 78.8699 85.7809 78.2099 85.6209 77.5599C85.4609 76.9099 84.801 76.5199 84.151 76.6799C83.501 76.8399 83.111 77.4999 83.271 78.1499Z" fill="#F5D7BB"/>
<path d="M83.2009 92.33C85.0953 92.33 86.6309 90.7943 86.6309 88.9C86.6309 87.0056 85.0953 85.47 83.2009 85.47C81.3066 85.47 79.7709 87.0056 79.7709 88.9C79.7709 90.7943 81.3066 92.33 83.2009 92.33Z" fill="#CD202B"/>
<path d="M81.1709 88.4299C81.3309 89.0799 81.991 89.4699 82.641 89.3099C83.291 89.1499 83.681 88.4899 83.521 87.8399C83.361 87.1899 82.7009 86.7999 82.0509 86.9599C81.4009 87.1199 81.0109 87.7799 81.1709 88.4299Z" fill="#F5D7BB"/>
<path d="M87.5509 86.5C88.0109 88.34 89.8809 89.45 91.7109 88.99C93.5509 88.53 94.6609 86.66 94.2009 84.83C93.7409 82.99 91.871 81.88 90.041 82.34C88.201 82.8 87.0909 84.67 87.5509 86.5Z" fill="#CD202B"/>
<path d="M88.8509 85.1899C89.0109 85.8399 89.6709 86.2299 90.3209 86.0699C90.9709 85.9099 91.3609 85.2499 91.2009 84.5999C91.0409 83.9499 90.3809 83.5599 89.7309 83.7199C89.0809 83.8799 88.6909 84.5399 88.8509 85.1899Z" fill="#F5D7BB"/>
<path d="M98.7709 92.32C100.665 92.32 102.201 90.7843 102.201 88.89C102.201 86.9956 100.665 85.46 98.7709 85.46C96.8766 85.46 95.3409 86.9956 95.3409 88.89C95.3409 90.7843 96.8766 92.32 98.7709 92.32Z" fill="#CD202B"/>
<path d="M96.7409 88.4099C96.9009 89.0599 97.561 89.4499 98.211 89.2899C98.861 89.1299 99.251 88.4699 99.091 87.8199C98.931 87.1699 98.2709 86.7799 97.6209 86.9399C96.9709 87.1099 96.5809 87.7599 96.7409 88.4099Z" fill="#F5D7BB"/>
<path d="M75.401 100.08C75.861 101.92 77.7309 103.03 79.5609 102.57C81.4009 102.11 82.5109 100.24 82.0509 98.4101C81.5909 96.5701 79.7209 95.4601 77.8909 95.9201C76.0509 96.3801 74.941 98.2401 75.401 100.08Z" fill="#CD202B"/>
<path d="M76.701 98.77C76.861 99.42 77.5209 99.81 78.1709 99.65C78.8209 99.49 79.2109 98.83 79.0509 98.18C78.8909 97.53 78.231 97.14 77.581 97.3C76.931 97.46 76.541 98.12 76.701 98.77Z" fill="#F5D7BB"/>
<path d="M83.4809 99.76C83.9409 101.6 85.8109 102.71 87.6409 102.25C89.4809 101.79 90.5909 99.92 90.1309 98.09C89.6709 96.25 87.801 95.14 85.971 95.6C84.131 96.06 83.0209 97.93 83.4809 99.76Z" fill="#CD202B"/>
<path d="M84.781 98.4499C84.941 99.0999 85.6009 99.4899 86.2509 99.3299C86.9009 99.1699 87.2909 98.5099 87.1309 97.8599C86.9709 97.2099 86.311 96.8199 85.661 96.9799C85.011 97.1399 84.621 97.7999 84.781 98.4499Z" fill="#F5D7BB"/>
<path d="M86.8109 81.1799C87.2709 83.0199 89.141 84.1299 90.971 83.6699C92.811 83.2099 93.921 81.3399 93.461 79.5099C93.001 77.6699 91.1309 76.5599 89.3009 77.0199C87.4609 77.4799 86.3409 79.3499 86.8109 81.1799Z" fill="#CD202B"/>
<path d="M88.1109 79.8699C88.2709 80.5199 88.9309 80.9099 89.5809 80.7499C90.2309 80.5899 90.6209 79.9299 90.4609 79.2799C90.3009 78.6299 89.6409 78.2399 88.9909 78.3999C88.3409 78.5599 87.9409 79.2199 88.1109 79.8699Z" fill="#F5D7BB"/>
<path d="M92.1809 101.01C92.6409 102.85 94.511 103.96 96.341 103.5C98.181 103.04 99.2909 101.17 98.8309 99.34C98.3709 97.5 96.5009 96.39 94.6709 96.85C92.8309 97.31 91.7209 99.17 92.1809 101.01Z" fill="#CD202B"/>
<path d="M93.4809 99.6999C93.6409 100.35 94.301 100.74 94.951 100.58C95.601 100.42 95.991 99.7599 95.831 99.1099C95.671 98.4599 95.0109 98.0699 94.3609 98.2299C93.7109 98.3899 93.3209 99.0499 93.4809 99.6999Z" fill="#F5D7BB"/>
<path d="M88.7109 114.05C89.1709 115.89 91.0409 117 92.8709 116.54C94.7109 116.08 95.8209 114.21 95.3609 112.38C94.9009 110.54 93.0309 109.43 91.2009 109.89C89.3609 110.35 88.2509 112.21 88.7109 114.05Z" fill="#CD202B"/>
<path d="M90.011 112.73C90.171 113.38 90.8309 113.77 91.4809 113.61C92.1309 113.45 92.5209 112.79 92.3609 112.14C92.2009 111.49 91.541 111.1 90.891 111.26C90.241 111.43 89.851 112.08 90.011 112.73Z" fill="#F5D7BB"/>
<path d="M93.4909 111.14C95.3852 111.14 96.9209 109.604 96.9209 107.71C96.9209 105.816 95.3852 104.28 93.4909 104.28C91.5966 104.28 90.0609 105.816 90.0609 107.71C90.0609 109.604 91.5966 111.14 93.4909 111.14Z" fill="#CD202B"/>
<path d="M91.461 107.23C91.621 107.88 92.2809 108.27 92.9309 108.11C93.5809 107.95 93.9709 107.29 93.8109 106.64C93.6509 105.99 92.991 105.6 92.341 105.76C91.691 105.92 91.301 106.58 91.461 107.23Z" fill="#F5D7BB"/>
<path d="M88.0809 103.96C88.5409 105.8 90.4109 106.91 92.2409 106.45C94.0809 105.99 95.1909 104.12 94.7309 102.29C94.2709 100.45 92.4009 99.3399 90.5709 99.7999C88.7309 100.26 87.6209 102.13 88.0809 103.96Z" fill="#CD202B"/>
<path d="M89.3809 102.65C89.5409 103.3 90.201 103.69 90.851 103.53C91.501 103.37 91.8909 102.71 91.7309 102.06C91.5709 101.41 90.911 101.02 90.261 101.18C89.611 101.34 89.2209 102 89.3809 102.65Z" fill="#F5D7BB"/>
<path d="M83.591 116.59C84.051 118.43 85.9209 119.54 87.7509 119.08C89.5909 118.62 90.7009 116.75 90.2409 114.92C89.7809 113.08 87.9109 111.97 86.0809 112.43C84.2409 112.89 83.121 114.75 83.591 116.59Z" fill="#CD202B"/>
<path d="M84.8909 115.28C85.0509 115.93 85.7109 116.32 86.3609 116.16C87.0109 116 87.4009 115.34 87.2409 114.69C87.0809 114.04 86.4209 113.65 85.7709 113.81C85.1209 113.97 84.7209 114.63 84.8909 115.28Z" fill="#F5D7BB"/>
<path d="M75.4309 114.23C75.8909 116.07 77.761 117.18 79.591 116.72C81.431 116.26 82.5409 114.39 82.0809 112.56C81.6209 110.72 79.7509 109.61 77.9209 110.07C76.0809 110.53 74.9609 112.39 75.4309 114.23Z" fill="#CD202B"/>
<path d="M76.7309 112.91C76.8909 113.56 77.5509 113.95 78.2009 113.79C78.8509 113.63 79.2409 112.97 79.0809 112.32C78.9209 111.67 78.2609 111.28 77.6109 111.44C76.9609 111.61 76.5609 112.26 76.7309 112.91Z" fill="#F5D7BB"/>
<path d="M86.2709 75.9801C88.1653 75.9801 89.7009 74.4444 89.7009 72.5501C89.7009 70.6558 88.1653 69.1201 86.2709 69.1201C84.3766 69.1201 82.8409 70.6558 82.8409 72.5501C82.8409 74.4444 84.3766 75.9801 86.2709 75.9801Z" fill="#CD202B"/>
<path d="M84.2409 72.0801C84.4009 72.7301 85.061 73.1201 85.711 72.9601C86.361 72.8001 86.751 72.1401 86.591 71.4901C86.431 70.8401 85.7709 70.4501 85.1209 70.6101C84.4709 70.7701 84.0809 71.4301 84.2409 72.0801Z" fill="#F5D7BB"/>
<path d="M91.6109 79.7099C92.0709 81.5499 93.9409 82.6599 95.7709 82.1999C97.6109 81.7399 98.7209 79.8699 98.2609 78.0399C97.8009 76.1999 95.931 75.0899 94.101 75.5499C92.261 76.0099 91.1409 77.8699 91.6109 79.7099Z" fill="#CD202B"/>
<path d="M92.9109 78.3999C93.0709 79.0499 93.7309 79.4399 94.3809 79.2799C95.0309 79.1199 95.4209 78.4599 95.2609 77.8099C95.1009 77.1599 94.4409 76.7699 93.7909 76.9299C93.1409 77.0899 92.7409 77.7499 92.9109 78.3999Z" fill="#F5D7BB"/>
<path d="M96.6509 102.12C97.1109 103.96 98.9809 105.07 100.811 104.61C102.651 104.15 103.761 102.28 103.301 100.45C102.841 98.6101 100.971 97.5001 99.1409 97.9601C97.3109 98.4201 96.1909 100.28 96.6509 102.12Z" fill="#CD202B"/>
<path d="M97.9609 100.81C98.1209 101.46 98.7809 101.85 99.4309 101.69C100.081 101.53 100.471 100.87 100.311 100.22C100.151 99.5701 99.4909 99.1801 98.8409 99.3401C98.1909 99.5001 97.7909 100.16 97.9609 100.81Z" fill="#F5D7BB"/>
<path d="M82.0109 110.33C82.4709 112.17 84.3409 113.28 86.1709 112.82C88.0109 112.36 89.121 110.49 88.661 108.66C88.201 106.82 86.3309 105.71 84.5009 106.17C82.6609 106.63 81.5509 108.5 82.0109 110.33Z" fill="#CD202B"/>
<path d="M83.3109 109.02C83.4709 109.67 84.131 110.06 84.781 109.9C85.431 109.74 85.821 109.08 85.661 108.43C85.501 107.78 84.8409 107.39 84.1909 107.55C83.5409 107.71 83.1509 108.37 83.3109 109.02Z" fill="#F5D7BB"/>
<path d="M84.7109 122.13C85.1709 123.97 87.0409 125.08 88.8709 124.62C90.7109 124.16 91.8209 122.29 91.3609 120.46C90.9009 118.63 89.0309 117.51 87.2009 117.97C85.3609 118.43 84.2509 120.29 84.7109 122.13Z" fill="#CD202B"/>
<path d="M86.011 120.82C86.171 121.47 86.8309 121.86 87.4809 121.7C88.1309 121.54 88.5209 120.88 88.3609 120.23C88.2009 119.58 87.541 119.19 86.891 119.35C86.241 119.51 85.851 120.17 86.011 120.82Z" fill="#F5D7BB"/>
<path d="M98.3909 115.04C100.285 115.04 101.821 113.504 101.821 111.61C101.821 109.716 100.285 108.18 98.3909 108.18C96.4966 108.18 94.9609 109.716 94.9609 111.61C94.9609 113.504 96.4966 115.04 98.3909 115.04Z" fill="#CD202B"/>
<path d="M96.3609 111.13C96.5209 111.78 97.181 112.17 97.831 112.01C98.481 111.85 98.871 111.19 98.711 110.54C98.551 109.89 97.8909 109.5 97.2409 109.66C96.5909 109.83 96.2009 110.49 96.3609 111.13Z" fill="#F5D7BB"/>
<path d="M86.6609 119.25C88.5553 119.25 90.0909 117.714 90.0909 115.82C90.0909 113.926 88.5553 112.39 86.6609 112.39C84.7666 112.39 83.2309 113.926 83.2309 115.82C83.2309 117.714 84.7666 119.25 86.6609 119.25Z" fill="#931823"/>
<path d="M84.6309 115.34C84.7909 115.99 85.451 116.38 86.101 116.22C86.751 116.06 87.1409 115.4 86.9809 114.75C86.8209 114.1 86.161 113.71 85.511 113.87C84.861 114.03 84.4709 114.69 84.6309 115.34Z" fill="#F5D7BB"/>
<path d="M82.541 92.53C83.001 94.37 84.8709 95.48 86.7009 95.02C88.5409 94.56 89.6509 92.69 89.1909 90.86C88.7309 89.02 86.861 87.91 85.031 88.37C83.191 88.83 82.081 90.69 82.541 92.53Z" fill="#931823"/>
<path d="M83.841 91.22C84.001 91.87 84.6609 92.26 85.3109 92.1C85.9609 91.94 86.3509 91.28 86.1909 90.63C86.0309 89.98 85.371 89.59 84.721 89.75C84.071 89.91 83.681 90.57 83.841 91.22Z" fill="#F5D7BB"/>
<path d="M93.4209 99.1801C95.3152 99.1801 96.851 97.6444 96.851 95.7501C96.851 93.8557 95.3152 92.3201 93.4209 92.3201C91.5266 92.3201 89.9909 93.8557 89.9909 95.7501C89.9909 97.6444 91.5266 99.1801 93.4209 99.1801Z" fill="#931823"/>
<path d="M91.391 95.27C91.551 95.92 92.2109 96.31 92.8609 96.15C93.5109 95.99 93.9009 95.33 93.7409 94.68C93.5809 94.03 92.921 93.64 92.271 93.8C91.621 93.96 91.231 94.62 91.391 95.27Z" fill="#F5D7BB"/>
<path d="M74.9309 103.74C75.3909 105.58 77.261 106.69 79.091 106.23C80.931 105.77 82.0409 103.9 81.5809 102.07C81.1209 100.23 79.2509 99.12 77.4209 99.58C75.5809 100.04 74.4709 101.9 74.9309 103.74Z" fill="#931823"/>
<path d="M76.2309 102.42C76.3909 103.07 77.051 103.46 77.701 103.3C78.351 103.14 78.741 102.48 78.581 101.83C78.421 101.18 77.7609 100.79 77.1109 100.95C76.4609 101.12 76.0709 101.78 76.2309 102.42Z" fill="#F5D7BB"/>
<path d="M91.9509 122.75C93.8453 122.75 95.3809 121.214 95.3809 119.32C95.3809 117.426 93.8453 115.89 91.9509 115.89C90.0566 115.89 88.5209 117.426 88.5209 119.32C88.5209 121.214 90.0566 122.75 91.9509 122.75Z" fill="#931823"/>
<path d="M89.9209 118.85C90.0809 119.5 90.741 119.89 91.391 119.73C92.041 119.57 92.431 118.91 92.271 118.26C92.111 117.61 91.4509 117.22 90.8009 117.38C90.1509 117.54 89.7609 118.2 89.9209 118.85Z" fill="#F5D7BB"/>
<path d="M101.001 108.98C102.895 108.98 104.431 107.444 104.431 105.55C104.431 103.656 102.895 102.12 101.001 102.12C99.1066 102.12 97.5709 103.656 97.5709 105.55C97.5709 107.444 99.1066 108.98 101.001 108.98Z" fill="#931823"/>
<path d="M98.971 105.08C99.131 105.73 99.7909 106.12 100.441 105.96C101.091 105.8 101.481 105.14 101.321 104.49C101.161 103.84 100.501 103.45 99.851 103.61C99.201 103.77 98.811 104.43 98.971 105.08Z" fill="#F5D7BB"/>
<path d="M61.0109 69.2999C61.0109 69.2999 58.3009 61.5799 54.0309 58.6799C58.8609 60.9799 63.321 66.3899 64.101 69.2699C61.681 69.2699 61.0109 69.2999 61.0109 69.2999Z" fill="#931823"/>
<defs>
<filter id="filter0_d_304_1147" x="0" y="0" width="173" height="173" filterUnits="userSpaceOnUse" color-interpolation-filters="sRGB">
<feFlood flood-opacity="0" result="BackgroundImageFix"/>
<feColorMatrix in="SourceAlpha" type="matrix" values="0 0 0 0 0 0 0 0 0 0 0 0 0 0 0 0 0 0 127 0" result="hardAlpha"/>
<feOffset dy="2"/>
<feGaussianBlur stdDeviation="1"/>
<feComposite in2="hardAlpha" operator="out"/>
<feColorMatrix type="matrix" values="0 0 0 0 0 0 0 0 0 0 0 0 0 0 0 0 0 0 0.25 0"/>
<feBlend mode="normal" in2="BackgroundImageFix" result="effect1_dropShadow_304_1147"/>
<feBlend mode="normal" in="SourceGraphic" in2="effect1_dropShadow_304_1147" result="shape"/>
</filter>
</defs>
</svg>
