<svg width="173" height="173" viewBox="0 0 173 173" fill="none" xmlns="http://www.w3.org/2000/svg">
<g filter="url(#filter0_d_304_1171)">
<rect x="2" width="169" height="169" rx="16" fill="white"/>
</g>
<path d="M96.0587 79.34C96.0587 79.34 82.6987 43.3 126.699 32C118.859 48.63 130.729 67.53 111.969 78.19C93.2087 88.84 96.0587 79.34 96.0587 79.34Z" fill="#6F8D32"/>
<path opacity="0.29" d="M96.0587 79.34C96.0587 79.34 94.5687 84.35 100.929 83.01C96.4287 49.32 126.699 32 126.699 32C82.6987 43.3 96.0587 79.34 96.0587 79.34Z" fill="#6F8D32"/>
<path d="M113.489 43.27C113.489 43.27 97.3087 58.57 100.929 83.01C103.809 82.62 103.809 82.62 103.809 82.62C103.809 82.62 101.099 54.33 113.489 43.27Z" fill="#AECC4F"/>
<path opacity="0.65" d="M122.539 64.5701C111.879 68.7301 100.449 67.6601 94.1687 66.5301C94.0387 73.8701 96.0687 79.3401 96.0687 79.3401C96.0687 79.3401 96.0687 79.3501 96.0587 79.3601C96.0587 79.3701 96.0587 79.3701 96.0487 79.3801C96.0487 79.3901 96.0387 79.4001 96.0387 79.4201C96.0387 79.4301 96.0287 79.4501 96.0287 79.4601C96.0287 79.4801 96.0187 79.4901 96.0187 79.5101C96.0087 79.5401 95.9987 79.5801 95.9987 79.6201C95.9987 79.6401 95.9887 79.6501 95.9887 79.6701C95.9787 79.7001 95.9787 79.7401 95.9687 79.7701C95.9687 79.7801 95.9687 79.8001 95.9587 79.8101C95.9387 79.9401 95.9187 80.0901 95.9087 80.2501C95.9087 80.2601 95.9087 80.2701 95.9087 80.2701C95.8387 81.5801 96.3087 83.7301 100.299 83.1101C100.339 83.1001 100.369 83.1001 100.409 83.0901C100.579 83.0601 100.749 83.0301 100.929 82.9901C103.809 82.6001 103.809 82.6001 103.809 82.6001C103.809 82.6001 103.789 82.4401 103.769 82.1401C105.899 81.3601 108.579 80.0901 111.969 78.1601C118.479 74.4901 121.299 69.8101 122.539 64.5701Z" fill="#6F8D32"/>
<path d="M96.0587 70.1402C96.0587 70.1402 82.3187 41.8402 50.7187 61.4402C64.9887 66.2202 69.4387 83.9402 86.3587 78.8902C103.289 73.8402 96.0587 70.1402 96.0587 70.1402Z" fill="#6F8D32"/>
<path opacity="0.29" d="M96.0587 70.1401C96.0587 70.1401 99.8687 72.0901 95.4687 75.1001C78.0987 53.3601 50.7187 61.4501 50.7187 61.4501C82.3187 41.8301 96.0587 70.1401 96.0587 70.1401Z" fill="#6F8D32"/>
<path d="M64.8687 60.0101C64.8687 60.0101 83.0787 59.1101 95.4687 75.0901C93.6087 76.5701 93.6087 76.5701 93.6087 76.5701C93.6087 76.5701 78.4287 58.9501 64.8687 60.0101Z" fill="#AECC4F"/>
<path opacity="0.65" d="M72.3387 77.42C80.8387 73.48 86.6787 66.11 89.5587 61.75C93.9687 65.83 96.0587 70.13 96.0587 70.13C96.0587 70.13 96.0687 70.13 96.0687 70.14C96.0687 70.14 96.0787 70.14 96.0887 70.15C96.0987 70.15 96.1087 70.16 96.1187 70.16C96.1287 70.17 96.1387 70.17 96.1487 70.18C96.1587 70.19 96.1787 70.19 96.1887 70.2C96.2087 70.21 96.2387 70.23 96.2687 70.25C96.2787 70.26 96.2887 70.27 96.3087 70.27C96.3287 70.28 96.3487 70.3 96.3787 70.32C96.3887 70.33 96.3987 70.33 96.4087 70.34C96.4987 70.4 96.5887 70.48 96.6987 70.56C96.7087 70.56 96.7087 70.57 96.7087 70.57C97.5287 71.27 98.5287 72.77 95.8987 74.77C95.8787 74.79 95.8487 74.81 95.8287 74.82C95.7187 74.9 95.5987 74.99 95.4787 75.07C93.6187 76.55 93.6187 76.55 93.6187 76.55C93.6187 76.55 93.5287 76.45 93.3687 76.27C91.6987 77.08 89.4387 77.95 86.3687 78.87C80.4987 80.64 76.1387 79.65 72.3387 77.42Z" fill="#6F8D32"/>
<path d="M85.8193 91.2408C86.8257 81.268 80.3142 72.444 71.2755 71.5318C62.2367 70.6197 54.0935 77.9648 53.0871 87.9377C52.0807 97.9105 58.5922 106.735 67.6309 107.647C76.6697 108.559 84.8129 101.214 85.8193 91.2408Z" fill="#D12023"/>
<path d="M72.9687 76.91C63.9287 76 55.7887 83.34 54.7787 93.32C54.5987 95.07 54.6587 96.78 54.9187 98.42C53.4087 95.34 52.7087 91.72 53.0887 87.93C54.0987 77.96 62.2387 70.61 71.2787 71.52C78.7287 72.27 84.4587 78.41 85.6787 86.13C83.2087 81.08 78.5787 77.47 72.9687 76.91Z" fill="#CE4A49"/>
<path d="M67.6387 107.63C64.1487 107.28 61.0387 105.74 58.5987 103.42C58.5887 102.63 58.6087 101.84 58.6887 101.03C59.6987 91.0599 67.8387 83.7099 76.8787 84.6199C80.3687 84.9699 83.4787 86.5099 85.9187 88.8299C85.9287 89.6199 85.9087 90.4099 85.8287 91.2199C84.8187 101.2 76.6787 108.54 67.6387 107.63Z" fill="#BB1818"/>
<path d="M75.0487 102.69C75.2287 100.88 72.3187 99.1 68.5387 98.72C64.7587 98.34 61.5487 99.5 61.3587 101.31C61.1787 103.12 64.0887 104.9 67.8687 105.28C71.6587 105.66 74.8687 104.5 75.0487 102.69Z" fill="#7B1713"/>
<path d="M88.3887 105.51C97.0087 110.62 107.759 108.42 112.389 100.61C117.019 92.7901 113.779 82.3201 105.159 77.2101C96.5387 72.1001 85.7887 74.3001 81.1587 82.1101C76.5287 89.9301 79.7687 100.4 88.3887 105.51Z" fill="#D12023"/>
<path d="M106.789 99.8802C111.419 92.0602 108.179 81.5902 99.5587 76.4802C98.0487 75.5802 96.4687 74.9202 94.8687 74.4602C98.2987 74.3902 101.879 75.2702 105.149 77.2102C113.769 82.3202 117.009 92.8002 112.379 100.61C108.559 107.05 100.589 109.67 93.0687 107.53C98.6987 107.41 103.919 104.73 106.789 99.8802Z" fill="#CE4A49"/>
<path d="M81.1587 82.1102C82.9487 79.0902 85.6487 76.9202 88.7787 75.6702C89.4987 75.9902 90.2087 76.3502 90.9087 76.7602C99.5287 81.8702 102.769 92.3502 98.1387 100.16C96.3487 103.18 93.6487 105.35 90.5187 106.6C89.7987 106.28 89.0887 105.92 88.3887 105.51C79.7687 100.4 76.5287 89.9302 81.1587 82.1102Z" fill="#BB1818"/>
<path d="M88.8805 86.6704C90.8173 83.4011 91.1199 80 89.5566 79.0739C87.9932 78.1478 85.1558 80.0472 83.2191 83.3165C81.2824 86.5858 80.9797 89.9869 82.5431 90.913C84.1065 91.8391 86.9438 89.9396 88.8805 86.6704Z" fill="#7B1713"/>
<path d="M63.8263 97.2706C65.2194 88.4328 58.4456 80.0226 48.6967 78.4859C38.9477 76.9492 29.9154 82.868 28.5223 91.7059C27.1293 100.544 33.9031 108.954 43.652 110.491C53.4009 112.027 62.4333 106.108 63.8263 97.2706Z" fill="#D12023"/>
<path d="M33.9187 90.3399C32.5287 99.1799 39.2987 107.59 49.0487 109.12C50.7587 109.39 52.4487 109.43 54.0687 109.26C50.9487 110.58 47.3587 111.07 43.6587 110.49C33.9087 108.95 27.1387 100.54 28.5287 91.7099C29.6787 84.4199 36.0187 79.1299 43.6787 78.3499C38.5887 80.4999 34.7787 84.8599 33.9187 90.3399Z" fill="#BB1818"/>
<path d="M63.8387 97.28C63.2987 100.69 61.6187 103.66 59.2087 105.94C58.4387 105.91 57.6487 105.84 56.8687 105.72C47.1187 104.18 40.3487 95.77 41.7387 86.94C42.2787 83.53 43.9587 80.56 46.3687 78.28C47.1387 78.31 47.9287 78.38 48.7087 78.5C58.4587 80.03 65.2287 88.44 63.8387 97.28Z" fill="#CE4A49"/>
<path d="M59.3787 89.7099C57.6087 89.4299 55.6987 92.1999 55.1187 95.8999C54.5387 99.5999 55.4987 102.82 57.2687 103.1C59.0387 103.38 60.9487 100.61 61.5287 96.9099C62.1187 93.2199 61.1487 89.9899 59.3787 89.7099Z" fill="#BB1818"/>
<path d="M143.398 97.2638C144.791 88.4259 138.017 80.0157 128.268 78.479C118.519 76.9424 109.487 82.8612 108.094 91.6991C106.701 100.537 113.475 108.947 123.224 110.484C132.973 112.02 142.005 106.102 143.398 97.2638Z" fill="#D12023"/>
<path d="M113.489 90.3401C112.099 99.1801 118.869 107.59 128.619 109.12C130.329 109.39 132.019 109.43 133.639 109.26C130.519 110.58 126.929 111.07 123.229 110.49C113.479 108.95 106.709 100.54 108.099 91.7101C109.249 84.4201 115.589 79.1301 123.249 78.3501C118.159 80.5001 114.359 84.8601 113.489 90.3401Z" fill="#BB1818"/>
<path d="M143.409 97.28C142.869 100.69 141.189 103.66 138.779 105.94C138.009 105.91 137.219 105.84 136.439 105.72C126.689 104.18 119.919 95.77 121.309 86.94C121.849 83.53 123.529 80.56 125.939 78.28C126.709 78.31 127.499 78.38 128.279 78.5C138.029 80.03 144.799 88.44 143.409 97.28Z" fill="#CE4A49"/>
<path d="M138.959 89.7099C137.189 89.4299 135.279 92.1999 134.699 95.8999C134.119 99.5999 135.079 102.82 136.849 103.1C138.619 103.38 140.529 100.61 141.109 96.9099C141.689 93.2199 140.729 89.9899 138.959 89.7099Z" fill="#BB1818"/>
<path d="M88.0752 121.568C93.4941 112.421 89.705 100.159 79.612 94.1796C69.5191 88.2006 56.9443 90.769 51.5254 99.9163C46.1065 109.064 49.8956 121.326 59.9886 127.305C70.0815 133.284 82.6563 130.716 88.0752 121.568Z" fill="#D12023"/>
<path d="M81.5087 120.71C86.9287 111.56 83.1387 99.3 73.0487 93.32C71.2787 92.27 69.4287 91.49 67.5587 90.96C71.5787 90.87 75.7687 91.91 79.5987 94.18C89.6887 100.16 93.4787 112.42 88.0587 121.57C83.5887 129.11 74.2587 132.18 65.4587 129.67C72.0287 129.53 78.1487 126.39 81.5087 120.71Z" fill="#CE4A49"/>
<path d="M51.5087 99.9199C53.5987 96.3899 56.7587 93.8399 60.4287 92.3899C61.2687 92.7599 62.1087 93.1799 62.9187 93.6699C73.0087 99.6499 76.7987 111.91 71.3787 121.06C69.2887 124.59 66.1287 127.14 62.4587 128.59C61.6187 128.22 60.7787 127.8 59.9687 127.31C49.8787 121.33 46.0887 109.06 51.5087 99.9199Z" fill="#BB1818"/>
<path d="M53.1087 110.22C54.9387 111.31 58.2687 109.08 60.5287 105.26C62.7987 101.43 63.1487 97.4498 61.3187 96.3698C59.4887 95.2798 56.1587 97.5098 53.8987 101.33C51.6287 105.15 51.2787 109.14 53.1087 110.22Z" fill="#7B1713"/>
<path d="M128.335 117.744C131.85 107.71 125.724 96.4324 114.653 92.5543C103.582 88.6762 91.7576 93.6665 88.2429 103.701C84.7281 113.734 90.8538 125.012 101.925 128.891C112.996 132.769 124.821 127.778 128.335 117.744Z" fill="#D12023"/>
<path d="M94.8287 103.27C91.3087 113.3 97.4387 124.58 108.509 128.46C110.449 129.14 112.419 129.54 114.349 129.7C110.429 130.57 106.119 130.38 101.909 128.91C90.8387 125.03 84.7087 113.75 88.2287 103.72C91.1287 95.45 99.6787 90.6099 108.799 91.3399C102.399 92.7599 97.0187 97.0499 94.8287 103.27Z" fill="#BB1818"/>
<path d="M128.339 117.77C126.979 121.64 124.389 124.76 121.069 126.91C120.169 126.71 119.269 126.46 118.379 126.15C107.309 122.27 101.179 110.99 104.699 100.96C106.059 97.0901 108.649 93.9701 111.969 91.8201C112.869 92.0201 113.769 92.2701 114.659 92.5801C125.729 96.4501 131.849 107.73 128.339 117.77Z" fill="#CE4A49"/>
<path d="M124.749 107.97C122.739 107.27 119.919 110.1 118.449 114.29C116.979 118.49 117.419 122.46 119.429 123.16C121.439 123.86 124.259 121.03 125.729 116.83C127.189 112.65 126.759 108.68 124.749 107.97Z" fill="#BB1818"/>
<defs>
<filter id="filter0_d_304_1171" x="0" y="0" width="173" height="173" filterUnits="userSpaceOnUse" color-interpolation-filters="sRGB">
<feFlood flood-opacity="0" result="BackgroundImageFix"/>
<feColorMatrix in="SourceAlpha" type="matrix" values="0 0 0 0 0 0 0 0 0 0 0 0 0 0 0 0 0 0 127 0" result="hardAlpha"/>
<feOffset dy="2"/>
<feGaussianBlur stdDeviation="1"/>
<feComposite in2="hardAlpha" operator="out"/>
<feColorMatrix type="matrix" values="0 0 0 0 0 0 0 0 0 0 0 0 0 0 0 0 0 0 0.25 0"/>
<feBlend mode="normal" in2="BackgroundImageFix" result="effect1_dropShadow_304_1171"/>
<feBlend mode="normal" in="SourceGraphic" in2="effect1_dropShadow_304_1171" result="shape"/>
</filter>
</defs>
</svg>
