<svg width="173" height="173" viewBox="0 0 173 173" fill="none" xmlns="http://www.w3.org/2000/svg">
<g filter="url(#filter0_d_109_2157)">
<rect x="2" width="169" height="169" rx="16" fill="white"/>
</g>
<path d="M87.0106 77.15C87.0106 77.15 77.9107 37.91 125.151 32C114.791 48.25 124.621 69.47 103.701 78.06C82.7906 86.65 87.0106 77.15 87.0106 77.15Z" fill="#6F8D32"/>
<path opacity="0.29" d="M87.0107 77.15C87.0107 77.15 84.7907 82.16 91.5907 81.61C91.3907 45.99 125.161 32 125.161 32C77.9107 37.91 87.0107 77.15 87.0107 77.15Z" fill="#6F8D32"/>
<path d="M109.921 41.97C109.921 41.97 91.0707 55.73 91.5907 81.61C94.6307 81.59 94.6307 81.59 94.6307 81.59C94.6307 81.59 95.5707 51.82 109.921 41.97Z" fill="#AECC4F"/>
<path opacity="0.65" d="M116.501 65.31C104.861 68.22 93.1206 65.59 86.7406 63.58C85.6306 71.2 87.0106 77.15 87.0106 77.15C87.0106 77.15 87.0107 77.16 87.0007 77.17C87.0007 77.18 87.0006 77.18 86.9906 77.19C86.9906 77.2 86.9806 77.21 86.9806 77.23C86.9706 77.24 86.9706 77.26 86.9606 77.27C86.9506 77.29 86.9507 77.31 86.9407 77.32C86.9307 77.35 86.9107 77.39 86.9007 77.43C86.8907 77.45 86.8907 77.46 86.8807 77.48C86.8707 77.51 86.8607 77.55 86.8507 77.58C86.8507 77.59 86.8407 77.61 86.8407 77.62C86.8007 77.75 86.7706 77.9 86.7306 78.07C86.7306 78.08 86.7306 78.09 86.7306 78.09C86.4806 79.45 86.6906 81.74 90.9206 81.62C90.9606 81.62 91.0006 81.62 91.0406 81.62C91.2206 81.61 91.4007 81.6 91.5907 81.59C94.6307 81.57 94.6307 81.57 94.6307 81.57C94.6307 81.57 94.6407 81.4 94.6507 81.08C96.9607 80.55 99.9206 79.59 103.711 78.04C110.961 75.09 114.511 70.59 116.501 65.31Z" fill="#6F8D32"/>
<path d="M88.2307 67.58C88.2307 67.58 77.7107 36.33 42.2507 52.52C56.4507 59.39 58.7207 78.4 76.9907 75.4C95.2607 72.39 88.2307 67.58 88.2307 67.58Z" fill="#6F8D32"/>
<path opacity="0.29" d="M88.2307 67.58C88.2307 67.58 91.9307 70.12 86.9607 72.65C71.7907 47.74 42.2507 52.51 42.2507 52.51C77.7107 36.33 88.2307 67.58 88.2307 67.58Z" fill="#6F8D32"/>
<path d="M57.1507 52.92C57.1507 52.92 76.2007 54.41 86.9607 72.66C84.8307 73.96 84.8307 73.96 84.8307 73.96C84.8307 73.96 71.3907 53.61 57.1507 52.92Z" fill="#AECC4F"/>
<path opacity="0.65" d="M62.6007 72.01C71.9607 69.04 79.0107 62.16 82.5907 58.01C86.6307 62.84 88.2307 67.58 88.2307 67.58C88.2307 67.58 88.2407 67.58 88.2407 67.59L88.2507 67.6C88.2607 67.61 88.2707 67.61 88.2707 67.62C88.2807 67.63 88.2907 67.63 88.3007 67.64C88.3107 67.65 88.3207 67.66 88.3407 67.67C88.3607 67.69 88.3907 67.71 88.4207 67.73C88.4307 67.74 88.4407 67.75 88.4607 67.76C88.4807 67.78 88.5007 67.8 88.5307 67.82C88.5407 67.83 88.5507 67.84 88.5607 67.84C88.6407 67.92 88.7307 68.01 88.8307 68.11C88.8307 68.12 88.8407 68.12 88.8407 68.13C89.6007 68.97 90.4407 70.66 87.4407 72.39C87.4107 72.41 87.3907 72.42 87.3607 72.44C87.2307 72.51 87.1007 72.58 86.9607 72.66C84.8307 73.96 84.8307 73.96 84.8307 73.96C84.8307 73.96 84.7507 73.84 84.6107 73.63C82.7707 74.25 80.3007 74.86 76.9907 75.4C70.6607 76.44 66.2507 74.83 62.6007 72.01Z" fill="#6F8D32"/>
<path d="M107.032 100.958C115.985 97.3603 120.6 87.8673 117.34 79.755C114.08 71.6427 104.179 67.983 95.2263 71.5809C86.2735 75.1788 81.6587 84.6718 84.9188 92.7841C88.179 100.896 98.0795 104.556 107.032 100.958Z" fill="#3071B6"/>
<path d="M111.901 79.6001C115.161 87.7101 110.551 97.2001 101.601 100.8C100.031 101.43 98.4307 101.83 96.8507 102.03C100.111 102.6 103.641 102.28 107.041 100.92C115.991 97.3201 120.601 87.8301 117.341 79.7201C114.651 73.0301 107.451 69.3701 99.9807 70.3101C105.291 71.2501 109.871 74.5701 111.901 79.6001Z" fill="#4C90C7"/>
<path d="M84.9107 92.7501C86.1707 95.8801 88.4207 98.3401 91.2207 99.9901C91.9507 99.7901 92.6807 99.5501 93.4007 99.2601C102.351 95.6601 106.961 86.1701 103.701 78.0601C102.441 74.9301 100.191 72.4701 97.3906 70.8201C96.6606 71.0201 95.9307 71.2601 95.2107 71.5501C86.2707 75.1501 81.6507 84.6401 84.9107 92.7501Z" fill="#0C4F87"/>
<path d="M87.5007 84.5801C89.1207 83.9301 91.5507 86.1501 92.9107 89.5401C94.2707 92.9301 94.0607 96.2101 92.4407 96.8701C90.8207 97.5201 88.3907 95.3001 87.0307 91.9101C85.6607 88.5101 85.8807 85.2301 87.5007 84.5801Z" fill="#0C4F87"/>
<path d="M64.2907 67.07C73.2407 63.47 83.1407 67.13 86.4007 75.24C89.6607 83.35 85.0507 92.84 76.1007 96.44C67.1507 100.04 57.2507 96.38 53.9907 88.27C50.7207 80.16 55.3407 70.67 64.2907 67.07Z" fill="#3071B6"/>
<path d="M80.9707 75.12C84.2307 83.23 79.6207 92.72 70.6707 96.32C69.1007 96.95 67.5007 97.35 65.9207 97.55C69.1807 98.12 72.7107 97.8 76.1107 96.44C85.0607 92.84 89.6707 83.35 86.4107 75.24C83.7207 68.55 76.5207 64.89 69.0507 65.83C74.3607 66.77 78.9407 70.09 80.9707 75.12Z" fill="#4C90C7"/>
<path d="M53.9806 88.27C55.2406 91.4 57.4906 93.86 60.2906 95.51C61.0206 95.31 61.7507 95.07 62.4707 94.78C71.4207 91.18 76.0306 81.69 72.7706 73.58C71.5106 70.45 69.2606 67.99 66.4606 66.34C65.7306 66.54 65.0007 66.78 64.2807 67.07C55.3407 70.67 50.7206 80.16 53.9806 88.27Z" fill="#0C4F87"/>
<path d="M56.5707 80.0999C58.1907 79.4499 60.6207 81.67 61.9807 85.06C63.3407 88.45 63.1307 91.7299 61.5107 92.3899C59.8907 93.0399 57.4607 90.82 56.1007 87.43C54.7407 84.03 54.9507 80.7499 56.5707 80.0999Z" fill="#0C4F87"/>
<path d="M66.0687 101.836C69.7142 91.6371 65.1774 80.6913 55.9355 77.3879C46.6935 74.0844 36.2462 79.6743 32.6007 89.8732C28.9553 100.072 33.4921 111.018 42.734 114.321C51.976 117.625 62.4233 112.035 66.0687 101.836Z" fill="#3071B6"/>
<path d="M51.7707 81.88C61.0107 85.18 65.5507 96.13 61.9007 106.33C61.2607 108.12 60.4107 109.76 59.3907 111.24C62.3007 108.93 64.6607 105.73 66.0406 101.86C69.6907 91.66 65.1507 80.72 55.9107 77.41C48.2907 74.69 39.8507 78.01 35.0807 84.98C39.8407 81.2 46.0407 79.83 51.7707 81.88Z" fill="#335A96"/>
<path d="M42.7207 114.34C46.2907 115.61 50.0307 115.56 53.5007 114.43C53.8807 113.67 54.2207 112.88 54.5207 112.05C58.1707 101.85 53.6307 90.91 44.3907 87.6C40.8207 86.32 37.0807 86.38 33.6107 87.51C33.2307 88.27 32.8907 89.06 32.5907 89.89C28.9407 100.09 33.4807 111.03 42.7207 114.34Z" fill="#4C90C7"/>
<path d="M51.7907 111.063C52.4525 109.211 49.8564 106.59 45.9922 105.209C42.1279 103.828 38.4589 104.209 37.7971 106.061C37.1352 107.912 39.7314 110.533 43.5956 111.914C47.4598 113.295 51.1289 112.914 51.7907 111.063Z" fill="#0C4F87"/>
<path d="M127.599 110.777C137.377 106.848 142.417 96.4793 138.856 87.6188C135.295 78.7583 124.482 74.7609 114.704 78.6904C104.927 82.6198 99.8867 92.9882 103.448 101.849C107.008 110.709 117.821 114.707 127.599 110.777Z" fill="#3071B6"/>
<path d="M132.911 87.4601C136.471 96.3201 131.431 106.69 121.651 110.62C119.941 111.31 118.191 111.75 116.461 111.97C120.021 112.59 123.881 112.25 127.591 110.76C137.371 106.83 142.411 96.4601 138.851 87.6001C135.911 80.2901 128.041 76.3001 119.891 77.3201C125.701 78.3401 130.701 81.9601 132.911 87.4601Z" fill="#4C90C7"/>
<path d="M103.441 101.82C104.811 105.24 107.271 107.93 110.331 109.73C111.131 109.51 111.931 109.25 112.721 108.94C122.501 105.01 127.541 94.64 123.981 85.78C122.611 82.36 120.151 79.67 117.091 77.87C116.291 78.09 115.491 78.35 114.701 78.66C104.921 82.59 99.8807 92.96 103.441 101.82Z" fill="#335A96"/>
<path d="M106.271 92.8901C108.051 92.1801 110.691 94.6001 112.181 98.3101C113.671 102.02 113.441 105.6 111.661 106.31C109.881 107.02 107.241 104.6 105.751 100.89C104.261 97.1901 104.491 93.6101 106.271 92.8901Z" fill="#0C4F87"/>
<path d="M85.2107 116.59C96.3558 116.59 105.391 106.624 105.391 94.3301C105.391 82.0362 96.3558 72.0701 85.2107 72.0701C74.0656 72.0701 65.0307 82.0362 65.0307 94.3301C65.0307 106.624 74.0656 116.59 85.2107 116.59Z" fill="#3071B6"/>
<path d="M87.9407 110.23C76.8007 110.23 67.7607 100.26 67.7607 87.97C67.7607 85.81 68.0407 83.73 68.5607 81.76C66.3407 85.34 65.0307 89.67 65.0307 94.33C65.0307 106.63 74.0607 116.59 85.2107 116.59C94.4007 116.59 102.151 109.81 104.591 100.54C100.951 106.39 94.8507 110.23 87.9407 110.23Z" fill="#335A96"/>
<path d="M85.2107 72.0701C80.9107 72.0701 76.9307 73.5601 73.6507 76.0901C73.5407 77.0501 73.4707 78.0201 73.4707 79.0201C73.4707 91.3201 82.5007 101.28 93.6507 101.28C97.9507 101.28 101.931 99.7901 105.211 97.2601C105.321 96.3001 105.391 95.3301 105.391 94.3301C105.391 82.0401 96.3507 72.0701 85.2107 72.0701Z" fill="#4C90C7"/>
<path d="M85.2107 83.0601C89.8719 83.0601 93.6507 81.2513 93.6507 79.0201C93.6507 76.7889 89.8719 74.9801 85.2107 74.9801C80.5494 74.9801 76.7707 76.7889 76.7707 79.0201C76.7707 81.2513 80.5494 83.0601 85.2107 83.0601Z" fill="#0C4F87"/>
<path d="M68.8425 128.225C80.25 123.641 86.1284 111.541 81.9724 101.199C77.8164 90.8579 65.1997 86.1908 53.7922 90.7752C42.3848 95.3595 36.5063 107.459 40.6623 117.801C44.8183 128.143 57.435 132.81 68.8425 128.225Z" fill="#3071B6"/>
<path d="M75.0406 101.02C79.2006 111.36 73.3207 123.46 61.9107 128.04C59.9107 128.84 57.8707 129.36 55.8507 129.61C60.0007 130.34 64.5007 129.93 68.8307 128.19C80.2407 123.6 86.1207 111.5 81.9607 101.17C78.5307 92.64 69.3507 87.98 59.8407 89.18C66.6207 90.38 72.4606 94.61 75.0406 101.02Z" fill="#4C90C7"/>
<path d="M40.6507 117.78C42.2507 121.77 45.1207 124.91 48.6907 127C49.6207 126.75 50.5507 126.44 51.4707 126.07C62.8807 121.48 68.7607 109.38 64.6007 99.0501C63.0007 95.0601 60.1307 91.9201 56.5607 89.8301C55.6307 90.0801 54.7007 90.3901 53.7807 90.7601C42.3707 95.3501 36.4907 107.44 40.6507 117.78Z" fill="#335A96"/>
<path d="M43.9506 107.36C46.0206 106.53 49.1107 109.36 50.8507 113.68C52.5907 118.01 52.3207 122.19 50.2507 123.02C48.1807 123.85 45.0907 121.02 43.3507 116.7C41.6007 112.38 41.8706 108.19 43.9506 107.36Z" fill="#0C4F87"/>
<path d="M115.696 126.838C126.273 120.572 130.243 107.719 124.562 98.1297C118.882 88.5404 105.702 85.8465 95.1241 92.1127C84.5464 98.3789 80.5767 111.232 86.2573 120.821C91.938 130.411 105.118 133.105 115.696 126.838Z" fill="#3071B6"/>
<path d="M93.1007 119.93C87.4207 110.34 91.3907 97.49 101.971 91.22C103.821 90.12 105.761 89.3 107.721 88.74C103.511 88.65 99.1207 89.74 95.1007 92.11C84.5207 98.38 80.5506 111.23 86.2306 120.82C90.9106 128.73 100.701 131.94 109.921 129.31C103.031 129.17 96.6207 125.88 93.1007 119.93Z" fill="#335A96"/>
<path d="M124.541 98.13C122.351 94.43 119.041 91.76 115.191 90.23C114.311 90.62 113.431 91.06 112.581 91.57C102.001 97.84 98.0307 110.69 103.711 120.28C105.901 123.98 109.211 126.65 113.061 128.18C113.941 127.79 114.821 127.35 115.671 126.84C126.251 120.57 130.221 107.72 124.541 98.13Z" fill="#4C90C7"/>
<path d="M122.871 108.94C120.951 110.08 117.471 107.75 115.091 103.74C112.711 99.73 112.351 95.56 114.271 94.42C116.191 93.28 119.671 95.61 122.051 99.62C124.421 103.62 124.791 107.8 122.871 108.94Z" fill="#0C4F87"/>
<defs>
<filter id="filter0_d_109_2157" x="0" y="0" width="173" height="173" filterUnits="userSpaceOnUse" color-interpolation-filters="sRGB">
<feFlood flood-opacity="0" result="BackgroundImageFix"/>
<feColorMatrix in="SourceAlpha" type="matrix" values="0 0 0 0 0 0 0 0 0 0 0 0 0 0 0 0 0 0 127 0" result="hardAlpha"/>
<feOffset dy="2"/>
<feGaussianBlur stdDeviation="1"/>
<feComposite in2="hardAlpha" operator="out"/>
<feColorMatrix type="matrix" values="0 0 0 0 0 0 0 0 0 0 0 0 0 0 0 0 0 0 0.25 0"/>
<feBlend mode="normal" in2="BackgroundImageFix" result="effect1_dropShadow_109_2157"/>
<feBlend mode="normal" in="SourceGraphic" in2="effect1_dropShadow_109_2157" result="shape"/>
</filter>
</defs>
</svg>
