<svg width="173" height="173" viewBox="0 0 173 173" fill="none" xmlns="http://www.w3.org/2000/svg">
<g filter="url(#filter0_d_109_2060)">
<rect x="2" width="169" height="169" rx="16" fill="white"/>
</g>
<path d="M110.181 42.61C110.181 42.61 115.821 31.58 108.141 23.41C106.861 22.04 106.671 19.98 107.771 18.47L108.111 18C108.111 18 119.071 26.08 112.171 42.61C110.181 47.56 110.181 42.61 110.181 42.61Z" fill="#A26E27"/>
<path d="M142.841 98.35C140.801 85.1 128.691 81.78 128.691 63.08C128.691 50.1 119.771 45.11 114.311 43.28C111.641 42.38 108.741 42.38 106.071 43.28C100.621 45.11 91.6905 50.1 91.6905 63.08C91.6905 81.77 79.5705 85.1 77.5405 98.35C74.5605 117.75 80.8605 132.56 110.191 132.56C139.521 132.56 145.821 117.75 142.841 98.35Z" fill="#AABA35"/>
<path d="M142.841 98.35C140.801 85.1 128.691 81.78 128.691 63.08C128.691 50.1 119.771 45.11 114.311 43.28C111.641 42.38 108.741 42.38 106.071 43.28C104.621 43.77 102.921 44.48 101.211 45.51C102.361 45.57 103.511 45.78 104.621 46.16C110.071 47.99 119.001 52.98 119.001 65.96C119.001 84.65 131.121 87.98 133.151 101.23C135.241 114.84 132.751 126.19 120.941 131.75C141.051 128.42 145.411 115.1 142.841 98.35Z" fill="#B6C554"/>
<path opacity="0.5" d="M98.1905 80.04C93.4105 70.95 95.7806 50.22 95.7806 50.22C93.4006 53.25 91.6905 57.4 91.6905 63.08C91.6905 81.77 79.5705 85.1 77.5405 98.35C75.3805 112.42 78.1105 124.08 90.9705 129.42C77.2405 108.47 102.801 88.81 98.1905 80.04Z" fill="#A59617"/>
<path d="M120.661 116.38C125.101 116.38 128.701 110.927 128.701 104.2C128.701 97.4732 125.101 92.02 120.661 92.02C116.22 92.02 112.621 97.4732 112.621 104.2C112.621 110.927 116.22 116.38 120.661 116.38Z" fill="#B6C554"/>
<path d="M55.7605 150.9C69.1105 152.21 75.5405 140.81 93.6205 145.55C106.181 148.84 113.361 141.1 116.581 136.06C118.161 133.59 118.931 130.66 118.761 127.73C118.431 121.76 115.971 111.48 103.421 108.18C85.3405 103.44 85.3405 90.35 73.0605 84.93C55.0905 77 39.0905 79.6 31.3205 109.23C23.5505 138.86 36.2005 148.99 55.7605 150.9Z" fill="#A59617"/>
<path d="M119.311 128.33C119.311 128.33 128.651 136.19 138.361 131.37C139.981 130.56 142.021 130.92 143.231 132.3L143.601 132.73C143.601 132.73 133.201 140.52 118.841 130.13C114.521 127.08 119.311 128.33 119.311 128.33Z" fill="#A26E27"/>
<path d="M57.6905 143.51C70.9805 145.04 77.0606 135.01 95.1406 139.75C107.701 143.04 114.621 136.3 117.681 131.87C119.181 129.7 119.861 127.1 119.621 124.47C119.131 119.11 116.411 109.83 103.851 106.53C85.7705 101.79 85.4105 90.06 73.0705 84.87C55.0105 77.27 39.2005 79.17 32.2905 105.51C25.3905 131.85 38.2305 141.26 57.6905 143.51Z" fill="#AABA35"/>
<path d="M59.1605 140.65C71.5905 142.16 77.1605 133.19 94.0805 137.63C105.831 140.71 112.231 134.71 115.051 130.76C116.431 128.82 117.041 126.49 116.791 124.12C116.281 119.3 113.651 110.93 101.901 107.84C84.9805 103.4 84.5205 92.8599 72.9605 88.0699C56.0305 81.0599 41.2905 82.6099 35.0905 106.23C28.8905 129.85 40.9705 138.44 59.1605 140.65Z" fill="#FDEFB1"/>
<path d="M116.781 124.13C116.271 119.31 113.641 110.94 101.891 107.85C84.9706 103.41 84.5105 92.8699 72.9505 88.0799C56.0205 81.0699 41.2805 82.6199 35.0805 106.24L116.521 127.61C116.821 126.48 116.911 125.31 116.781 124.13Z" fill="#F8EDAC"/>
<path d="M69.1705 109C57.1105 105.84 45.8305 103.32 36.5105 101.61C36.0005 103.05 35.5205 104.58 35.0805 106.23L116.521 127.6C116.771 126.66 116.861 125.69 116.811 124.7C107.591 120.37 89.8505 114.42 69.1705 109Z" fill="#F2DF90"/>
<path d="M116.531 127.61L35.0805 106.24" stroke="#DFCF5B" stroke-width="0.6344" stroke-miterlimit="10"/>
<path d="M68.9106 119.15C68.8306 119.24 67.5606 118.95 67.4206 118.93C66.3106 118.8 65.2006 118.73 64.0906 118.76C62.7206 118.8 61.2206 118.95 60.1106 119.72C58.6906 120.7 58.8006 123.58 60.5406 124.36C62.2106 125.11 64.4106 123.26 65.5406 122.35C66.6806 121.43 67.7306 120.42 68.7206 119.36C68.7806 119.29 68.8406 119.22 68.9106 119.15Z" fill="#A26E27"/>
<path d="M61.3605 122.92C60.6505 122.73 60.2205 122.05 60.3905 121.39C60.5605 120.73 61.2805 120.35 61.9905 120.53C62.7005 120.72 63.1305 121.4 62.9605 122.06C62.7805 122.72 62.0705 123.1 61.3605 122.92Z" fill="white"/>
<path d="M70.8905 111.59C70.8705 111.48 69.6105 111.1 69.4905 111.05C68.4605 110.62 67.4505 110.14 66.5005 109.57C65.3305 108.87 64.1005 107.99 63.5005 106.78C62.7405 105.23 64.2505 102.77 66.1505 102.94C67.9705 103.1 68.9805 105.79 69.5205 107.14C70.0605 108.5 70.4805 109.9 70.8205 111.31C70.8505 111.4 70.8705 111.5 70.8905 111.59Z" fill="#A26E27"/>
<path d="M66.1705 104.6C65.4605 104.41 64.7505 104.8 64.5705 105.46C64.4005 106.12 64.8305 106.8 65.5405 106.99C66.2505 107.18 66.9605 106.79 67.1405 106.13C67.3105 105.48 66.8705 104.79 66.1705 104.6Z" fill="white"/>
<path d="M74.3405 134.16C63.3505 136.86 48.1005 138.42 42.7005 125.86C40.9205 121.73 39.5505 116.49 45.2205 121.07C50.2205 125.11 53.5705 129.73 60.6205 129.53C63.9405 129.44 74.9805 128.77 74.3405 134.16Z" fill="#FFF7D1"/>
<defs>
<filter id="filter0_d_109_2060" x="0" y="0" width="173" height="173" filterUnits="userSpaceOnUse" color-interpolation-filters="sRGB">
<feFlood flood-opacity="0" result="BackgroundImageFix"/>
<feColorMatrix in="SourceAlpha" type="matrix" values="0 0 0 0 0 0 0 0 0 0 0 0 0 0 0 0 0 0 127 0" result="hardAlpha"/>
<feOffset dy="2"/>
<feGaussianBlur stdDeviation="1"/>
<feComposite in2="hardAlpha" operator="out"/>
<feColorMatrix type="matrix" values="0 0 0 0 0 0 0 0 0 0 0 0 0 0 0 0 0 0 0.25 0"/>
<feBlend mode="normal" in2="BackgroundImageFix" result="effect1_dropShadow_109_2060"/>
<feBlend mode="normal" in="SourceGraphic" in2="effect1_dropShadow_109_2060" result="shape"/>
</filter>
</defs>
</svg>
