<svg width="173" height="173" viewBox="0 0 173 173" fill="none" xmlns="http://www.w3.org/2000/svg">
<g filter="url(#filter0_d_304_1155)">
<rect x="2" width="169" height="169" rx="16" fill="white"/>
</g>
<path d="M86.9611 48.0999C86.9611 48.0999 85.0911 27.9499 61.6311 32.6099C69.1411 38.7199 67.8111 50.3899 79.1511 51.1799C90.4811 51.9599 86.9611 48.0999 86.9611 48.0999Z" fill="#6F8D32"/>
<path opacity="0.29" d="M86.9611 48.0999C86.9611 48.0999 88.8111 50.1399 85.4811 50.9499C79.9411 33.9299 61.6211 32.6099 61.6211 32.6099C85.0911 27.9399 86.9611 48.0999 86.9611 48.0999Z" fill="#6F8D32"/>
<path d="M70.4711 34.95C70.4711 34.95 81.6411 38.53 85.4811 50.95C84.0311 51.42 84.0311 51.42 84.0311 51.42C84.0311 51.42 78.8711 37.37 70.4711 34.95Z" fill="#AECC4F"/>
<path opacity="0.65" d="M71.0211 47.1198C77.0311 46.6698 82.2111 43.5498 84.9411 41.5798C86.6711 45.0398 86.9611 48.0998 86.9611 48.0998C86.9611 48.0998 86.9611 48.0998 86.9711 48.1098C86.9711 48.1098 86.9711 48.1098 86.9811 48.1198L86.9911 48.1298C86.9911 48.1398 87.0011 48.1398 87.0111 48.1498C87.0211 48.1598 87.0211 48.1598 87.0311 48.1698C87.0411 48.1798 87.0511 48.1998 87.0711 48.2198C87.0811 48.2298 87.0811 48.2298 87.0911 48.2398C87.1011 48.2498 87.1111 48.2698 87.1211 48.2798C87.1211 48.2898 87.1311 48.2898 87.1311 48.2998C87.1711 48.3598 87.2111 48.4198 87.2511 48.4998C87.2511 48.4998 87.2511 48.5098 87.2611 48.5098C87.5911 49.1198 87.8611 50.2498 85.8211 50.8598C85.8011 50.8698 85.7811 50.8698 85.7611 50.8798C85.6711 50.8998 85.5911 50.9298 85.4911 50.9498C84.0411 51.4198 84.0411 51.4198 84.0411 51.4198C84.0411 51.4198 84.0111 51.3398 83.9511 51.1898C82.7611 51.2998 81.2011 51.3098 79.1511 51.1698C75.2111 50.8998 72.8111 49.3198 71.0211 47.1198Z" fill="#6F8D32"/>
<path d="M90.081 51.5699C90.081 51.5699 85.511 31.8499 109.241 28.8899C104.031 37.0499 108.981 47.7199 98.4711 52.0299C87.9611 56.3499 90.081 51.5699 90.081 51.5699Z" fill="#6F8D32"/>
<path opacity="0.29" d="M90.081 51.5699C90.081 51.5699 88.9711 54.0899 92.3811 53.8099C92.2811 35.9099 109.241 28.8899 109.241 28.8899C85.511 31.8599 90.081 51.5699 90.081 51.5699Z" fill="#6F8D32"/>
<path d="M101.591 33.8999C101.591 33.8999 92.1211 40.8099 92.3811 53.8199C93.9111 53.8099 93.9111 53.8099 93.9111 53.8099C93.9111 53.8099 94.3811 38.8499 101.591 33.8999Z" fill="#AECC4F"/>
<path opacity="0.65" d="M104.891 45.6298C99.0411 47.0898 93.1511 45.7698 89.9411 44.7598C89.3811 48.5898 90.0811 51.5798 90.0811 51.5798C90.0811 51.5798 90.0811 51.5798 90.0811 51.5898V51.5998C90.0811 51.6098 90.0811 51.6098 90.0711 51.6198C90.0711 51.6298 90.0611 51.6298 90.0611 51.6398C90.0611 51.6498 90.0511 51.6598 90.0511 51.6698C90.0411 51.6898 90.0411 51.7098 90.0311 51.7298C90.0311 51.7398 90.0211 51.7498 90.0211 51.7598C90.0111 51.7798 90.0111 51.7898 90.0011 51.8098C90.0011 51.8198 90.0011 51.8198 89.9911 51.8298C89.9711 51.8998 89.9511 51.9698 89.9411 52.0598V52.0698C89.8211 52.7498 89.9211 53.9098 92.0411 53.8398C92.0611 53.8398 92.0811 53.8398 92.1011 53.8398C92.1911 53.8398 92.2811 53.8298 92.3811 53.8198C93.9111 53.8098 93.9111 53.8098 93.9111 53.8098C93.9111 53.8098 93.9111 53.7198 93.9211 53.5698C95.0811 53.2998 96.5711 52.8198 98.4711 52.0398C102.111 50.5398 103.901 48.2798 104.891 45.6298Z" fill="#6F8D32"/>
<path d="M86.4711 51.55C86.4711 51.55 71.5411 37.88 89.4411 22C89.7711 31.68 99.8811 37.67 93.6511 47.18C87.4311 56.69 86.4711 51.55 86.4711 51.55Z" fill="#6F8D32"/>
<path opacity="0.29" d="M86.4711 51.55C86.4711 51.55 86.9711 54.25 89.6311 52.1C79.4211 37.4 89.4311 22.01 89.4311 22.01C71.5511 37.88 86.4711 51.55 86.4711 51.55Z" fill="#6F8D32"/>
<path d="M85.9611 30.46C85.9611 30.46 82.0611 41.52 89.6411 52.09C90.9011 51.22 90.9011 51.22 90.9011 51.22C90.9011 51.22 82.8211 38.62 85.9611 30.46Z" fill="#AECC4F"/>
<path opacity="0.65" d="M95.3211 38.26C91.3311 42.78 85.7211 45.02 82.5011 46C84.2111 49.47 86.4711 51.54 86.4711 51.54C86.4711 51.54 86.4711 51.54 86.4711 51.55V51.56C86.4711 51.57 86.4711 51.57 86.4711 51.58C86.4711 51.59 86.4711 51.59 86.4811 51.6C86.4811 51.61 86.4811 51.62 86.4911 51.63C86.4911 51.65 86.5011 51.67 86.5111 51.69C86.5111 51.7 86.5211 51.71 86.5211 51.72C86.5211 51.74 86.5311 51.75 86.5411 51.77C86.5411 51.78 86.5411 51.78 86.5511 51.79C86.5711 51.86 86.6011 51.93 86.6311 52.01C86.6311 52.01 86.6311 52.02 86.6411 52.02C86.9211 52.65 87.6611 53.54 89.3811 52.29C89.4011 52.28 89.4111 52.27 89.4311 52.26C89.5011 52.21 89.5711 52.15 89.6511 52.09C90.9111 51.22 90.9111 51.22 90.9111 51.22C90.9111 51.22 90.8611 51.15 90.7811 51.01C91.5911 50.13 92.5411 48.9 93.6711 47.17C95.8111 43.89 96.0011 41.01 95.3211 38.26Z" fill="#6F8D32"/>
<path d="M88.6211 147.03H83.7911C63.6511 147.03 47.721 129.99 49.081 109.89L51.1611 79.0601C52.3911 60.8001 67.5711 46.6201 85.8711 46.6201H86.5311C104.831 46.6201 120.011 60.8001 121.241 79.0601L123.321 109.89C124.691 129.98 108.761 147.03 88.6211 147.03Z" fill="#FDC406"/>
<mask id="mask0_304_1155" style="mask-type:luminance" maskUnits="userSpaceOnUse" x="49" y="46" width="75" height="102">
<path d="M88.6211 147.03H83.7911C63.6511 147.03 47.721 129.99 49.081 109.89L51.1611 79.0601C52.3911 60.8001 67.5711 46.6201 85.8711 46.6201H86.5311C104.831 46.6201 120.011 60.8001 121.241 79.0601L123.321 109.89C124.691 129.98 108.761 147.03 88.6211 147.03Z" fill="white"/>
</mask>
<g mask="url(#mask0_304_1155)">
<g opacity="0.65">
<path d="M65.6515 27.1039L62.1326 31.6135L175.599 120.153L179.118 115.643L65.6515 27.1039Z" fill="#E6A900"/>
<path d="M51.9812 40.0016L48.4622 44.5112L161.929 133.051L165.448 128.541L51.9812 40.0016Z" fill="#E6A900"/>
<path d="M38.311 52.899L34.7921 57.4087L148.259 145.948L151.778 141.439L38.311 52.899Z" fill="#E6A900"/>
<path d="M24.6266 65.7985L21.1077 70.3081L134.574 158.848L138.093 154.338L24.6266 65.7985Z" fill="#E6A900"/>
<path d="M10.9563 78.6962L7.43735 83.2058L120.904 171.745L124.423 167.236L10.9563 78.6962Z" fill="#E6A900"/>
<path d="M-2.71393 91.5939L-6.23288 96.1035L107.234 184.643L110.753 180.133L-2.71393 91.5939Z" fill="#E6A900"/>
</g>
<g opacity="0.65">
<path d="M175.596 91.5918L62.1292 180.131L65.6482 184.641L179.115 96.1014L175.596 91.5918Z" fill="#E6A900"/>
<path d="M161.924 78.6904L48.4575 167.23L51.9764 171.74L165.443 83.2001L161.924 78.6904Z" fill="#E6A900"/>
<path d="M148.252 65.789L34.7857 154.329L38.3047 158.838L151.771 70.2987L148.252 65.789Z" fill="#E6A900"/>
<path d="M134.579 52.9016L21.1122 141.441L24.6311 145.951L138.098 57.4112L134.579 52.9016Z" fill="#E6A900"/>
<path d="M120.907 40.0002L7.44037 128.54L10.9593 133.049L124.426 44.5099L120.907 40.0002Z" fill="#E6A900"/>
<path d="M107.235 27.0986L-6.23141 115.638L-2.71247 120.148L110.754 31.6083L107.235 27.0986Z" fill="#E6A900"/>
</g>
</g>
<path d="M106.001 133.52H101.171C81.0311 133.52 65.101 116.48 66.4611 96.3801L68.5411 65.5501C68.9611 59.2801 71.0311 53.4801 74.3111 48.5801C61.5411 53.0801 52.1311 64.8301 51.1611 79.0501L49.081 109.88C47.721 129.97 63.6511 147.02 83.7911 147.02H88.6211C100.741 147.02 111.331 140.84 117.551 131.54C113.941 132.82 110.061 133.52 106.001 133.52Z" fill="#E6A900"/>
<path opacity="0.37" d="M122.441 96.6801L121.251 79.0601C120.021 60.8001 104.841 46.6201 86.5411 46.6201H85.8811C84.5611 46.6201 83.2611 46.7001 81.9811 46.8501C81.4511 62.7401 85.8811 90.7501 122.441 96.6801Z" fill="white"/>
<defs>
<filter id="filter0_d_304_1155" x="0" y="0" width="173" height="173" filterUnits="userSpaceOnUse" color-interpolation-filters="sRGB">
<feFlood flood-opacity="0" result="BackgroundImageFix"/>
<feColorMatrix in="SourceAlpha" type="matrix" values="0 0 0 0 0 0 0 0 0 0 0 0 0 0 0 0 0 0 127 0" result="hardAlpha"/>
<feOffset dy="2"/>
<feGaussianBlur stdDeviation="1"/>
<feComposite in2="hardAlpha" operator="out"/>
<feColorMatrix type="matrix" values="0 0 0 0 0 0 0 0 0 0 0 0 0 0 0 0 0 0 0.25 0"/>
<feBlend mode="normal" in2="BackgroundImageFix" result="effect1_dropShadow_304_1155"/>
<feBlend mode="normal" in="SourceGraphic" in2="effect1_dropShadow_304_1155" result="shape"/>
</filter>
</defs>
</svg>
