<svg width="173" height="173" viewBox="0 0 173 173" fill="none" xmlns="http://www.w3.org/2000/svg">
<g filter="url(#filter0_d_109_1804)">
<rect x="2" width="169" height="169" rx="16" fill="white"/>
</g>
<path d="M37.5393 61.4769C37.5393 61.4769 64.8693 115.467 141.259 89.4869C145.489 88.0469 149.429 92.2669 147.679 96.3769C139.279 116.147 118.899 133.587 76.3593 123.177C26.2993 110.927 31.2093 76.7569 31.9993 71.7769C32.7893 66.7969 32.0593 62.7369 29.1993 60.3069C26.3393 57.8869 23.2593 51.0869 24.1593 47.4269C25.0593 43.7669 28.1993 43.2369 31.6693 44.9469C35.1293 46.6469 39.0393 55.3669 37.5393 61.4769Z" fill="#FDC406"/>
<path d="M141.259 89.4769C144.369 88.4169 147.319 90.4269 147.969 93.1969C135.159 102.207 108.099 115.747 73.8193 101.837C25.5493 82.2669 37.5393 61.4669 37.5393 61.4669C37.5393 61.4669 64.8793 115.467 141.259 89.4769Z" fill="#FDE75D"/>
<path d="M31.5193 78.7269C35.6693 85.9569 43.9593 98.0169 56.7693 106.287C95.6893 128.627 126.739 116.427 140.899 108.017C129.969 122.117 110.169 131.437 76.3593 123.157C37.2993 113.607 31.7093 90.6969 31.5193 78.7269Z" fill="#E6A900"/>
<path d="M141.679 89.3669C145.739 88.3369 149.369 92.3869 147.679 96.3669C147.389 97.0569 147.069 97.7469 146.749 98.4269C144.099 95.5069 142.569 92.1769 141.679 89.3669Z" fill="#96523B"/>
<path d="M31.6693 44.9369C33.2993 45.7369 35.0093 48.0969 36.2293 50.9969C34.8193 53.8969 32.4494 57.0369 28.4394 59.5369C25.8294 56.6769 23.3494 50.7469 24.1594 47.4169C25.0594 43.7469 28.2093 43.2269 31.6693 44.9369Z" fill="#96523B"/>
<defs>
<filter id="filter0_d_109_1804" x="0" y="0" width="173" height="173" filterUnits="userSpaceOnUse" color-interpolation-filters="sRGB">
<feFlood flood-opacity="0" result="BackgroundImageFix"/>
<feColorMatrix in="SourceAlpha" type="matrix" values="0 0 0 0 0 0 0 0 0 0 0 0 0 0 0 0 0 0 127 0" result="hardAlpha"/>
<feOffset dy="2"/>
<feGaussianBlur stdDeviation="1"/>
<feComposite in2="hardAlpha" operator="out"/>
<feColorMatrix type="matrix" values="0 0 0 0 0 0 0 0 0 0 0 0 0 0 0 0 0 0 0.25 0"/>
<feBlend mode="normal" in2="BackgroundImageFix" result="effect1_dropShadow_109_1804"/>
<feBlend mode="normal" in="SourceGraphic" in2="effect1_dropShadow_109_1804" result="shape"/>
</filter>
</defs>
</svg>
