<svg width="173" height="173" viewBox="0 0 173 173" fill="none" xmlns="http://www.w3.org/2000/svg">
<g filter="url(#filter0_d_304_1187)">
<rect x="2" width="169" height="169" rx="16" fill="white"/>
</g>
<path d="M86.3752 61.5C84.2152 51.69 91.3552 38.01 91.3552 38.01L87.4051 38.55C83.1751 50.12 82.7851 56.9 83.8151 61.64C84.6351 61.59 85.4952 61.54 86.3752 61.5Z" fill="#A68B78"/>
<path d="M85.0652 51.17C85.0652 51.17 59.2652 54.43 56.5052 22C56.5052 22 86.5152 23.95 85.0652 51.17Z" fill="#6F8D32"/>
<path d="M85.1151 50.9199C85.1151 50.9199 89.7851 35.3399 109.025 41.9799C109.025 41.9799 100.315 58.6499 85.1151 50.9199Z" fill="#AECC4F"/>
<path d="M86.0952 130.63C98.9252 130.59 106.505 137.22 115.455 130.79C139.495 113.51 145.595 63.3599 121.755 53.0799C108.105 47.1899 98.9252 56.0999 85.8352 56.1499C72.7452 56.1999 63.5052 47.3499 49.8952 53.3299C26.1252 63.7799 32.5752 113.87 56.7352 130.99C65.7252 137.37 73.2652 130.68 86.0952 130.63Z" fill="#D12023"/>
<path opacity="0.1" d="M121.235 80.9698C117.285 81.9198 112.945 77.9098 111.525 72.0098C110.105 66.1098 112.155 60.5698 116.105 59.6198C120.055 58.6698 124.395 62.6798 125.815 68.5798C127.225 74.4698 125.175 80.0198 121.235 80.9698Z" fill="white"/>
<path opacity="0.05" d="M114.795 128.95C104.285 132.28 99.1452 123.61 86.9452 119.66C74.7452 115.71 65.4952 119.72 58.9352 110.86C47.4252 95.3198 47.4752 68.7798 56.0852 51.5198C54.1152 51.8198 52.0552 52.3898 49.8952 53.3398C26.1252 63.7898 32.5752 113.88 56.7352 131C65.7252 137.37 73.2752 130.68 86.0952 130.64C98.9252 130.6 106.505 137.23 115.455 130.8C117.105 129.61 118.665 128.27 120.145 126.79C118.395 127.64 116.615 128.37 114.795 128.95Z" fill="#020203"/>
<defs>
<filter id="filter0_d_304_1187" x="0" y="0" width="173" height="173" filterUnits="userSpaceOnUse" color-interpolation-filters="sRGB">
<feFlood flood-opacity="0" result="BackgroundImageFix"/>
<feColorMatrix in="SourceAlpha" type="matrix" values="0 0 0 0 0 0 0 0 0 0 0 0 0 0 0 0 0 0 127 0" result="hardAlpha"/>
<feOffset dy="2"/>
<feGaussianBlur stdDeviation="1"/>
<feComposite in2="hardAlpha" operator="out"/>
<feColorMatrix type="matrix" values="0 0 0 0 0 0 0 0 0 0 0 0 0 0 0 0 0 0 0.25 0"/>
<feBlend mode="normal" in2="BackgroundImageFix" result="effect1_dropShadow_304_1187"/>
<feBlend mode="normal" in="SourceGraphic" in2="effect1_dropShadow_304_1187" result="shape"/>
</filter>
</defs>
</svg>
