<svg width="173" height="173" viewBox="0 0 173 173" fill="none" xmlns="http://www.w3.org/2000/svg">
<g filter="url(#filter0_d_109_2607)">
<rect x="2" width="169" height="169" rx="16" fill="white"/>
</g>
<path d="M85.0196 58.19C85.0196 58.19 90.2996 36.72 113.04 36C103.26 54.41 85.0196 58.19 85.0196 58.19Z" fill="#85A24E"/>
<path d="M85.0196 58.19C96.6196 43.09 113.04 36 113.04 36C90.2996 36.72 85.0196 58.19 85.0196 58.19Z" fill="#6F8D32"/>
<path d="M87.8896 63.9301C87.8896 63.9301 85.8396 57.52 87.4296 48.5C87.6596 47.21 86.8896 45.9501 85.6296 45.5801L85.5796 45.57C84.0296 45.12 82.4596 46.1701 82.2896 47.7701C81.8696 51.8501 82.0996 59.1701 87.8896 63.9301Z" fill="#A04E17"/>
<path d="M103.89 58.62C92.9196 61.2 86.0096 61.84 86.0096 61.84C86.0096 61.84 79.0996 61.2 68.1296 58.62C57.1596 56.04 40.1896 64.43 43.4096 98.96C44.8596 114.5 53.6296 123.57 62.8396 128.84C77.1196 137.02 94.8896 137.02 109.17 128.84C118.38 123.56 127.15 114.49 128.6 98.96C131.84 64.43 114.86 56.04 103.89 58.62Z" fill="#EE7220"/>
<path d="M86.0096 61.85C86.0096 61.85 84.5096 61.71 81.8296 61.3C77.6696 73.54 76.3596 97.2801 78.1696 109.18C77.9396 85.2601 84.6896 68.45 88.0296 61.61C86.7196 61.78 86.0096 61.85 86.0096 61.85Z" fill="#EA5717"/>
<path d="M53.8896 104.98C45.1996 77.41 68.1196 58.62 68.1196 58.62C57.1496 56.04 40.1796 64.43 43.3996 98.96C44.8496 114.5 53.6196 123.57 62.8296 128.84C77.1096 137.02 94.8796 137.02 109.16 128.84C109.77 128.49 110.39 128.12 110.99 127.73C97.3996 132.8 62.5796 132.55 53.8896 104.98Z" fill="#EA5717"/>
<path d="M128.61 98.96C131.84 64.43 114.87 56.04 103.89 58.62C101.39 59.21 99.1096 59.69 97.0596 60.09C107.39 65.03 129.81 80.87 118.07 122.09C123.46 116.7 127.65 109.26 128.61 98.96Z" fill="#F3902B"/>
<path opacity="0.43" d="M86.0096 61.85C86.0096 61.85 79.0996 61.21 68.1296 58.63C60.4096 56.81 49.7296 60.44 45.1996 74.77C83.4896 88.64 109.97 77.71 123.94 68.21C118.65 59.35 110.27 57.13 103.9 58.63C92.9196 61.2 86.0096 61.85 86.0096 61.85Z" fill="#F3902B"/>
<defs>
<filter id="filter0_d_109_2607" x="0" y="0" width="173" height="173" filterUnits="userSpaceOnUse" color-interpolation-filters="sRGB">
<feFlood flood-opacity="0" result="BackgroundImageFix"/>
<feColorMatrix in="SourceAlpha" type="matrix" values="0 0 0 0 0 0 0 0 0 0 0 0 0 0 0 0 0 0 127 0" result="hardAlpha"/>
<feOffset dy="2"/>
<feGaussianBlur stdDeviation="1"/>
<feComposite in2="hardAlpha" operator="out"/>
<feColorMatrix type="matrix" values="0 0 0 0 0 0 0 0 0 0 0 0 0 0 0 0 0 0 0.25 0"/>
<feBlend mode="normal" in2="BackgroundImageFix" result="effect1_dropShadow_109_2607"/>
<feBlend mode="normal" in="SourceGraphic" in2="effect1_dropShadow_109_2607" result="shape"/>
</filter>
</defs>
</svg>
