<svg width="173" height="173" viewBox="0 0 173 173" fill="none" xmlns="http://www.w3.org/2000/svg">
<g filter="url(#filter0_d_109_2459)">
<rect x="2" width="169" height="169" rx="16" fill="white"/>
</g>
<path d="M106.64 42.53C106.64 42.53 107.68 29.52 94.8404 26.01C93.6904 37.71 100.65 42.34 106.64 42.53Z" fill="#AABA35"/>
<path d="M94.8304 26C94.8304 26 104.36 35.64 106.63 42.52C106.64 42.53 107.68 29.51 94.8304 26Z" fill="#A59617"/>
<path d="M108.72 43.87C108.72 43.87 120.6 38.45 128.28 49.33C117.67 54.4 110.94 49.44 108.72 43.87Z" fill="#AABA35"/>
<path d="M128.28 49.34C128.28 49.34 115.97 43.67 108.72 43.88C108.72 43.87 120.6 38.46 128.28 49.34Z" fill="#A59617"/>
<path d="M93.4204 64.63C93.4204 64.63 101.38 41.22 117.88 34.49C122.09 34.49 120.33 37.71 120.33 37.71C120.33 37.71 105.93 43.25 96.2704 65.94C96.2704 65.22 93.4204 64.63 93.4204 64.63Z" fill="#A26E27"/>
<path d="M98.7604 53.27C95.1804 59.46 93.4204 64.64 93.4204 64.64C93.4204 64.64 96.2704 65.23 96.2704 65.95C98.1104 61.62 100.13 57.91 102.19 54.75C101.03 54.06 99.8804 53.59 98.7604 53.27Z" fill="#754E1D"/>
<path d="M123.733 87.2353C127.011 80.7301 124.795 73.0007 118.783 69.9711C112.771 66.9416 105.24 69.7591 101.962 76.2643C98.6834 82.7695 100.9 90.4989 106.912 93.5285C112.924 96.558 120.455 93.7405 123.733 87.2353Z" fill="#262740"/>
<path d="M111.03 69.0699C109.36 74.9399 111.71 81.1699 116.96 83.8199C119.43 85.0599 122.15 85.3099 124.73 84.7299C126.4 78.8599 124.05 72.6299 118.8 69.9799C116.33 68.7399 113.61 68.4899 111.03 69.0699Z" fill="#53567C"/>
<path d="M104.291 77.4355C107.569 70.9303 105.353 63.2009 99.341 60.1713C93.329 57.1418 85.7979 59.9593 82.5199 66.4645C79.2418 72.9697 81.458 80.6991 87.47 83.7287C93.482 86.7582 101.013 83.9407 104.291 77.4355Z" fill="#262740"/>
<path d="M91.5804 59.27C89.9104 65.14 92.2604 71.37 97.5104 74.02C99.9804 75.26 102.7 75.51 105.28 74.93C106.95 69.06 104.6 62.83 99.3504 60.18C96.8904 58.94 94.1704 58.69 91.5804 59.27Z" fill="#53567C"/>
<path d="M85.8704 68.16C82.5904 74.67 75.0604 77.49 69.0504 74.46C63.0404 71.43 60.8304 63.7 64.1004 57.19C67.3804 50.68 74.9104 47.86 80.9204 50.89C86.9304 53.92 89.1504 61.65 85.8704 68.16Z" fill="#262740"/>
<path d="M73.1504 49.98C71.4804 55.85 73.8304 62.08 79.0804 64.73C81.5504 65.97 84.2704 66.22 86.8504 65.64C88.5204 59.77 86.1704 53.54 80.9204 50.89C78.4504 49.65 75.7304 49.4 73.1504 49.98Z" fill="#53567C"/>
<path d="M124.37 106.83C121.09 113.34 113.56 116.16 107.55 113.13C101.54 110.1 99.3304 102.37 102.6 95.8601C105.88 89.3501 113.41 86.5301 119.42 89.5601C125.44 92.5901 127.65 100.32 124.37 106.83Z" fill="#262740"/>
<path d="M111.65 88.65C109.98 94.52 112.33 100.75 117.58 103.4C120.05 104.64 122.77 104.89 125.35 104.31C127.02 98.44 124.67 92.21 119.42 89.56C116.96 88.32 114.23 88.07 111.65 88.65Z" fill="#53567C"/>
<path d="M69.2404 79.04C65.9604 85.55 58.4304 88.37 52.4204 85.34C46.4104 82.31 44.2004 74.58 47.4704 68.07C50.7504 61.56 58.2804 58.74 64.2904 61.77C70.3004 64.8 72.5204 72.53 69.2404 79.04Z" fill="#262740"/>
<path d="M56.5204 60.8701C54.8504 66.7401 57.2004 72.9701 62.4504 75.6201C64.9204 76.8601 67.6404 77.1101 70.2204 76.5301C71.8904 70.6601 69.5404 64.4301 64.2904 61.7801C61.8204 60.5301 59.1004 60.2901 56.5204 60.8701Z" fill="#53567C"/>
<path d="M86.2904 88.6801C83.0104 95.1901 75.4804 98.01 69.4704 94.98C63.4604 91.95 61.2504 84.2201 64.5204 77.7101C67.8004 71.2001 75.3304 68.38 81.3404 71.41C87.3504 74.44 89.5604 82.1701 86.2904 88.6801Z" fill="#262740"/>
<path d="M73.5704 70.5101C71.9004 76.3801 74.2504 82.6101 79.5004 85.2601C81.9704 86.5001 84.6904 86.7501 87.2704 86.1701C88.9404 80.3001 86.5904 74.0701 81.3404 71.4201C78.8704 70.1701 76.1504 69.9301 73.5704 70.5101Z" fill="#53567C"/>
<path d="M105.113 97.107C108.391 90.6018 106.175 82.8724 100.163 79.8428C94.1507 76.8133 86.6197 79.6308 83.3416 86.136C80.0635 92.6412 82.2797 100.371 88.2917 103.4C94.3037 106.43 101.835 103.612 105.113 97.107Z" fill="#262740"/>
<path d="M92.4004 78.95C90.7304 84.82 93.0804 91.05 98.3304 93.7C100.8 94.94 103.52 95.19 106.1 94.61C107.77 88.74 105.42 82.51 100.17 79.86C97.7104 78.61 94.9804 78.37 92.4004 78.95Z" fill="#53567C"/>
<path d="M70.7082 98.2764C73.987 91.7713 71.7713 84.0413 65.7593 81.011C59.7473 77.9808 52.2156 80.7978 48.9368 87.303C45.658 93.8082 47.8737 101.538 53.8857 104.568C59.8977 107.599 67.4293 104.782 70.7082 98.2764Z" fill="#262740"/>
<path d="M57.9804 80.08C56.3104 85.95 58.6604 92.18 63.9104 94.83C66.3804 96.07 69.1004 96.32 71.6804 95.74C73.3504 89.87 71.0004 83.64 65.7504 80.99C63.2804 79.74 60.5604 79.5 57.9804 80.08Z" fill="#53567C"/>
<path d="M108.097 117.123C111.376 110.618 109.16 102.888 103.148 99.8578C97.1359 96.8276 89.6042 99.6446 86.3254 106.15C83.0466 112.655 85.2622 120.385 91.2742 123.415C97.2862 126.445 104.818 123.628 108.097 117.123Z" fill="#262740"/>
<path d="M95.3704 98.92C93.7004 104.79 96.0504 111.02 101.3 113.67C103.77 114.91 106.49 115.16 109.07 114.58C110.74 108.71 108.39 102.48 103.14 99.83C100.67 98.59 97.9504 98.34 95.3704 98.92Z" fill="#53567C"/>
<path d="M87.9004 110.6C84.6204 117.11 77.0904 119.93 71.0804 116.9C65.0704 113.87 62.8604 106.14 66.1304 99.6301C69.4104 93.1201 76.9404 90.3001 82.9504 93.3301C88.9604 96.3701 91.1804 104.1 87.9004 110.6Z" fill="#262740"/>
<path d="M75.1804 92.4301C73.5104 98.3001 75.8604 104.53 81.1104 107.18C83.5804 108.42 86.3004 108.67 88.8804 108.09C90.5504 102.22 88.2004 95.9901 82.9504 93.3401C80.4804 92.0901 77.7604 91.8501 75.1804 92.4301Z" fill="#53567C"/>
<path d="M70.3904 120.26C67.1104 126.77 59.5804 129.59 53.5704 126.56C47.5604 123.53 45.3504 115.8 48.6204 109.29C51.9004 102.78 59.4304 99.96 65.4404 102.99C71.4504 106.02 73.6704 113.75 70.3904 120.26Z" fill="#262740"/>
<path d="M57.6704 102.08C56.0004 107.95 58.3504 114.18 63.6004 116.83C66.0704 118.07 68.7904 118.32 71.3704 117.74C73.0404 111.87 70.6904 105.64 65.4404 102.99C62.9704 101.75 60.2504 101.5 57.6704 102.08Z" fill="#53567C"/>
<path d="M91.1104 130.7C87.8304 137.21 80.3004 140.03 74.2904 137C68.2804 133.97 66.0704 126.24 69.3404 119.73C72.6204 113.22 80.1504 110.4 86.1604 113.43C92.1804 116.47 94.3904 124.2 91.1104 130.7Z" fill="#262740"/>
<path d="M78.3904 112.53C76.7204 118.4 79.0704 124.63 84.3204 127.28C86.7904 128.52 89.5104 128.77 92.0904 128.19C93.7604 122.32 91.4104 116.09 86.1604 113.44C83.7004 112.19 80.9704 111.95 78.3904 112.53Z" fill="#53567C"/>
<path d="M72.4904 136.09C69.2104 142.6 61.6804 145.42 55.6704 142.39C49.6604 139.36 47.4504 131.63 50.7204 125.12C54.0004 118.61 61.5304 115.79 67.5404 118.82C73.5504 121.85 75.7704 129.58 72.4904 136.09Z" fill="#262740"/>
<path d="M59.7704 117.92C58.1004 123.79 60.4504 130.02 65.7004 132.67C68.1704 133.91 70.8904 134.16 73.4704 133.58C75.1404 127.71 72.7904 121.48 67.5404 118.83C65.0704 117.58 62.3504 117.34 59.7704 117.92Z" fill="#53567C"/>
<defs>
<filter id="filter0_d_109_2459" x="0" y="0" width="173" height="173" filterUnits="userSpaceOnUse" color-interpolation-filters="sRGB">
<feFlood flood-opacity="0" result="BackgroundImageFix"/>
<feColorMatrix in="SourceAlpha" type="matrix" values="0 0 0 0 0 0 0 0 0 0 0 0 0 0 0 0 0 0 127 0" result="hardAlpha"/>
<feOffset dy="2"/>
<feGaussianBlur stdDeviation="1"/>
<feComposite in2="hardAlpha" operator="out"/>
<feColorMatrix type="matrix" values="0 0 0 0 0 0 0 0 0 0 0 0 0 0 0 0 0 0 0.25 0"/>
<feBlend mode="normal" in2="BackgroundImageFix" result="effect1_dropShadow_109_2459"/>
<feBlend mode="normal" in="SourceGraphic" in2="effect1_dropShadow_109_2459" result="shape"/>
</filter>
</defs>
</svg>
