<svg width="173" height="173" viewBox="0 0 173 173" fill="none" xmlns="http://www.w3.org/2000/svg">
<g filter="url(#filter0_d_304_1061)">
<rect x="2" width="169" height="169" rx="16" fill="white"/>
</g>
<path d="M70.02 123.32C97.093 123.32 119.04 103.997 119.04 80.16C119.04 56.3234 97.093 37 70.02 37C42.947 37 21 56.3234 21 80.16C21 103.997 42.947 123.32 70.02 123.32Z" fill="#4B694E"/>
<mask id="mask0_304_1061" style="mask-type:luminance" maskUnits="userSpaceOnUse" x="21" y="37" width="99" height="87">
<path d="M70.02 123.32C97.093 123.32 119.04 103.997 119.04 80.16C119.04 56.3234 97.093 37 70.02 37C42.947 37 21 56.3234 21 80.16C21 103.997 42.947 123.32 70.02 123.32Z" fill="white"/>
</mask>
<g mask="url(#mask0_304_1061)">
<path d="M12.52 68.6301C12.52 68.6301 59.66 24.8001 128 63.6601" stroke="#98BB2B" stroke-width="6.9809" stroke-miterlimit="10"/>
</g>
<mask id="mask1_304_1061" style="mask-type:luminance" maskUnits="userSpaceOnUse" x="21" y="37" width="99" height="87">
<path d="M70.02 123.32C97.093 123.32 119.04 103.997 119.04 80.16C119.04 56.3234 97.093 37 70.02 37C42.947 37 21 56.3234 21 80.16C21 103.997 42.947 123.32 70.02 123.32Z" fill="white"/>
</mask>
<g mask="url(#mask1_304_1061)">
<path d="M12.52 80.1599H128" stroke="#98BB2B" stroke-width="6.9809" stroke-miterlimit="10"/>
</g>
<mask id="mask2_304_1061" style="mask-type:luminance" maskUnits="userSpaceOnUse" x="21" y="37" width="99" height="87">
<path d="M70.02 123.32C97.093 123.32 119.04 103.997 119.04 80.16C119.04 56.3234 97.093 37 70.02 37C42.947 37 21 56.3234 21 80.16C21 103.997 42.947 123.32 70.02 123.32Z" fill="white"/>
</mask>
<g mask="url(#mask2_304_1061)">
<path d="M12.52 74.06C12.52 74.06 71.44 51.92 126.12 74.06" stroke="#98BB2B" stroke-width="6.9809" stroke-miterlimit="10"/>
</g>
<mask id="mask3_304_1061" style="mask-type:luminance" maskUnits="userSpaceOnUse" x="21" y="37" width="99" height="87">
<path d="M70.02 123.32C97.093 123.32 119.04 103.997 119.04 80.16C119.04 56.3234 97.093 37 70.02 37C42.947 37 21 56.3234 21 80.16C21 103.997 42.947 123.32 70.02 123.32Z" fill="white"/>
</mask>
<g mask="url(#mask3_304_1061)">
<path d="M12.52 91.7C12.52 91.7 59.66 135.53 128 96.6699" stroke="#98BB2B" stroke-width="6.9809" stroke-miterlimit="10"/>
</g>
<mask id="mask4_304_1061" style="mask-type:luminance" maskUnits="userSpaceOnUse" x="21" y="37" width="99" height="87">
<path d="M70.02 123.32C97.093 123.32 119.04 103.997 119.04 80.16C119.04 56.3234 97.093 37 70.02 37C42.947 37 21 56.3234 21 80.16C21 103.997 42.947 123.32 70.02 123.32Z" fill="white"/>
</mask>
<g mask="url(#mask4_304_1061)">
<path d="M12.52 86.28C12.52 86.28 71.44 108.42 126.12 86.28" stroke="#98BB2B" stroke-width="6.9809" stroke-miterlimit="10"/>
</g>
<path opacity="0.21" d="M70.02 37C60.56 37 51.73 39.36 44.24 43.45C48.34 63.34 63.12 96.9 116.32 94.32C118.07 89.88 119.04 85.12 119.04 80.16C119.05 56.32 97.1 37 70.02 37Z" fill="white"/>
<path opacity="0.21" d="M69.86 37C72.06 50.89 81.95 70.22 118.76 75.53C116.14 53.87 95.32 37 70.02 37C69.97 37 69.91 37 69.86 37Z" fill="white"/>
<path d="M108.51 132.8C131.98 132.8 151 113.77 151 90.3101H66.01C66.01 113.78 85.04 132.8 108.51 132.8Z" fill="#4B694E"/>
<path d="M108.51 128.79C129.76 128.79 146.99 111.56 146.99 90.3101H70.02C70.02 111.56 87.25 128.79 108.51 128.79Z" fill="#F0F6E6"/>
<path d="M108.51 125.28C127.83 125.28 143.48 109.62 143.48 90.3101H73.53C73.53 109.62 89.19 125.28 108.51 125.28Z" fill="#E7342B"/>
<path d="M108.51 109.55C119.14 109.55 127.75 100.94 127.75 90.3101H89.27C89.26 100.93 97.88 109.55 108.51 109.55Z" fill="#EA554F"/>
<path d="M108.5 118.05C108.46 119.26 107.99 120.22 107.46 120.2C106.93 120.18 106.53 119.19 106.58 117.98C106.62 116.77 107.09 115.81 107.62 115.83C108.15 115.85 108.55 116.85 108.5 118.05Z" fill="#132316"/>
<path d="M91.61 106.56C90.87 107.51 89.93 108.02 89.51 107.69C89.09 107.36 89.35 106.33 90.09 105.37C90.83 104.42 91.77 103.91 92.19 104.24C92.61 104.57 92.35 105.61 91.61 106.56Z" fill="#132316"/>
<path d="M84.06 106.77C83.05 107.44 82 107.61 81.71 107.17C81.42 106.73 81.99 105.83 83 105.16C84.01 104.49 85.06 104.31 85.35 104.76C85.64 105.21 85.06 106.11 84.06 106.77Z" fill="#132316"/>
<path d="M91.61 114.17C90.87 115.12 89.93 115.63 89.51 115.3C89.09 114.97 89.35 113.94 90.09 112.99C90.83 112.04 91.77 111.53 92.19 111.86C92.61 112.18 92.35 113.21 91.61 114.17Z" fill="#132316"/>
<path d="M97.87 112.73C97.36 113.82 96.56 114.53 96.08 114.31C95.6 114.09 95.62 113.02 96.12 111.92C96.63 110.83 97.43 110.12 97.91 110.34C98.4 110.56 98.38 111.63 97.87 112.73Z" fill="#132316"/>
<path d="M104.58 113.82C104.27 114.99 103.61 115.82 103.09 115.69C102.58 115.55 102.41 114.5 102.72 113.33C103.03 112.16 103.69 111.33 104.21 111.46C104.72 111.6 104.89 112.66 104.58 113.82Z" fill="#132316"/>
<path d="M100.28 119.04C99.97 120.21 99.31 121.04 98.79 120.91C98.28 120.77 98.11 119.72 98.42 118.55C98.73 117.38 99.39 116.55 99.91 116.68C100.42 116.82 100.59 117.88 100.28 119.04Z" fill="#132316"/>
<path d="M125.4 106.56C126.14 107.51 127.08 108.02 127.5 107.69C127.92 107.36 127.66 106.33 126.92 105.37C126.18 104.42 125.24 103.91 124.82 104.24C124.4 104.57 124.66 105.61 125.4 106.56Z" fill="#132316"/>
<path d="M132.96 106.77C133.97 107.44 135.02 107.61 135.31 107.17C135.6 106.73 135.03 105.83 134.02 105.16C133.01 104.49 131.96 104.31 131.67 104.76C131.37 105.21 131.95 106.11 132.96 106.77Z" fill="#132316"/>
<path d="M125.4 114.17C126.14 115.12 127.08 115.63 127.5 115.3C127.92 114.97 127.66 113.94 126.92 112.99C126.18 112.04 125.24 111.53 124.82 111.86C124.4 112.18 124.66 113.21 125.4 114.17Z" fill="#132316"/>
<path d="M119.14 112.73C119.65 113.82 120.45 114.53 120.93 114.31C121.41 114.09 121.39 113.02 120.89 111.92C120.38 110.83 119.58 110.12 119.1 110.34C118.61 110.56 118.63 111.63 119.14 112.73Z" fill="#132316"/>
<path d="M112.43 113.82C112.74 114.99 113.4 115.82 113.92 115.69C114.43 115.55 114.6 114.5 114.29 113.33C113.98 112.16 113.32 111.33 112.8 111.46C112.29 111.6 112.12 112.66 112.43 113.82Z" fill="#132316"/>
<path d="M116.73 119.04C117.04 120.21 117.7 121.04 118.22 120.91C118.73 120.77 118.9 119.72 118.59 118.55C118.28 117.38 117.62 116.55 117.1 116.68C116.59 116.82 116.42 117.88 116.73 119.04Z" fill="#132316"/>
<defs>
<filter id="filter0_d_304_1061" x="0" y="0" width="173" height="173" filterUnits="userSpaceOnUse" color-interpolation-filters="sRGB">
<feFlood flood-opacity="0" result="BackgroundImageFix"/>
<feColorMatrix in="SourceAlpha" type="matrix" values="0 0 0 0 0 0 0 0 0 0 0 0 0 0 0 0 0 0 127 0" result="hardAlpha"/>
<feOffset dy="2"/>
<feGaussianBlur stdDeviation="1"/>
<feComposite in2="hardAlpha" operator="out"/>
<feColorMatrix type="matrix" values="0 0 0 0 0 0 0 0 0 0 0 0 0 0 0 0 0 0 0.25 0"/>
<feBlend mode="normal" in2="BackgroundImageFix" result="effect1_dropShadow_304_1061"/>
<feBlend mode="normal" in="SourceGraphic" in2="effect1_dropShadow_304_1061" result="shape"/>
</filter>
</defs>
</svg>
