<svg width="173" height="173" viewBox="0 0 173 173" fill="none" xmlns="http://www.w3.org/2000/svg">
<g filter="url(#filter0_d_109_1832)">
<rect x="2" width="169" height="169" rx="16" fill="white"/>
</g>
<path d="M101.51 85.9578C106.017 66.5314 93.9229 47.1293 74.4965 42.6222C55.07 38.1151 35.668 50.2096 31.1609 69.6361C26.6537 89.0626 38.7483 108.465 58.1748 112.972C77.6012 117.479 97.0032 105.384 101.51 85.9578Z" fill="#EC651B"/>
<path d="M66.3349 41.68C59.6049 41.68 53.3149 43.53 47.9249 46.73C47.0349 49.87 46.5449 53.19 46.5449 56.62C46.5449 76.56 62.7149 92.73 82.6549 92.73C89.3849 92.73 95.6749 90.88 101.065 87.68C101.955 84.54 102.445 81.22 102.445 77.79C102.445 57.84 86.2749 41.68 66.3349 41.68Z" fill="#F3933E"/>
<path d="M71.1949 103.31C51.2549 103.31 35.0849 87.14 35.0849 67.2C35.0849 63.88 35.5449 60.66 36.3849 57.6C32.4949 63.36 30.2249 70.3 30.2249 77.78C30.2249 97.72 46.3949 113.89 66.3349 113.89C82.9549 113.89 96.9349 102.66 101.145 87.38C94.6549 96.99 83.6649 103.31 71.1949 103.31Z" fill="#E5600D"/>
<path d="M75.3249 52.49C75.3249 52.49 85.5949 37.31 102.465 45.51C89.2349 57.38 75.3249 52.49 75.3249 52.49Z" fill="#7EAD2B"/>
<path d="M75.3249 52.49C75.3249 52.49 76.8749 34.23 58.5949 30C61.4249 47.55 75.3249 52.49 75.3249 52.49Z" fill="#7EAD2B"/>
<path d="M122.685 80.11C112.785 70.21 98.2749 67.87 86.5849 73.2L83.1249 73.95L77.7149 79.36C65.5049 91.57 65.8449 111.7 78.4749 124.33C91.1049 136.96 111.235 137.3 123.445 125.09L128.855 119.68L129.605 116.22C134.935 104.52 132.585 90.01 122.685 80.11Z" fill="#EC651B"/>
<path d="M128.85 119.681C139.714 108.817 138.283 89.7714 125.654 77.1419C113.025 64.5125 93.9791 63.0816 83.1149 73.9459C72.2506 84.8101 73.6815 103.856 86.311 116.485C98.9404 129.114 117.986 130.545 128.85 119.681Z" fill="#F3933E"/>
<path d="M125.307 116.138C134.492 106.953 133.286 90.8551 122.613 80.1822C111.94 69.5092 95.8422 68.3031 86.6571 77.4881C77.4721 86.6732 78.6783 102.771 89.3512 113.444C100.024 124.117 116.122 125.323 125.307 116.138Z" fill="#F7EFF8"/>
<path d="M122.466 113.297C130.3 105.463 129.271 91.7332 120.168 82.6301C111.065 73.5271 97.3346 72.4982 89.5008 80.3321C81.6669 88.1659 82.6958 101.896 91.7988 110.999C100.902 120.102 114.632 121.131 122.466 113.297Z" fill="#F3933E"/>
<path d="M89.5049 80.33L125.315 116.14" stroke="#F7EFF8" stroke-width="1.749" stroke-miterlimit="10"/>
<path d="M92.0049 113.64L122.815 82.83" stroke="#F7EFF8" stroke-width="1.749" stroke-miterlimit="10"/>
<path d="M109.175 121.79L105.645 74.68" stroke="#F7EFF8" stroke-width="1.749" stroke-miterlimit="10"/>
<path d="M83.8549 96.46L130.965 100" stroke="#F7EFF8" stroke-width="1.749" stroke-miterlimit="10"/>
<path d="M78.475 124.33C83.425 129.28 89.525 132.33 95.845 133.49C78.485 122.4 71.695 105.68 69.155 96.33C67.645 106.11 70.765 116.62 78.475 124.33Z" fill="#E5600D"/>
<defs>
<filter id="filter0_d_109_1832" x="0" y="0" width="173" height="173" filterUnits="userSpaceOnUse" color-interpolation-filters="sRGB">
<feFlood flood-opacity="0" result="BackgroundImageFix"/>
<feColorMatrix in="SourceAlpha" type="matrix" values="0 0 0 0 0 0 0 0 0 0 0 0 0 0 0 0 0 0 127 0" result="hardAlpha"/>
<feOffset dy="2"/>
<feGaussianBlur stdDeviation="1"/>
<feComposite in2="hardAlpha" operator="out"/>
<feColorMatrix type="matrix" values="0 0 0 0 0 0 0 0 0 0 0 0 0 0 0 0 0 0 0.25 0"/>
<feBlend mode="normal" in2="BackgroundImageFix" result="effect1_dropShadow_109_1832"/>
<feBlend mode="normal" in="SourceGraphic" in2="effect1_dropShadow_109_1832" result="shape"/>
</filter>
</defs>
</svg>
