<svg width="112" height="152" viewBox="0 0 112 152" fill="none" xmlns="http://www.w3.org/2000/svg">
<path d="M14.5038 57.7776C35.2669 35.7324 38.163 31.2508 56.4351 0.237425L63.0011 15.5952C44.2291 45.736 41.4831 50.3403 21.861 74.9856L14.5038 57.7776Z" fill="#02C4AC"/>
<path d="M39.08 115.772C61.2806 92.5557 64.4605 87.9665 82.041 59.1048L88.607 74.4626C71.6486 104.583 68.079 108.898 46.4371 132.98L39.08 115.772Z" fill="#02C4AC"/>
<path d="M14.5038 57.7776L82.3842 59.3957L88.9502 74.7534L21.8609 74.9856L14.5038 57.7776Z" fill="white"/>
<path d="M14.5038 57.7776L82.3842 59.3957L88.9502 74.7534L21.8609 74.9856L14.5038 57.7776Z" fill="#02C4AC" fill-opacity="0.6"/>
<path d="M39.0009 115.587L83.1702 127.78L87.363 137.587L46.358 132.795L39.0009 115.587Z" fill="white"/>
<path d="M39.0009 115.587L83.1702 127.78L87.363 137.587L46.358 132.795L39.0009 115.587Z" fill="#02C4AC" fill-opacity="0.6"/>
</svg>
