<svg width="73" height="107" viewBox="0 0 73 107" fill="none" xmlns="http://www.w3.org/2000/svg">
<path d="M22.9103 24.4518C44.1552 22.4007 47.7716 21.3687 71.859 13.4053L68.2111 24.5977C44.2637 31.8662 40.6699 33.033 18.823 36.9926L22.9103 24.4518Z" fill="#FD9F9D"/>
<path d="M9.01908 66.6149C31.57 64.6101 35.3869 63.6527 58.1085 56.5094L54.4607 67.7017C31.4845 75.8014 27.5882 76.4324 4.9317 79.1557L9.01908 66.6149Z" fill="#FD9F9D"/>
<path d="M22.9104 24.4517L58.1555 56.823L54.5076 68.0154L18.823 36.9925L22.9104 24.4517Z" fill="white"/>
<path d="M22.9104 24.4517L58.1555 56.823L54.5076 68.0154L18.823 36.9925L22.9104 24.4517Z" fill="#FD9F9D" fill-opacity="0.6"/>
<path d="M9.06299 66.48L26.8249 93.4515L24.4955 100.598L4.97561 79.0208L9.06299 66.48Z" fill="white"/>
<path d="M9.06299 66.48L26.8249 93.4515L24.4955 100.598L4.97561 79.0208L9.06299 66.48Z" fill="#FD9F9D" fill-opacity="0.6"/>
</svg>
