<svg width="95" height="129" viewBox="0 0 95 129" fill="none" xmlns="http://www.w3.org/2000/svg">
<path d="M12.258 48.8311C29.8061 30.1994 32.2538 26.4118 47.6966 0.200452L53.246 13.1802C37.3807 38.654 35.0598 42.5454 18.476 63.3747L12.258 48.8311Z" fill="#02C4AC"/>
<path d="M33.0288 97.8459C51.7919 78.2244 54.4795 74.3457 69.3377 49.953L74.8871 62.9327C60.5546 88.3893 57.5376 92.0363 39.2468 112.39L33.0288 97.8459Z" fill="#02C4AC"/>
<path d="M12.2581 48.8311L69.6279 50.1986L75.1773 63.1783L18.476 63.3746L12.2581 48.8311Z" fill="white"/>
<path d="M12.2581 48.8311L69.6279 50.1986L75.1773 63.1783L18.476 63.3746L12.2581 48.8311Z" fill="#02C4AC" fill-opacity="0.6"/>
<path d="M32.9619 97.6895L70.2921 107.995L73.8357 116.283L39.1799 112.233L32.9619 97.6895Z" fill="white"/>
<path d="M32.9619 97.6895L70.2921 107.995L73.8357 116.283L39.1799 112.233L32.9619 97.6895Z" fill="#02C4AC" fill-opacity="0.6"/>
</svg>
