<svg width="85" height="133" viewBox="0 0 85 133" fill="none" xmlns="http://www.w3.org/2000/svg">
<path d="M8.80228 44.8899C29.876 28.4076 33.0032 24.8801 53.098 0.233416L56.7833 14.5215C36.3683 38.3395 33.3559 41.9942 12.9316 60.8994L8.80228 44.8899Z" fill="#FD9F9D"/>
<path d="M22.5278 98.816C45.0133 81.5026 48.4027 77.919 67.6064 55.0592L71.2917 69.3473C52.4633 93.3894 48.7701 96.6816 26.6571 114.826L22.5278 98.816Z" fill="#FD9F9D"/>
<path d="M8.80225 44.8896L67.8672 55.3588L71.5526 69.647L12.9316 60.8992L8.80225 44.8896Z" fill="white"/>
<path d="M8.80225 44.8896L67.8672 55.3588L71.5526 69.647L12.9316 60.8992L8.80225 44.8896Z" fill="#FD9F9D" fill-opacity="0.6"/>
<path d="M22.4834 98.6438L59.4304 115.185L61.7837 124.309L26.6127 114.653L22.4834 98.6438Z" fill="white"/>
<path d="M22.4834 98.6438L59.4304 115.185L61.7837 124.309L26.6127 114.653L22.4834 98.6438Z" fill="#FD9F9D" fill-opacity="0.6"/>
</svg>
