<svg width="52" height="46" viewBox="0 0 52 46" fill="none" xmlns="http://www.w3.org/2000/svg">
<path fill-rule="evenodd" clip-rule="evenodd" d="M51.6464 18.3538C48.8568 20.7493 45.5072 22.5818 41.7271 23.6228C28.0306 27.3949 13.8694 19.3496 10.0973 5.6531C9.63415 3.97132 9.34914 2.28253 9.2309 0.606835C1.913 6.89118 -1.55053 17.0511 1.18052 26.9675C4.95263 40.6641 19.1138 48.7094 32.8103 44.9373C44.825 41.6283 52.4912 30.325 51.6464 18.3538Z" fill="#F75A2D"/>
<path fill-rule="evenodd" clip-rule="evenodd" d="M51.6464 18.3538C48.8568 20.7493 45.5072 22.5818 41.7271 23.6228C28.0306 27.3949 13.8694 19.3496 10.0973 5.6531C9.63415 3.97132 9.34914 2.28253 9.2309 0.606835C1.913 6.89118 -1.55053 17.0511 1.18052 26.9675C4.95263 40.6641 19.1138 48.7094 32.8103 44.9373C44.825 41.6283 52.4912 30.325 51.6464 18.3538Z" fill="black" fill-opacity="0.2" style="mix-blend-mode:multiply"/>
</svg>
