<svg width="55" height="123" viewBox="0 0 55 123" fill="none" xmlns="http://www.w3.org/2000/svg">
<path d="M0.177765 32.1782C24.7002 21.4815 28.6093 18.8469 54.2229 0V14.7557C28.5062 32.7201 24.6764 35.5066 0.177765 48.7117V32.1782Z" fill="#FD9F9D"/>
<path d="M0 87.8232C26.097 76.6743 30.274 74.0508 54.5784 56.7117V71.4674C30.3421 90.0451 25.9437 92.3106 0 104.357V87.8232Z" fill="#FD9F9D"/>
<path d="M0.177765 32.178L54.7562 57.0672V71.8229L0.177765 48.7115V32.178Z" fill="white"/>
<path d="M0.177765 32.178L54.7562 57.0672V71.8229L0.177765 48.7115V32.178Z" fill="#FD9F9D" fill-opacity="0.6"/>
<path d="M0 87.6455L31.6448 112.89V122.313L0 104.179V87.6455Z" fill="white"/>
<path d="M0 87.6455L31.6448 112.89V122.313L0 104.179V87.6455Z" fill="#FD9F9D" fill-opacity="0.6"/>
</svg>
