<svg width="42" height="42" viewBox="0 0 42 42" fill="none" xmlns="http://www.w3.org/2000/svg">
<path fill-rule="evenodd" clip-rule="evenodd" d="M41.4862 28.1044C38.597 28.9609 35.4777 29.2084 32.3018 28.7199C20.7946 26.9498 12.901 16.1863 14.6712 4.67904C14.8885 3.26608 15.2415 1.9076 15.7147 0.614809C8.13559 2.86157 2.13983 9.29864 0.85825 17.63C-0.911871 29.1372 6.98165 39.9007 18.4889 41.6708C28.5832 43.2236 38.1051 37.3402 41.4862 28.1044Z" fill="white"/>
<path fill-rule="evenodd" clip-rule="evenodd" d="M41.4862 28.1044C38.597 28.9609 35.4777 29.2084 32.3018 28.7199C20.7946 26.9498 12.901 16.1863 14.6712 4.67904C14.8885 3.26608 15.2415 1.9076 15.7147 0.614809C8.13559 2.86157 2.13983 9.29864 0.85825 17.63C-0.911871 29.1372 6.98165 39.9007 18.4889 41.6708C28.5832 43.2236 38.1051 37.3402 41.4862 28.1044Z" fill="#1747E7" fill-opacity="0.6"/>
</svg>
