<svg width="130" height="150" viewBox="0 0 130 150" fill="none" xmlns="http://www.w3.org/2000/svg">
<path d="M58.0741 30.393C87.8278 36.0334 93.1636 36.0633 129.137 34.7787L119.724 48.5765C84.2177 48.9702 78.8591 49.1328 47.5276 45.8531L58.0741 30.393Z" fill="#FDBE11"/>
<path d="M22.4126 82.3121C53.927 88.5341 59.5063 88.7453 93.2933 88.0354L83.8808 101.833C49.3674 103.745 43.8095 103.057 11.8661 97.7722L22.4126 82.3121Z" fill="#FDBE11"/>
<path d="M58.0743 30.3928L93.2328 88.4811L83.8203 102.279L47.5278 45.8529L58.0743 30.3928Z" fill="white"/>
<path d="M58.0743 30.3928L93.2328 88.4811L83.8203 102.279L47.5278 45.8529L58.0743 30.3928Z" fill="#FDBE11" fill-opacity="0.6"/>
<path d="M22.526 82.1458L36.013 125.937L30.0026 134.748L11.9794 97.6059L22.526 82.1458Z" fill="white"/>
<path d="M22.526 82.1458L36.013 125.937L30.0026 134.748L11.9794 97.6059L22.526 82.1458Z" fill="#FDBE11" fill-opacity="0.6"/>
</svg>
