<svg width="113" height="152" viewBox="0 0 113 152" fill="none" xmlns="http://www.w3.org/2000/svg">
<path d="M15.6355 58.1704C36.2628 35.9982 39.1314 31.4989 57.2126 0.373821L63.8728 15.6909C45.2863 45.9465 42.5686 50.5676 23.0982 75.333L15.6355 58.1704Z" fill="#FDBE11"/>
<path d="M40.5675 116.013C62.6251 92.6606 65.7768 88.0519 83.1796 59.0828L89.8399 74.3999C73.0668 104.624 69.5237 108.961 48.0302 133.175L40.5675 116.013Z" fill="#FDBE11"/>
<path d="M15.6355 58.1704L83.5246 59.3715L90.1848 74.6886L23.0982 75.333L15.6355 58.1704Z" fill="white"/>
<path d="M15.6355 58.1704L83.5246 59.3715L90.1848 74.6886L23.0982 75.333L15.6355 58.1704Z" fill="#FDBE11" fill-opacity="0.6"/>
<path d="M40.4872 115.828L84.7306 127.75L88.9836 137.531L47.9499 132.991L40.4872 115.828Z" fill="white"/>
<path d="M40.4872 115.828L84.7306 127.75L88.9836 137.531L47.9499 132.991L40.4872 115.828Z" fill="#FDBE11" fill-opacity="0.6"/>
</svg>
