<svg width="38" height="36" viewBox="0 0 38 36" fill="none" xmlns="http://www.w3.org/2000/svg">
<path fill-rule="evenodd" clip-rule="evenodd" d="M37.4264 20.8449C34.9832 21.9975 32.2531 22.642 29.3725 22.642C18.9351 22.642 10.4739 14.1808 10.4739 3.74344C10.4739 2.46183 10.6015 1.21001 10.8446 0C4.43527 3.02378 0 9.54465 0 17.1014C0 27.5388 8.46118 36 18.8986 36C28.0544 36 35.6895 29.4892 37.4264 20.8449Z" fill="white"/>
<path fill-rule="evenodd" clip-rule="evenodd" d="M37.4264 20.8449C34.9832 21.9975 32.2531 22.642 29.3725 22.642C18.9351 22.642 10.4739 14.1808 10.4739 3.74344C10.4739 2.46183 10.6015 1.21001 10.8446 0C4.43527 3.02378 0 9.54465 0 17.1014C0 27.5388 8.46118 36 18.8986 36C28.0544 36 35.6895 29.4892 37.4264 20.8449Z" fill="#F75A2D" fill-opacity="0.8"/>
</svg>
